<svg width="450" height="513" xmlns="http://www.w3.org/2000/svg" xmlns:xlink="http://www.w3.org/1999/xlink" overflow="hidden"><defs><clipPath id="clip0"><rect x="292" y="-94" width="450" height="513"/></clipPath></defs><g clip-path="url(#clip0)" transform="translate(-292 94)"><path d="M645 226C622.392 226 601.613 233.819 585.21 246.895L482.724 182.841C485.759 169.112 485.759 154.887 482.724 141.158L585.21 77.104C601.613 90.181 622.392 98 645 98 698.019 98 741 55.019 741 2 741-51.019 698.019-94 645-94 591.981-94 549-51.019 549 2 549 9.158 549.79 16.13 551.276 22.841L448.79 86.895C432.387 73.819 411.608 66 389 66 335.981 66 293 108.981 293 162 293 215.019 335.981 258 389 258 411.608 258 432.387 250.181 448.79 237.105L551.276 301.159C549.761 308.002 548.998 314.991 549 322 549 375.019 591.981 418 645 418 698.019 418 741 375.019 741 322 741 268.981 698.019 226 645 226Z" fill="#403B35" fill-rule="evenodd"/></g></svg>