<svg width="318" height="319" xmlns="http://www.w3.org/2000/svg" xmlns:xlink="http://www.w3.org/1999/xlink" overflow="hidden"><defs><clipPath id="clip0"><rect x="375" y="370" width="318" height="319"/></clipPath></defs><g clip-path="url(#clip0)" transform="translate(-375 -370)"><path d="M578.219 485.783C615.211 522.813 614.703 582.182 578.442 618.644 578.374 618.719 578.293 618.799 578.219 618.873L536.613 660.48C499.916 697.176 440.213 697.171 403.522 660.48 366.826 623.789 366.826 564.08 403.522 527.389L426.496 504.416C432.589 498.323 443.081 502.372 443.395 510.982 443.796 521.955 445.764 532.978 449.394 543.624 450.624 547.228 449.746 551.216 447.052 553.909L438.95 562.012C421.598 579.364 421.053 607.617 438.234 625.139 455.585 642.834 484.104 642.939 501.588 625.455L543.194 583.855C560.649 566.401 560.575 538.189 543.194 520.808 540.903 518.521 538.595 516.744 536.792 515.503 534.206 513.727 532.611 510.833 532.491 507.698 532.245 501.155 534.564 494.413 539.733 489.244L552.769 476.208C556.187 472.789 561.549 472.37 565.513 475.136 570.053 478.305 574.304 481.868 578.219 485.783ZM665.478 398.52C628.787 361.829 569.084 361.824 532.387 398.52L490.781 440.127C490.707 440.201 490.626 440.281 490.558 440.356 454.297 476.818 453.789 536.187 490.781 573.217 494.696 577.132 498.947 580.694 503.486 583.864 507.45 586.63 512.813 586.209 516.231 582.792L529.266 569.756C534.436 564.586 536.754 557.844 536.509 551.302 536.389 548.167 534.794 545.273 532.208 543.497 530.405 542.256 528.097 540.479 525.805 538.192 508.424 520.81 508.351 492.599 525.805 475.145L567.411 433.545C584.895 416.061 613.414 416.166 630.765 433.86 647.946 451.382 647.403 479.636 630.05 496.988L621.947 505.09C619.254 507.784 618.375 511.771 619.605 515.376 623.236 526.021 625.203 537.045 625.604 548.017 625.92 556.627 636.411 560.676 642.503 554.584L665.477 531.61C702.174 494.92 702.174 435.211 665.478 398.52Z" fill="#403B35" fill-rule="evenodd"/></g></svg>