<svg width="536" height="513" xmlns="http://www.w3.org/2000/svg" xmlns:xlink="http://www.w3.org/1999/xlink" overflow="hidden"><defs><clipPath id="clip0"><rect x="688" y="94" width="536" height="513"/></clipPath></defs><g clip-path="url(#clip0)" transform="translate(-688 -94)"><path d="M1195.6 266.491 1049.5 245.194 984.2 112.811C972.5 89.2134 938.6 88.9134 926.8 112.811L861.5 245.194 715.401 266.491C689.201 270.291 678.701 302.587 697.7 321.085L803.4 424.072 778.4 569.554C773.9 595.851 801.6 615.548 824.8 603.25L955.5 534.558 1086.2 603.25C1109.4 615.448 1137.1 595.851 1132.6 569.554L1107.6 424.072 1213.3 321.085C1232.3 302.587 1221.8 270.291 1195.6 266.491ZM1056.1 407.274 1079.8 545.657 955.5 480.365 831.2 545.657 854.9 407.274 754.3 309.286 893.3 289.089 955.5 163.104 1017.7 289.089 1156.7 309.286 1056.1 407.274Z" fill="#F2B138" fill-rule="evenodd"/></g></svg>