<svg width="537" height="513" xmlns="http://www.w3.org/2000/svg" xmlns:xlink="http://www.w3.org/1999/xlink" overflow="hidden"><defs><clipPath id="clip0"><rect x="58" y="83" width="537" height="513"/></clipPath></defs><g clip-path="url(#clip0)" transform="translate(-58 -83)"><path d="M297.8 100.811 232.5 233.194 86.4005 254.491C60.2005 258.291 49.7005 290.587 68.7005 309.085L174.4 412.072 149.4 557.554C144.9 583.851 172.6 603.548 195.8 591.25L326.5 522.558 457.2 591.25C480.4 603.448 508.1 583.851 503.6 557.554L478.6 412.072 584.3 309.085C603.3 290.587 592.8 258.291 566.6 254.491L420.5 233.194 355.2 100.811C343.5 77.2134 309.6 76.9134 297.8 100.811Z" fill="#F2B138" fill-rule="evenodd"/></g></svg>