<svg width="446" height="391" xmlns="http://www.w3.org/2000/svg" xmlns:xlink="http://www.w3.org/1999/xlink" overflow="hidden"><defs><clipPath id="clip0"><rect x="105" y="266" width="446" height="391"/></clipPath></defs><g clip-path="url(#clip0)" transform="translate(-105 -266)"><path d="M327.5 266C204.604 266 105 347.047 105 447.071 105 490.25 123.6 529.772 154.541 560.85 143.677 604.725 107.347 643.812 106.912 644.248 105 646.25 104.479 649.21 105.608 651.821 106.738 654.433 109.172 656 111.953 656 169.577 656 212.773 628.317 234.154 611.254 262.575 621.962 294.125 628.143 327.5 628.143 450.396 628.143 550 547.096 550 447.071 550 347.047 450.396 266 327.5 266Z" fill="#403B35" fill-rule="evenodd"/></g></svg>