<svg width="449" height="449" xmlns="http://www.w3.org/2000/svg" xmlns:xlink="http://www.w3.org/1999/xlink" overflow="hidden"><defs><clipPath id="clip0"><rect x="733" y="181" width="449" height="449"/></clipPath></defs><g clip-path="url(#clip0)" transform="translate(-733 -181)"><path d="M1134 182 782 182C755.49 182 734 203.49 734 230L734 582C734 608.51 755.49 630 782 630L919.25 630 919.25 477.69 856.25 477.69 856.25 406 919.25 406 919.25 351.36C919.25 289.21 956.25 254.88 1012.92 254.88 1040.06 254.88 1068.44 259.72 1068.44 259.72L1068.44 320.72 1037.17 320.72C1006.36 320.72 996.75 339.84 996.75 359.45L996.75 406 1065.53 406 1054.53 477.69 996.75 477.69 996.75 630 1134 630C1160.51 630 1182 608.51 1182 582L1182 230C1182 203.49 1160.51 182 1134 182Z" fill="#403B35" fill-rule="evenodd"/></g></svg>