<svg width="513" height="450" xmlns="http://www.w3.org/2000/svg" xmlns:xlink="http://www.w3.org/1999/xlink" overflow="hidden"><defs><clipPath id="clip0"><rect x="719" y="97" width="513" height="450"/></clipPath></defs><g clip-path="url(#clip0)" transform="translate(-719 -97)"><path d="M1177.4 130.313C1119.6 81.7263 1030.3 89.0244 975 145.309 919.7 89.0244 830.4 81.6264 772.6 130.313 697.4 193.596 708.4 296.768 762 351.453L937.4 530.104C947.4 540.302 960.8 546 975 546 989.3 546 1002.6 540.401 1012.6 530.204L1188 351.553C1241.5 296.868 1252.7 193.696 1177.4 130.313ZM1153.8 317.762 978.4 496.413C976 498.813 974 498.813 971.6 496.413L796.2 317.762C759.7 280.572 752.3 210.191 803.5 167.103 842.4 134.412 902.4 139.311 940 177.6L975 213.291 1010 177.6C1047.8 139.111 1107.8 134.412 1146.5 167.003 1197.6 210.091 1190 280.872 1153.8 317.762Z" fill="#D99C9C" fill-rule="evenodd"/></g></svg>