<svg width="67" height="201" xmlns="http://www.w3.org/2000/svg" xmlns:xlink="http://www.w3.org/1999/xlink" overflow="hidden"><defs><clipPath id="clip0"><rect x="358" y="42" width="67" height="201"/></clipPath></defs><g clip-path="url(#clip0)" transform="translate(-358 -42)"><path d="M40.4246-0.223819C35.0651-0.223819 29.6169 0.243146 24.6988 0.247926 19.3904 0.253953 14.0771 0.245536 8.76987 0.348094 8.52175 0.352874 8.27615 0.354121 8.03295 0.354121 7.73979 0.354121 7.44915 0.351731 7.16217 0.349237 6.87268 0.346847 6.58571 0.344457 6.30239 0.344457 3.92604 0.344457 1.76857 0.520583-0.140765 2.34241-0.366891 2.55969-0.366891 2.99039-0.140765 3.20756 1.7248 4.98959 3.95882 5.25861 6.32669 5.25861 6.83864 5.25861 7.35677 5.24656 7.87846 5.23336 8.40141 5.2212 8.92802 5.20801 9.45579 5.20801 9.58106 5.20801 9.70632 5.20915 9.83158 5.2104 14.7861 5.27316 19.7431 5.29602 24.6988 5.30204 29.6229 5.30807 35.0676 5.77628 40.4283 5.77628 45.0532 5.77628 49.6174 5.42757 53.7279 4.12933 55.0109 3.72513 55.0097 1.82484 53.7279 1.42064 49.6222 0.124898 45.0569-0.223819 40.4246-0.223819" fill="#DADADA" fill-rule="evenodd" transform="matrix(1 0 0 -1 369 242)"/><path d="M22.6766 30.2068C22.5435 27.931 21.8954 25.7762 20.3776 24.303 20.1128 24.0474 19.8274 23.8128 19.513 23.6066 17.4378 22.2125 17.41 19.5674 15.8221 17.8029 15.209 17.1137 14.429 16.6865 13.5655 16.4161 12.3599 16.0246 11.0018 15.9469 9.72722 15.9036 8.80207 15.8752 7.86847 15.8406 6.94092 15.811 6.55151 13.6994 7.33158 11.573 7.64476 9.45401 8.04865 6.69407 7.64476 3.82065 6.50318 1.28798 6.31446 0.875456 5.93109 0.164201 5.43659-0.19015 5.17892-0.375408 4.89355-0.461869 4.58756-0.361796 4.02287-0.176644 3.95392 0.648297 3.63949 1.104 2.7761 2.36231 1.16043 3.03772 1.43851 4.84425 1.71794 6.70151 2.19796 8.2661 2.01664 10.2504 1.9404 11.0679 1.80855 11.878 1.80855 12.6967 1.81459 13.7846 2.06611 14.8725 2.53895 15.8468 2.71319 16.2099 2.92232 16.5655 2.95742 16.9643 2.99971 17.4471 2.7761 17.9028 2.56082 18.3363 1.56432 20.3416 0.219547 22.3544-0.121542 24.5673-0.560427 27.4123-0.204966 30.434 0.791534 33.1162 1.45299 34.908 2.47729 36.6441 4.06515 37.6752 6.20927 39.0619 8.94715 38.9125 11.4626 38.5989 12.7856 39.7868 14.7918 39.7806 16.4764 39.2681 18.0787 38.7841 19.5904 37.8951 20.6836 36.6082 22.1601 34.8721 22.8084 32.4975 22.6766 30.2068" fill="#3B2645" fill-rule="evenodd" transform="matrix(1 0 0 -1 383 82)"/><path d="M4.0859 14.7437C3.69732 12.7308 4.47562 10.7038 4.78812 8.68377 5.19124 6.05277 4.78812 3.31359 3.649 0.899237 3.49332 0.574315 3.16274-0.201441 2.80191-0.346211 2.4097-0.505175 2.00065-0.0413629 1.8112 0.271799 1.59524 0.632 1.49745 1.04756 1.42512 1.45956 1.16447 2.91446 1.16084 4.41184 1.41421 5.86795 1.6073 6.97806 1.94755 8.10814 1.71226 9.21115 1.60491 9.70548 1.38646 10.1705 1.2658 10.6625 1.06907 11.463 1.14754 12.3247 1.48415 13.0793 1.70748 13.5807 2.04045 14.0339 2.22149 14.553 2.71264 15.9703 2.03328 17.7572 1.16323 18.9074 0.475351 19.8149-0.794088 21.0428-0.105068 22.2635 0.680498 23.6596 3.17604 23.8632 4.51667 23.3959 6.10224 22.8391 7.2981 21.5712 8.32623 20.2705 9.37607 18.9473 10.3414 17.4901 10.6262 15.8432 10.654 15.6667 10.6745 15.4901 10.6962 15.3206 9.49309 14.9474 8.13802 14.8732 6.86609 14.832 5.94303 14.805 5.01145 14.772 4.0859 14.7437" fill="#2C1C33" fill-rule="evenodd" transform="matrix(1 0 0 -1 386 81)"/><path d="M6.20703 15.0394C6.20703 15.0394 5.81803 11.9876 6.70766 9.13359 7.33124 7.13484 8.02377 2.56024 7.44287 1.13837 7.44287 1.13837 7.27095 0.900938 6.93976 0.60744L6.78416 0.483556C6.47177 0.241063 6.05025-0.0180275 5.51072-0.169943L5.38149-0.206877C4.99746-0.308997 4.54838-0.36264 4.05651-0.307787L3.93106-0.291189C3.5546-0.247769 3.1456-0.155872 2.70398 0.00747484 2.70398 0.00747484 2.22973 4.67133 1.53082 6.08177 1.53082 6.08177 1.09547 3.22396 0.258577 2.91387L-0.338646 3.03511C-0.338646 3.03511-0.216867 6.16597-0.2884 7.56618-0.461613 10.9703 1.6325 13.6851 1.6325 13.6851 1.6325 13.6851 4.78924 17.0267 6.20703 15.0394" fill="#F5A784" fill-rule="evenodd" transform="matrix(1 0 0 -1 417 156)"/><path d="M0.596316-0.310591 0.458229-0.294725C0.408675 1.7134-0.0149733 3.66184-0.37243 5.66881L-0.293761 5.68951C0.552109 3.77532 0.706714 1.72443 0.596316-0.310591" fill="#E0855C" fill-rule="evenodd" transform="matrix(1 0 0 -1 420 156)"/><path d="M0.595755-0.230014 0.453136-0.2596C0.40186 1.4224-0.0231338 3.04523-0.374911 4.72319L-0.301455 4.74049C0.544479 3.15436 0.702361 1.45497 0.595755-0.230014" fill="#E0855C" fill-rule="evenodd" transform="matrix(1 0 0 -1 422 155)"/><path d="M0.608415-0.2044 0.436409-0.329825C0.358714 1.68131-0.0424337 3.63564-0.376883 5.64689L-0.303371 5.67018C0.537652 3.81153 0.675113 1.79126 0.608415-0.2044" fill="#E0855C" fill-rule="evenodd" transform="matrix(1 0 0 -1 423 155)"/><path d="M19.632-0.0584841 15.4405-0.353529C15.4405-0.353529 13.5073 22.0464 11.7247 28.6337 11.5454 29.2871 11.3387 29.9821 11.0985 30.7197 8.95149 37.4178 4.5186 47.4175 0.643853 56.771 0.142004 57.9927-0.139946 59.1301-0.257047 60.1982-0.951323 66.917 4.6321 70.6465 4.6321 70.6465 5.88431 70.5051 7.58815 69.2908 8.68261 67.5571 13.2444 60.3518 16.4513 41.969 17.9999 33.3239 18.172 32.39 18.3177 31.5682 18.4479 30.8879 20.0586 22.4049 19.632-0.0584841 19.632-0.0584841" fill="#F5A784" fill-rule="evenodd" transform="matrix(1 0 0 -1 403 144)"/><path d="M18.6709 2.24686C16.7013 1.21091 14.0589 0.188355 11.4888-0.3688 10.8297 1.60523 9.97044 3.86201 8.9819 6.30999 6.59692 12.1989 3.45973 19.1605 0.608481 25.7976 0.0862069 27.0246-0.207218 28.1672-0.329085 29.2398L1.6617 35.0088C1.6617 35.0088 5.02774 35.2059 8.97441 36.6313 10.3496 34.536 11.6018 31.5041 12.7346 28.0336 15.5112 19.5193 17.5257 8.41248 18.6709 2.24686" fill="#3B2645" fill-rule="evenodd" transform="matrix(1 0 0 -1 403 113)"/><path d="M12.6748 21.1255C11.5054 16.8546 9.13204 7.32906 8.94033-0.368128 6.56698 5.45837 3.44499 12.3463 0.607751 18.9131 0.0880243 20.1271-0.204076 21.2575-0.325242 22.3189L1.65573 28.0266C1.65573 28.0266 5.00545 28.2217 8.93287 29.632 10.3014 27.559 11.5487 24.5591 12.6748 21.1255" fill="#2C1C33" fill-rule="evenodd" transform="matrix(1 0 0 -1 403 106)"/><path d="M14.1055-0.210613 11.5703-0.210613 11.5703 2.8543 9.56445 1.09533C8.60542 0.254199 7.37756-0.210613 6.10653-0.210613L2.11345-0.210613C-0.199714-0.325012-0.538474 0.260091-0.154137 0.571591 0.601759 1.1826 3.32844 1.85274 3.32844 1.85274 3.32844 1.85274 11.2959 11.551 13.5423 9.48652 15.7877 7.42205 14.1055-0.210613 14.1055-0.210613" fill="#3B2645" fill-rule="evenodd" transform="matrix(1 0 0 -1 377 237)"/><path d="M17.8623 127.315C16.878 127.392 16.0061 127.525 15.2185 127.671L15.1477 127.671C14.7679 127.749 14.4089 127.84 14.0572 127.938 13.3891 128.106 12.792 128.294 12.2644 128.491 9.58396 129.49 8.69127 130.707 8.69127 130.707 8.69127 130.707 7.60076 129.036 6.1024 125.965 6.06696 125.888 5.48326 124.657 5.21708 124.063 4.58321 122.656 3.90182 121.04 3.22536 119.229 2.45962 117.215 1.71354 114.976 1.01742 112.513-1.90852 102.085 0.686551 84.3596 2.40346 76.0842 2.55732 75.3567 2.71245 74.7057 2.83213 74.1398 3.90792 69.5019 4.72372 63.7101 5.10349 55.7784 5.30006 51.6237 5.37094 46.8812 5.30006 41.41 5.27324 38.5646 5.3355 35.6826 5.46254 32.8699 5.82885 25.2395 7.53724 11.7868 7.64104 11.0885 7.64104 11.0885 8.00503 4.91176 3.11052-0.28857 2.98105-0.425796 9.6682 2.76699 12.2693 5.83594 12.8213 6.18444 13.1693 6.66055 13.2914 7.30662 13.5845 8.84904 13.5747 11.3484 13.7201 12.9417 14.2965 19.2023 14.7116 25.4969 15.3455 31.772 15.3869 32.2687 15.4432 32.7582 15.4994 33.2622 15.5555 33.793 22.6945 127.202 22.6945 127.202 20.8664 127.133 19.2691 127.175 17.8623 127.315" fill="#F5A784" fill-rule="evenodd" transform="matrix(1 0 0 -1 377 235)"/><path d="M0.396591-0.213347 3.08719-0.213347 3.08719 2.89585 5.21484 1.11147C6.2328 0.257047 7.53715-0.213347 8.88614-0.213347L13.1241-0.213347C15.5792-0.330533 15.9387 0.264159 15.5308 0.578923 14.7285 1.19887 11.8346 1.87982 11.8346 1.87982 11.8346 1.87982 2.92841 11.0396 0.994254 9.62267-1.57366 7.74264 0.396591-0.213347 0.396591-0.213347" fill="#3B2645" fill-rule="evenodd" transform="matrix(1 0 0 -1 401 237)"/><path d="M21.361 112.313C20.0877 116.806 17.9183 121.159 15.6328 124.821 15.0138 125.821 14.3777 126.765 13.7527 127.644 12.8456 128.938 10.4259 128.86 7.77538 128.414 5.65845 128.078 3.39494 127.49 1.65042 127.198 0.862903 127.058 0.195144 126.967-0.317635 126.988-0.317635 126.988 8.08545 19.083 8.66173 12.8357 8.80094 11.1868 9.03289 9.93712 9.1415 8.40108 9.12688 8.21425 9.11837 8.02616 9.13782 7.8247L9.18787 7.54936C9.2172 7.41467 9.23918 7.34069 9.27703 7.25689 10.5187 3.85608 19.4552-0.446287 19.3063-0.287354 15.363 3.89851 14.9662 9.74297 14.9613 11.8554 14.9601 12.2849 14.987 12.6998 15.0395 13.1269 15.3251 15.4443 16.5716 25.8181 16.889 32.4585 17.0356 35.3582 17.099 38.3356 17.0648 41.2779 16.9721 48.6232 17.1479 54.6534 17.5275 59.7129 17.9573 65.6034 18.6678 70.1739 19.5468 73.9764 19.6653 74.5418 19.8203 75.1922 19.9754 75.9189 21.1217 81.4249 22.6465 91.124 22.6819 100.062 22.6967 104.557 22.3316 108.833 21.361 112.313" fill="#F5A784" fill-rule="evenodd" transform="matrix(1 0 0 -1 393 235)"/><path d="M29.067 23.056C28.7398 22.3463 28.2986 21.5679 27.8793 20.9077 27.6356 20.5179 27.3217 19.6199 27.1121 19.014 25.7993 15.0796 25.8515 7.31444 27.1011 1.20385 26.8708 1.17006 22.819 0.543612 17.737 0.0922997 16.7528 0.001767 15.7262-0.0814898 14.6791-0.151546 13.6537-0.220355 12.6125-0.27586 11.5727-0.310888 7.50269-0.464097 3.48115-0.353088 0.669299 0.336041 0.829213 0.336041 1.02441 0.696925 1.24131 1.3293 1.30436 1.52367 1.37346 1.75297 1.44371 2.00398 2.09213 4.43714 2.75642 9.26115 2.64484 14.5655 2.64484 14.8358 2.59515 15.0929 2.57459 15.3645 2.46916 16.6847 2.35768 17.9919 2.22554 19.2917 2.12731 20.2439 2.01583 21.1889 1.88368 22.1351L1.84861 22.4054C1.79277 22.8025 1.73703 23.2057 1.67408 23.6015 1.47169 24.853 1.23411 26.0901 0.927437 27.3417 0.348115 29.747-0.571806 32.4143-0.238514 34.9463-0.220351 35.0852-0.197283 35.2167-0.176719 35.3567L-0.127033 35.592C0.047494 36.2813 0.457195 36.7568 1.01105 37.0874 1.38682 37.3119 1.82064 37.4688 2.28128 37.581 3.35631 37.843 4.51015 37.8731 5.464 37.9697 5.63257 37.9866 5.80585 38.0047 5.98038 38.0179L6.12098 38.0252C6.50521 38.0602 6.86147 38.0819 7.1742 38.1024 8.54265 38.1857 9.32437 38.1857 9.32437 38.31L8.8916 48.4938C8.8916 48.4938 10.0855 48.6579 11.5375 48.6241 13.673 48.5759 16.3614 48.0702 16.5699 45.9436L17.9394 38.4078C17.9394 38.4078 18.6654 38.3596 19.6908 38.2617 20.5707 38.1785 21.6809 38.0674 22.7633 37.9069 22.9935 37.8658 23.2517 37.8236 23.4893 37.7754 23.9571 37.7066 24.4322 37.6378 24.8988 37.5533 26.2684 37.3059 27.5035 36.8581 27.8174 35.4883 27.9568 34.8559 28.061 34.2307 28.1519 33.6115 28.3822 32.1174 28.5507 30.6426 29.0804 29.1073 29.7918 27.0291 29.9954 25.0438 29.067 23.056" fill="#F5A784" fill-rule="evenodd" transform="matrix(1 0 0 -1 382 111)"/><path d="M8.67128-0.341149C4.85443-0.590784 1.82338 0.511273-0.167087 1.59133L-0.32872 4.96951 2.42571 6.62325C4.70449 6.57214 7.57269 6.09137 7.79243 4.04398L8.67128-0.341149" fill="#E0855C" fill-rule="evenodd" transform="matrix(1 0 0 -1 391 69)"/><path d="M18.6118 11.0826C18.3925 13.7766 18.0218 16.0631 17.082 17.2504 12.9598 22.4599 4.49853 21.007 2.85933 16.8256 2.32845 15.4682 2.22376 13.5526 2.40726 11.287 1.31612 11.4351-0.712366 11.3703-0.243112 8.68226 0.146058 6.44228 1.94914 6.06036 3.27809 6.09831 5.11321 0.222955 10.233-0.516327 12.7603-0.393939 15.4514-0.262907 19.2744 2.92687 18.6118 11.0826" fill="#F5A784" fill-rule="evenodd" transform="matrix(1 0 0 -1 385 67)"/><path d="M0.158078-0.393164C0.158078-0.393164 0.837346-0.623607 0.679069 0.629869 0.537008 1.75756 0.0691405 1.58009 0.0691405 1.58009 0.0691405 1.58009-0.394051 1.55918-0.278552 0.573188-0.164146-0.414075 0.158078-0.393164 0.158078-0.393164" fill="#3B2645" fill-rule="evenodd" transform="matrix(1 0 0 -1 399 56)"/><path d="M0.162853-0.392633C0.162853-0.392633 0.842021-0.623076 0.683744 0.6304 0.541683 1.75809 0.0739156 1.58062 0.0739156 1.58062 0.0739156 1.58062-0.389375 1.55971-0.273776 0.573612-0.159471-0.412377 0.162853-0.392633 0.162853-0.392633" fill="#3B2645" fill-rule="evenodd" transform="matrix(1 0 0 -1 393 57)"/><path d="M-0.216407-0.0855768C0.160264-0.0191487 1.04065-0.181912 1.20036 0.187144 1.33289 0.495497 0.625063 2.24671 0.522507 2.54816 0.409551 2.87822 0.296595 3.17384 0.18621 3.46384L0.284852 3.53036 0.522507 3.62088C0.943242 2.4152 1.26534 1.14991 1.66012 0.00720543 1.69513-0.0947563 1.61472-0.204812 1.49125-0.209352 0.934183-0.225441 0.39915-0.351487-0.155343-0.379025-0.339764-0.38702-0.409886-0.11884-0.216407-0.0855768" fill="#E0855C" fill-rule="evenodd" transform="matrix(1 0 0 -1 396 59)"/><path d="M-0.220125-0.00587084C0.284512 0.431507 1.24881 0.607632 1.65078-0.180039 1.72347-0.322081 1.64075-0.553164 1.52437-0.551207 1.26758-0.551207 1.03343-0.378832 0.775453-0.365623 0.494931-0.350457 0.233175-0.46608-0.0272865-0.613666-0.263913-0.744292-0.443054-0.197162-0.220125-0.00587084" fill="#3B2645" fill-rule="evenodd" transform="matrix(1 0 0 -1 399 53)"/><path d="M-0.281992-0.175539C-0.0448107 0.614613 1.12649 0.75493 1.64684 0.300923 1.76608 0.197766 1.70182-0.0140203 1.57923-0.065656 1.2927-0.187393 0.976361-0.0775105 0.674925-0.126525 0.410206-0.168927 0.203918-0.315741-0.0389873-0.429614-0.163944-0.48786-0.327888-0.330332-0.281992-0.175539" fill="#3B2645" fill-rule="evenodd" transform="matrix(1 0 0 -1 392 54)"/><path d="M0.0840811 0.628101C0.53975 0.436041 0.889724 0.202352 1.41478 0.206672 1.82315 0.209888 2.25455 0.418949 2.64756 0.302702L2.71903 0.152178C2.44281-0.288458 1.67233-0.364271 1.18804-0.347179 0.668573-0.328984 0.046638-0.172119-0.240584 0.282393-0.377085 0.495773-0.14162 0.724132 0.0840811 0.628101" fill="#E0855C" fill-rule="evenodd" transform="matrix(1 0 0 -1 395 62)"/><path d="M3.30532 8.50956 0.293273 6.02947C-0.0476997 4.455-0.534344 2.98763-0.209557 1.40721-0.103653 0.895468 0.0593834 0.369482 0.440231-0.00420215 0.767483-0.325513 1.29647-0.494521 1.72587-0.346934L1.92257-0.251719C2.32957 0.0112741 2.44405 0.526499 2.51254 0.990683 2.64321 1.87723 2.73153 2.77578 2.99543 3.63496 3.27541 4.54662 3.85671 5.5248 4.59729 6.16394 5.44988 6.89932 6.7144 6.95056 7.72253 7.39209 8.42827 7.70029 8.91234 8.49285 9.55462 8.72848 10.3288 9.01412 11.7228 8.29053 12.4409 8.0299 13.6096 7.60507 15.1418 7.02548 15.9097 6.02353 16.8034 4.86199 17.8476 3.00782 18.2371 1.62019 18.2807 1.46911 18.659 0.577744 18.8034 0.502721 19.5988 0.083838 19.4519 3.11851 19.5489 3.55174 19.8253 4.7965 19.6771 6.13299 19.0935 7.28017 18.1401 9.15577 16.3864 10.0531 14.3477 10.4756 13.2474 10.7028 12.3327 10.5409 11.21 10.5731 9.75753 10.616 8.15815 10.6433 6.76542 10.0602 5.59298 9.56994 4.49524 8.99752 3.30532 8.50956" fill="#3B2645" fill-rule="evenodd" transform="matrix(1 0 0 -1 385 55)"/><path d="M38.6896 45.2654C38.6543 36.1938 37.1372 26.3727 35.9965 20.7976 35.8422 20.0616 35.6879 19.4032 35.5701 18.8306 34.6955 14.9804 33.9884 10.3523 33.5609 4.38767 30.1121 1.91096 25.7402 0.609867 21.1848 0.0434863 19.8546-0.133422 18.505-0.240286 17.1615-0.28938 12.9219-0.466288 8.70303-0.133422 5.07087 0.354345 4.69309 8.37805 3.88157 14.2371 2.81142 18.9289 2.69226 19.5013 2.53805 20.1599 2.38499 20.8959 1.36339 25.8998 0.0270963 34.3338-0.253491 42.5565-0.449024 48.0752-0.162368 53.5103 1.00622 57.7476 1.40472 59.1924 1.82497 60.5573 2.25861 61.8523 2.56598 62.7859 2.88183 63.6852 3.20249 64.5415 3.8755 66.3734 4.55332 68.0085 5.18376 69.4313 5.33692 69.7789 5.48872 70.1143 5.63812 70.4386 5.86284 70.9288 6.04383 71.4337 6.15922 71.962 6.73745 74.6145 7.26347 79.068 7.16388 83.9159 7.16388 84.1911 7.11408 84.4528 7.09347 84.7292 6.91122 87.05 6.71569 89.3351 6.401 91.6214L6.36574 91.8965C6.13495 93.581 5.84829 95.2445 5.44258 96.9214 4.86195 99.3699 3.98723 102.079 4.27399 104.663 10.1996 102.908 21.4788 100.919 33.0506 103.558 33.2814 102.037 33.2961 100.727 33.8281 99.1648 34.5411 97.0492 34.9469 94.2174 34.0164 92.194 33.6872 91.4728 33.177 90.8425 32.7567 90.1705 32.5125 89.7749 32.2878 89.2576 32.0788 88.6422 30.7633 84.6371 31.5614 77.2424 32.8125 71.0234 32.8125 71.0234 36.1082 62.1987 37.3753 57.6493 38.341 54.1259 38.7042 49.7951 38.6896 45.2654" fill="#3B2645" fill-rule="evenodd" transform="matrix(1 0 0 -1 377 180)"/><path d="M8.95484 6.94778C7.04236 3.86172 2.98143 1.31773-0.259972-0.33235-0.46979 5.10173-0.162244 10.4536 1.09105 14.626 1.51832 16.0486 1.96914 17.3926 2.43422 18.6676 2.79383 18.4378 12.3383 12.4109 8.95484 6.94778" fill="#2C1C33" fill-rule="evenodd" transform="matrix(1 0 0 -1 377 137)"/><path d="M17.8381 7.75903 17.8999 7.68905 17.8163 7.7382ZM26.0171 53.356C25.3325 55.1935 24.4249 56.7264 24.1171 56.6332 23.95 56.5841 22.3456 55.7458 21.5992 55.3923 13.6783 51.6586 5.03024 42.3637 1.43635 34.5306-0.266106 30.8472-0.838078 27.4904 0.299709 25.1853 2.96547 19.791 6.58733 14.8925 10.14 10.064 12.6107 6.71329 15.1856 3.24841 18.2076 0.407068 20.0494-1.3174 23.8118 0.0682851 24.7121 2.45678 25.0744 3.41901 24.7751 4.50037 24.105 5.27846 23.1211 6.42979 21.6828 6.88263 20.3221 7.42025 16.9026 8.79123 15.9042 12.0855 14.3265 15.1674 12.2618 19.1835 10.1885 23.1982 8.1226 27.2142 8.1226 27.2142 8.36732 27.7297 9.00952 28.6625 10.6636 31.0743 14.9627 36.2772 24.4746 42.5821 25.3253 43.1479 26.2195 43.7286 27.1549 44.3078 28.4381 45.1069 27.2519 50.0262 26.0171 53.356" fill="#F5A784" fill-rule="evenodd" transform="matrix(1 0 0 -1 359 130)"/><path d="M30.7085 16.2439 23.1021 9.25273C23.0047 10.231 22.8942 11.2017 22.7632 12.1737L22.7284 12.4513C22.6731 12.8593 22.6178 13.2734 22.5553 13.6801 13.1223 7.31 8.85893 2.05581 7.21874-0.380325 3.68109 1.27722 1.19726 3.73321-0.291631 5.54707 3.27252 13.4594 11.8486 22.8494 19.7038 26.6197 20.0571 26.3977 20.4163 26.1907 20.7696 25.9973 21.9185 25.3836 23.0744 24.9125 24.085 24.5628 26.0089 23.9119 27.4412 23.6987 27.4412 23.6987L30.7085 16.2439" fill="#3B2645" fill-rule="evenodd" transform="matrix(1 0 0 -1 361 101)"/><path d="M0.478451 0.680748C-0.853931 0.680748-0.856072-0.319252 0.478451-0.319252 1.81083-0.319252 1.81297 0.680748 0.478451 0.680748" fill="#C07ADE" fill-rule="evenodd" transform="matrix(1 0 0 -1 390 73)"/><path d="M0.218236 0.657159C-0.447341 0.657159-0.448495-0.342934 0.218236-0.342934 0.884967-0.342934 0.886121 0.657159 0.218236 0.657159" fill="#C07ADE" fill-rule="evenodd" transform="matrix(1 0 0 -1 391 74)"/><path d="M0.245081 0.690857C-0.421121 0.690857-0.422166-0.309227 0.245081-0.309227 0.911283-0.309227 0.912328 0.690857 0.245081 0.690857" fill="#C07ADE" fill-rule="evenodd" transform="matrix(1 0 0 -1 391 76)"/><path d="M0.249573 1.3963C-0.416581 1.3963-0.417606-0.603696 0.249573-0.603696 0.915813-0.603696 0.916837 1.3963 0.249573 1.3963" fill="#C07ADE" fill-rule="evenodd" transform="matrix(1 0 0 -1 392 78)"/><path d="M0.257327 0.70941C-0.4089 0.70941-0.40989-0.29059 0.257327-0.29059 0.923553-0.29059 0.924544 0.70941 0.257327 0.70941" fill="#C07ADE" fill-rule="evenodd" transform="matrix(1 0 0 -1 393 79)"/><path d="M0.53031 0.721009C-0.80175 0.721009-0.803659-0.278991 0.53031-0.278991 1.86237-0.278991 1.86603 0.721009 0.53031 0.721009" fill="#C07ADE" fill-rule="evenodd" transform="matrix(1 0 0 -1 394 81)"/><path d="M0.264285 1.44309C-0.401958 1.44309-0.402833-0.556906 0.264285-0.556906 0.930527-0.556906 0.931482 1.44309 0.264285 1.44309" fill="#C07ADE" fill-rule="evenodd" transform="matrix(1 0 0 -1 396 82)"/><path d="M0.262722 1.4433C-0.403042 1.4433-0.403918-0.556699 0.262722-0.556699 0.929442-0.556699 0.930397 1.4433 0.262722 1.4433" fill="#C07ADE" fill-rule="evenodd" transform="matrix(1 0 0 -1 398 82)"/><path d="M0.52459 1.44171C-0.807894 1.44171-0.809804-0.558444 0.52459-0.558444 1.85707-0.558444 1.85883 1.44171 0.52459 1.44171" fill="#C07ADE" fill-rule="evenodd" transform="matrix(1 0 0 -1 399 81)"/><path d="M0.247133 0.70317C-0.418634 0.70317-0.419562-0.29683 0.247133-0.29683 0.913828-0.29683 0.91484 0.70317 0.247133 0.70317" fill="#C07ADE" fill-rule="evenodd" transform="matrix(1 0 0 -1 401 79)"/><path d="M0.588557 1.04474 0.533079 1.13352C0.345546 1.44019 0.135874 1.44227-0.0536551 1.13352L-0.108092 1.04474C-0.453898 0.481974-0.155496-0.63574 0.239712-0.63574 0.635874-0.63574 0.93228 0.48597 0.588557 1.04474" fill="#C07ADE" fill-rule="evenodd" transform="matrix(1 0 0 -1 401 78)"/><path d="M0.266905 1.44766C-0.399114 1.44766-0.400047-0.552335 0.266905-0.552335 0.932924-0.552335 0.934789 1.44766 0.266905 1.44766" fill="#C07ADE" fill-rule="evenodd" transform="matrix(1 0 0 -1 401 76)"/><path d="M0.241988 0.692321C-0.42419 0.692321-0.425224-0.307763 0.241988-0.307763 0.908167-0.307763 0.9092 0.692321 0.241988 0.692321" fill="#C07ADE" fill-rule="evenodd" transform="matrix(1 0 0 -1 401 74)"/><path d="M0.242247 0.69152C-0.423932 0.69152-0.424966-0.308563 0.242247-0.308563 0.908425-0.308563 0.909373 0.69152 0.242247 0.69152" fill="#C07ADE" fill-rule="evenodd" transform="matrix(1 0 0 -1 400 72)"/><path d="M4.62648 0.401466C4.27683 1.12344 3.42129 1.46297 2.78712 1.76659 1.95452 2.16426 1.10389 2.44577 0.205936 2.55074 0.0485659 2.56869-0.165604 2.43198-0.229698 2.26495L-0.302339 2.0317C-0.280557 1.71702-0.153514 1.49328 0.0715983 1.42017 0.817075 1.17587 1.5637 0.957717 2.2777 0.607133 2.85372 0.322766 3.36793-0.0996235 3.93436-0.389459 4.37844-0.617357 4.88786-0.139687 4.62648 0.401466" fill="#C07ADE" fill-rule="evenodd" transform="matrix(1 0 0 -1 385 67)"/><path d="M9.03746 1.82015C7.65693 0.998776 6.57713 0.517073 4.91607 0.67334 3.56854 0.799911 0.559951 1.24291-0.118897 2.60794L-0.310465 2.555C-0.533833 0.404738 2.94171-0.0576132 4.38191-0.282282 6.1964-0.565121 8.43729-0.38305 9.60725 1.23902 9.86482 1.59548 9.37503 2.02035 9.03746 1.82015" fill="#2C1C33" fill-rule="evenodd" transform="matrix(1 0 0 -1 388 93)"/><path d="M0.553953 1.31932C0.311487 1.47263-0.271706 1.72568-0.287916 1.1437L-0.146992 1.0946C-0.0858279 1.21664 0.451218 0.773106 0.608255 0.634662 0.396917 0.563261 0.253705 0.194078 0.184386-0.0499936 0.126703-0.25548 0.356539-0.419177 0.466236-0.262915 0.599005-0.0753749 0.813824 0.0958851 0.862258 0.345853 1.04127 0.0958851 1.17981-0.192924 1.37504-0.422125 1.52173-0.593257 1.75147-0.426612 1.70641-0.175106 1.58866 0.466479 0.989358 1.04256 0.553953 1.31932" fill="#E0855C" fill-rule="evenodd" transform="matrix(1 0 0 -1 386 59)"/></g></svg>