<svg width="51" height="154" xmlns="http://www.w3.org/2000/svg" xmlns:xlink="http://www.w3.org/1999/xlink" overflow="hidden"><defs><clipPath id="clip0"><rect x="87" y="61" width="51" height="154"/></clipPath></defs><g clip-path="url(#clip0)" transform="translate(-87 -61)"><path d="M34.6519-0.223819C30.0724-0.223819 25.4165 0.243146 21.2133 0.247926 16.6775 0.253953 12.1369 0.245536 7.6023 0.348094 7.3899 0.352874 7.18 0.354121 6.97115 0.354121 6.72121 0.354121 6.47358 0.351731 6.22835 0.349237 5.98082 0.346847 5.7356 0.344457 5.49288 0.344457 3.46226 0.344457 1.61855 0.520583-0.0126482 2.34241-0.205716 2.55969-0.205716 2.99039-0.0126482 3.20756 1.58218 4.98959 3.49017 5.25861 5.51347 5.25861 5.95166 5.25861 6.39466 5.24656 6.84007 5.23336 7.28672 5.2212 7.73704 5.20801 8.18861 5.20801 8.29534 5.20801 8.40217 5.20915 8.509 5.2104 12.7437 5.27316 16.9797 5.29602 21.2133 5.30204 25.4213 5.30807 30.0749 5.77628 34.6556 5.77628 38.6087 5.77628 42.5085 5.42757 46.0211 4.12933 47.1171 3.72513 47.1158 1.82484 46.0211 1.42064 42.5121 0.124898 38.6111-0.223819 34.6519-0.223819" fill="#DADADA" fill-rule="evenodd" transform="matrix(1 0 0 -1 91 214)"/><path d="M33.9956 17.4258C33.107 12.6334 31.5384 7.64773 27.7412 4.41429 26.0365 2.97203 23.9694 1.96101 21.8385 1.18086 20.4973 0.691205 19.1127 0.292598 17.703 0.0277319 16.1451-0.261413 14.5631-0.390235 12.98-0.286947 9.99307-0.0876957 7.01941 0.993745 4.91981 3.03513L4.84992 3.10074C2.48904 5.4387 1.46692 8.78757 1.37184 12.0404 1.28278 15.2993 2.0292 18.5133 2.76961 21.6885 2.13755 21.245 1.17443 21.528 0.682034 22.1149 0.184765 22.7067 0.0511162 23.4929-0.0319347 24.2402-0.561656 29.148 0.682034 34.3269 3.91812 38.1654 6.91106 41.7148 11.8255 44.0782 16.6435 43.6214 20.8741 43.2154 26.1833 43.9627 29.694 41.179 31.1615 40.0149 32.1307 38.3648 32.853 36.6708 35.4114 30.6354 35.1826 23.8344 33.9956 17.4258" fill="#3B2645" fill-rule="evenodd" transform="matrix(1 0 0 -1 88 133)"/><path d="M16.5136 5.54C15.6913 3.46096 14.4643 1.51558 12.8195 0.029634 11.2751-0.256655 9.70665-0.384206 8.13721-0.281937 5.17594-0.0846538 2.22784 0.986211 0.146172 3.00744-0.467297 6.41348 0.153367 10.0492 0.304884 13.5624 0.519825 18.607-0.258422 23.6458-0.131884 28.6904-0.0686658 31.1327 0.266748 33.7026 1.75396 35.6228 3.18977 37.478 6.43516 39.6532 8.75777 38.2179 11.4147 36.5661 12.6739 32.7461 13.5404 29.9272 14.3438 27.3068 15.1542 24.6792 15.9574 22.0516 16.7667 19.4179 17.5771 16.7578 17.7979 14.0087 18.0199 11.1393 17.5831 8.21214 16.5136 5.54" fill="#2C1C33" fill-rule="evenodd" transform="matrix(1 0 0 -1 93 133)"/><path d="M4.17293 28.3829C5.30035 27.0701 6.04784 25.5013 6.70572 23.9241 9.02135 18.3823 10.4002 12.4857 10.7714 6.5314 10.8813 4.77872 10.8952 2.96587 10.2133 1.33452 9.83452 0.42448 8.96459-0.520351 7.96711-0.284712 7.50996-0.177764 7.15395 0.16006 6.87111 0.517038 6.14636 1.43433 5.755 2.5475 5.4216 3.64991 3.08073 11.3953 3.04028 19.6553 0.531416 27.3514 0.247385 28.2242-0.977362 30.5636 0.675389 30.6754 1.94309 30.7596 3.45567 29.2184 4.17293 28.3829" fill="#E0855C" fill-rule="evenodd" transform="matrix(1 0 0 -1 119 124)"/><path d="M0.318371 11.9948C-1.01645 8.32501 0.570293 4.86558 3.75588 2.50781 6.05364 0.807211 8.94975-0.0757368 11.858-0.297932 13.8661-0.452476 15.9532-0.29087 17.758 0.557689 19.9891 1.60705 21.4728 3.75921 22.116 5.98628 22.4103 7.00115 22.6732 8.28704 22.4406 9.33753 22.1256 10.5307 22.0809 11.7273 22.0082 12.9514 22.7701 12.8302 23.5453 12.7815 24.3168 12.8088 24.6839 12.8219 25.0606 12.854 25.39 13.0073 25.7388 13.1677 26.0077 13.4541 26.2185 13.7631 26.9089 14.7768 27.0216 16.1031 26.5867 17.2368 26.1531 18.3705 25.2011 19.3034 24.0516 19.8239 22.9953 20.304 21.6303 20.411 20.7267 19.7051 20.0109 19.1465 19.7505 15.7014 19.387 15.7156 19.2175 15.7228 19.0806 15.8428 18.9571 15.9545 18.0898 16.7329 17.0832 17.3746 15.9944 17.8452 15.224 18.178 14.387 18.4264 13.544 18.3598 13.3539 18.3444 13.1613 18.3135 12.9723 18.3419 12.6707 18.3872 12.4199 18.5772 12.1632 18.7318 11.0076 19.4317 9.41604 19.049 9.26218 20.386 9.11082 21.7063 10.2469 22.556 9.09632 23.8253 8.24114 24.7676 6.69925 24.77 5.42138 24.4824 3.96295 24.1521 2.49137 23.4758 1.7355 22.2494 0.0809489 19.6421 2.81955 18.6201 4.81208 17.7537 2.75539 16.4429 1.13349 14.2337 0.318371 11.9948" fill="#3B2645" fill-rule="evenodd" transform="matrix(1 0 0 -1 99 87)"/><path d="M7.83326 7.30334C7.81511 7.17573 7.80608 6.98302 7.7867 6.74398 7.68189 4.91933 7.59657 0.407932 7.59657 0.407932 4.65041-0.976128-0.164511-0.0500081-0.164511-0.0500081L0.442074 5.78154C0.442074 5.78154 7.98585 8.60613 7.83326 7.30334" fill="#F5A784" fill-rule="evenodd" transform="matrix(1 0 0 -1 106 94)"/><path d="M-0.16203 41.223C-0.127228 39.8043 1.12946 33.3506 2.59713 26.1829 2.93885 24.533 7.36841 3.7594 7.36841 3.7594 7.40321 3.45646 7.50627 2.68259 7.51474 2.62905 7.59508 2.05847 7.72696 1.40868 7.81443 0.695693 7.89364 0.143246 14.4059-0.427434 17.2262-0.196165 17.8151-0.15121 18.2371-0.0636068 18.4134 0.0604632 19.4494 0.783297 18.2611 1.12155 18.2611 1.12155 18.05 1.1313 17.797 1.15802 17.5249 1.21157 16.2154 1.43424 14.3436 2.0876 13.3328 2.53296 13.2105 2.59499 13.1145 2.63764 13.0186 2.68259 10.7511 3.79713 10.9789 6.78298 10.9789 6.78298 10.9526 6.81955 10.6347 15.9561 10.3182 25.005 10.0028 33.8751 9.70427 42.6575 9.70427 42.6575 8.39481 48.6391-0.2495 44.7077-0.16203 41.223" fill="#F5A784" fill-rule="evenodd" transform="matrix(1 0 0 -1 114 210)"/><path d="M-0.14928 2.71923C-0.193379 2.03461 9.12023-0.686954 10.3048-0.191615L10.5571-0.0748462C10.889 0.141541 10.8951 0.345647 10.7911 0.518947 10.6612 0.732794 10.3758 0.890108 10.3758 0.890108 9.15568 1.19627 6.85887 2.54466 5.75515 3.34743L5.46724 3.56499C3.43872 5.15062 4.2999 8.04919 4.2999 8.04919 4.2999 8.18449 5.86297 17.003 7.43458 25.8375 9.02222 34.79 10.6196 43.7597 10.6196 43.7597 10.5657 49.9477 1.10636 47.9304 0.459551 44.4629 0.191269 43.0037 0.0650925 35.9344 0.0295395 28.2332 0.0111828 25.315-0.00590791 5.20472-0.0329155 4.84457L-0.0427268 4.69096C-0.0781743 4.11442-0.0868252 3.44822-0.14928 2.71923" fill="#F5A784" fill-rule="evenodd" transform="matrix(1 0 0 -1 96 211)"/><path d="M43.5978 2.11789C43.5978 2.11789 31.8207 4.16933 23.8262 1.03821 15.8246-2.09417 4.83758 0.787039-0.152404 4.38769-0.152404 4.38769 3.06429 20.4522 5.51731 34.9395 6.41893 40.2386 7.21389 45.3314 7.71498 49.3505 7.77249 49.8333 7.83011 50.3028 7.88163 50.7529 8.09743 52.6757 8.23053 54.2892 8.25572 55.4793 8.33843 59.6015 8.31923 64.1024 8.38283 68.1094 8.48474 73.9215 8.75806 78.6807 9.76871 79.6973 10.6584 80.5975 12.8956 81.3751 14.8211 81.915 15.2275 82.0315 15.6219 82.1346 15.984 82.2304 17.1853 82.5264 18.7236 82.6999 18.7236 82.6999 18.7236 82.6999 20.7245 81.6262 25.5491 82.6999 25.5491 82.6999 32.9969 82.0497 33.3206 80.8474 33.9631 78.4684 36.0637 68.1215 38.0047 56.8199 38.1006 56.2606 38.3297 54.9322 38.3297 54.9322 39.5934 47.5113 40.8643 39.2608 41.8749 31.3838 43.4071 19.3773 44.316 8.21392 43.5978 2.11789" fill="#A9D13B" fill-rule="evenodd" transform="matrix(1 0 0 -1 88 175)"/><path d="M14.8321 1.24891 14.525-0.190138C11.6234-0.426551 4.93231 0.15436 4.84608 0.721559 4.75475 1.44665 4.62401 2.11219 4.53778 2.69792L4.51303 2.85099C4.46747 3.22034 4.41936 3.54374 4.38729 3.85342 4.38729 3.85342 0.152718 23.5467-0.167904 25.0891 2.2108 25.2482 5.35531 26.1326 7.42083 25.5716 7.46649 24.3651 7.67614 18.3513 7.68229 18.1199 7.90426 11.8898 8.08055 6.97167 8.1003 6.94436 8.1003 6.94436 7.86358 3.89327 10.1979 2.75266 10.2953 2.7067 10.3977 2.65935 10.521 2.59969 11.5606 2.14443 13.4855 1.479 14.8321 1.24891" fill="#DADADA" fill-rule="evenodd" transform="matrix(1 0 0 -1 117 210)"/><path d="M10.8499 0.527301 10.6146-0.0587284 10.3609-0.173991C9.1835-0.687289-0.195599 2.02341-0.150094 2.69921-0.0847525 3.42004-0.0748877 4.0789-0.0428536 4.6455L-0.0330948 4.79723C-0.00721298 5.15148 0.0137895 25.5908 0.0186689 26.7617 2.25904 26.5749 5.4441 26.4268 7.47519 25.5192 7.27312 24.3884 6.23487 18.6576 6.18926 18.4319 5.14487 12.6247 4.32333 8.05749 4.32333 7.96052 4.32333 7.96052 3.45989 5.09808 5.49714 3.53405L5.7865 3.3193C6.89624 2.52699 9.20567 1.19589 10.4324 0.893779 10.4324 0.893779 10.7193 0.745704 10.8499 0.527301" fill="#DADADA" fill-rule="evenodd" transform="matrix(1 0 0 -1 96 211)"/><path d="M10.4315 0.0799723C9.43256-0.635209 0.244148 0.0401939 0.153419 0.709469 0.0638912 1.41738-0.061688 2.05778-0.137196 2.62569L-0.160529 2.7741C1.03257 2.52567 3.09532 2.23497 5.50466 2.53045 6.68374 1.9938 9.08957 1.17133 10.2838 1.13156 10.2838 1.13156 11.4291 0.797542 10.4315 0.0799723" fill="#3B2645" fill-rule="evenodd" transform="matrix(1 0 0 -1 122 210)"/><path d="M10.3061-0.167868C9.12506-0.651632-0.198256 2.01411-0.149193 2.68828-0.0904234 3.4012-0.0867305 4.05013-0.0426267 4.62302L-0.0328141 4.77386C1.14448 4.27087 3.21008 3.53988 5.75587 3.3047 6.85487 2.52187 9.15566 1.19149 10.3772 0.893566 10.3772 0.893566 11.4883 0.314545 10.3061-0.167868" fill="#3B2645" fill-rule="evenodd" transform="matrix(1 0 0 -1 96 211)"/><path d="M6.84862 4.29236C6.83225 4.16303 6.82407 3.9676 6.80638 3.72542 6.54829 3.11151 6.17863 2.54577 5.73157 2.06251 4.81986 1.09598 3.64299 0.464367 2.41327 0.0724242 1.7163-0.159705 0.728295-0.400682-0.149358-0.353819L0.142789 2.74993C0.142789 2.74993 6.98717 5.61271 6.84862 4.29236" fill="#E0855C" fill-rule="evenodd" transform="matrix(1 0 0 -1 107 91)"/><path d="M-0.0909989 3.92597C-0.0327555 3.93441-1.57073 14.6954 7.83552 13.567 19.2873 12.1938 17.3772 3.90448 15.1985 1.1713 13.0211-1.56311-0.957484-0.592336-0.0909989 3.92597" fill="#3B2645" fill-rule="evenodd" transform="matrix(1 0 0 -1 102 83)"/><path d="M1.62606 14.2661C0.777835 13.3458 0.351931 11.5039 0.0330928 9.32234-0.932848 2.71959 2.11855-0.0593193 4.37173-0.294449 6.68803-0.536635 11.6725-0.104422 13.1192 5.96159 13.8413 8.99465 14.1078 11.5775 13.551 13.2377 12.384 16.7197 5.34966 18.3074 1.62606 14.2661" fill="#F5A784" fill-rule="evenodd" transform="matrix(1 0 0 -1 102 89)"/><path d="M0.331718-0.20935C0.331718-0.20935-0.33348-0.303036-0.114685 0.320884 0.0822959 0.881415 0.523631 0.778201 0.523631 0.778201 0.523631 0.778201 0.968712 0.753112 0.805002 0.261941 0.641291-0.229294 0.331718-0.20935 0.331718-0.20935" fill="#3B2645" fill-rule="evenodd" transform="matrix(1 0 0 -1 105 80)"/><path d="M0.327641-0.41781C0.327641-0.41781-0.338878-0.605183-0.118872 0.642658 0.0781095 1.76372 0.519445 1.55729 0.519445 1.55729 0.519445 1.55729 0.963314 1.50711 0.800925 0.524771 0.637105-0.457698 0.327641-0.41781 0.327641-0.41781" fill="#3B2645" fill-rule="evenodd" transform="matrix(1 0 0 -1 110 81)"/><path d="M0.851008-0.0776141C0.662134-0.0136503 0.211126-0.100977 0.143136 0.180429 0.0871828 0.414059 0.504229 1.68817 0.566949 1.90868 0.634938 2.14843 0.702147 2.36482 0.767859 2.57614L0.720299 2.62899 0.603188 2.70626C0.348601 1.82634 0.143136 0.897681-0.0948601 0.0635263L-0.0170462-0.10404C0.264021-0.13659 0.529928-0.252355 0.810215-0.293044 0.903123-0.307306 0.94769-0.111215 0.851008-0.0776141" fill="#E0855C" fill-rule="evenodd" transform="matrix(1 0 0 -1 107 83)"/><path d="M0.862586-0.040798C0.614711 0.405643 0.129164 0.649892-0.0909377-0.0451114L-0.0346369-0.399712C0.0962277-0.42074 0.218402-0.280913 0.350022-0.28918 0.4926-0.299605 0.623465-0.427031 0.752944-0.58555 0.869891-0.725377 0.971535-0.234903 0.862586-0.040798" fill="#3B2645" fill-rule="evenodd" transform="matrix(1 0 0 -1 105 78)"/><path d="M1.82431-0.192942C1.62466 0.561691 0.449602 0.766565-0.0986763 0.37738-0.223712 0.28751-0.170535 0.0855547-0.0493954 0.029576 0.234027-0.103072 0.558707-0.0205636 0.86081-0.0853008 1.12567-0.141406 1.32657-0.293222 1.5661-0.414064 1.68987-0.477405 1.86293-0.338918 1.82431-0.192942" fill="#3B2645" fill-rule="evenodd" transform="matrix(1 0 0 -1 110 79)"/><path d="M2.49246 0.590732C2.02527 0.41139 1.66522 0.181347 1.14261 0.21837 0.73582 0.247023 0.319054 0.498998-0.0788418 0.397713L-0.158226 0.240302C0.0899035-0.249853 0.851643-0.379908 1.33402-0.390874 1.85153-0.404669 2.47988-0.273199 2.79341 0.196439 2.94198 0.419526 2.72161 0.67834 2.49246 0.590732" fill="#E0855C" fill-rule="evenodd" transform="matrix(1 0 0 -1 106 86)"/><path d="M-0.127338 7.91082C-0.0637251 7.36119 0.151711 6.81021 0.569725 6.45463 1.00205 6.08738 1.58743 5.97274 2.12752 5.79821 2.66885 5.62243 3.23344 5.32417 3.42427 4.78497 3.55284 4.41896 3.4814 4.01391 3.51774 3.62703 3.5723 3.0461 3.88645 2.49781 4.35634 2.16052 4.78218 1.8544 5.34296 1.69938 5.62592 1.25788 5.82716 0.944027 5.84661 0.548065 5.97909 0.19899 6.11146-0.148738 6.46586-0.480875 6.81769-0.355805 7.59525 0.689961 8.34553 1.79843 8.66617 3.06304 9.16993 5.04408 8.49612 7.24139 7.06689 8.67661 5.63889 10.1119 3.52814 10.7841 1.50827 10.5822-0.0273906 10.4285-0.285757 9.29535-0.127338 7.91082" fill="#3B2645" fill-rule="evenodd" transform="matrix(1 0 0 -1 109 81)"/><path d="M0.687654 3.24003C0.687654 3.24003 1.99179 5.70853 3.43817 4.17976 4.88581 2.64992 2.26875-0.804998-0.146492-0.26389-0.146492-0.26389-0.191396 2.4406 0.687654 3.24003" fill="#F5A784" fill-rule="evenodd" transform="matrix(1 0 0 -1 114 85)"/><path d="M1.7201 0.774638C1.3562 0.758964 0.955036 0.560579 0.671338 0.418433 0.374209 0.27003 0.0238443 0.0833502-0.147932-0.140061L0.0250122-0.225227C0.254404-0.110394 0.447591 0.0325597 0.665693 0.158291 0.787737 0.0481668 0.913187-0.0627649 1.09849-0.124453 1.24088-0.172082 1.3709-0.0565086 1.31893 0.0293979 1.25226 0.13959 1.10988 0.226303 0.968564 0.306761 1.24662 0.41998 1.57207 0.501244 1.81051 0.639489 1.90092 0.692566 1.83192 0.77928 1.7201 0.774638" fill="#E0855C" fill-rule="evenodd" transform="matrix(1 0 0 -1 115 83)"/><path d="M11.5583 13.2214C11.0647 9.50531 9.65879 5.78685 6.89255 3.34684 4.9805 1.6568 2.43613 0.313848-0.139101-0.325383-0.0844401 0.159179-0.0298773 0.630423 0.0190039 1.08216 2.38832 1.73356 4.68476 2.94134 6.43988 4.59248 8.82047 6.83881 10.0455 10.1568 10.4971 13.454 10.9919 17.0884 10.7382 20.9153 10.3344 24.5425 10.1354 26.2848 9.80436 28.0478 8.99571 29.5966 8.36329 30.8167 7.48285 31.4937 6.60249 32.3581 6.98816 32.4751 7.36236 32.5785 7.7058 32.6747 9.7259 31.5058 10.8168 28.1246 11.1659 26.0657 11.8597 21.9417 12.1134 17.3722 11.5583 13.2214" fill="#3B2645" fill-rule="evenodd" transform="matrix(1 0 0 -1 96 125)"/><path d="M10.8272-0.331832C7.22032 2.10853 4.95238 5.97011 3.59934 9.98198 2.59555 12.9563 2.08394 16.055 1.53626 19.1266 1.28368 20.5751 0.961622 22.0124 0.635569 23.446 0.470656 24.1746 0.30308 24.9006 0.142051 25.6291 0.00155369 26.2641-0.236826 26.9692-0.156922 27.6227L0.100768 27.6646 0.317285 27.6683 0.564655 27.4319C0.756646 27.1255 0.898476 26.8437 1.0312 26.5115 1.63936 25.004 2.00792 23.4189 2.33652 21.8413 2.95767 18.8731 3.39448 15.8655 4.13925 12.9231 5.19853 8.71687 7.07727 4.44672 10.478 1.58306 10.5939 0.950559 10.7099 0.314239 10.8272-0.331832" fill="#3B2645" fill-rule="evenodd" transform="matrix(1 0 0 -1 116 120)"/><path d="M10.8389-0.301121C9.45839 1.2674 8.26611 2.99599 7.43142 4.91313 6.84777 6.24766 6.4393 7.65272 5.81181 8.96217 5.03392 10.5881 3.92933 12.0313 3.10759 13.6321 1.75197 16.2774 1.22511 19.2581 0.715999 22.1875 0.352595 24.2945-0.953374 27.8064 0.534909 29.6793 1.62655 31.0582 3.03775 31.0462 3.9175 29.597 5.1784 27.5211 6.20723 25.2566 7.29887 23.0793L7.33792 22.8704C8.58577 15.5683 9.84076 7.44978 10.8389-0.301121" fill="#99BD36" fill-rule="evenodd" transform="matrix(1 0 0 -1 119 143)"/><path d="M8.45529 18.3554C9.02725 17.1172 9.57773 15.8653 10.0186 14.5914 11.4875 10.3463 14.1619 6.95481 13.7966 2.21892 13.7172 1.18663 13.3393-0.0417422 12.3114-0.285929 11.7281-0.425282 11.1222-0.181095 10.6095 0.123527 8.89869 1.1349 7.99681 2.75913 7.16284 4.47099 5.83384 7.20144 4.7996 10.0701 4.07901 13.0116 3.4706 15.4905 3.67847 19.0966 2.01184 21.1747 1.40462 21.932 0.487555 22.4537 0.0617309 23.3195-0.279579 24.0125-0.240523 24.8721 0.161325 25.5345 0.564366 26.1943 1.31902 26.637 2.10384 26.6715 3.21239 26.7209 4.20877 26.0204 4.9848 25.2433 6.19793 24.0248 6.81763 21.8691 7.53062 20.3336 7.83559 19.6775 8.14924 19.0177 8.45529 18.3554" fill="#F5A784" fill-rule="evenodd" transform="matrix(1 0 0 -1 115 126)"/><path d="M17.5711 20.6837C17.3149 17.7948 16.6834 14.9386 15.8832 12.1396 15.5345 10.9147 15.1501 9.6825 14.4717 8.5865 13.6043 7.18765 12.3007 6.08558 10.9488 5.09906 8.01182 2.96427 4.7311 1.26864 1.26275 0.0887313 0.806228-0.0657889 0.328083-0.208052-0.154977-0.31145 0.798583 5.00185 1.63943 10.1082 2.16945 14.1382 2.23029 14.6223 2.29123 15.0931 2.34573 15.5443 2.57399 17.4724 2.71477 19.0902 2.74141 20.2834 2.8289 24.4168 2.80858 28.9296 2.87586 32.9475 3.68995 33.5338 4.74508 33.9462 5.6188 33.5009 6.18945 33.2114 6.51917 32.6312 6.7411 32.0509 8.01182 28.7241 6.69425 24.7318 8.5153 21.6434 8.87287 21.0376 9.37002 20.4696 10.0358 20.1741 11.3864 19.567 13.0603 20.2834 13.9747 21.4184 14.889 22.5593 15.2187 24.0106 15.5408 25.4155 15.7957 26.5382 16.0315 27.9821 16.8584 28.8531 18.384 27.6537 17.7258 22.4182 17.5711 20.6837" fill="#99BD36" fill-rule="evenodd" transform="matrix(1 0 0 -1 93 140)"/><path d="M-0.0353721 23.0618C0.267964 18.2118 1.1789 13.4026 2.67378 8.79668 3.5441 6.11585 4.95539 3.71125 6.7463 1.57924 7.25498 0.973449 7.80418 0.37886 8.49311 0.0108825 9.18081-0.358269 10.0392-0.471041 10.727-0.10061 11.2773 0.196632 11.6499 0.754199 11.9627 1.31038 13.0361 3.2194 13.6831 5.35642 14.1631 7.50956 14.8234 10.4703 15.1804 13.5018 15.2329 16.5394 15.2772 19.1013 14.3303 22.5935 15.4395 24.9869 15.8419 25.8567 16.5809 26.564 16.7947 27.5043 16.9666 28.2563 16.7504 29.0912 16.2394 29.6536 15.7285 30.2161 14.938 30.4898 14.2038 30.3573 13.1686 30.1703 12.3925 29.2721 11.8373 28.3442 10.9681 26.8923 10.8464 24.6463 10.5073 22.9875 10.0906 20.9545 9.62255 18.8894 9.40528 16.8281 9.24168 15.2758 8.46082 12.4017 8.86678 10.9163 7.08656 17.4127 8.2997 24.1718 7.68716 30.7661 7.56778 32.0533 7.1427 33.4135 6.12184 34.1568 4.54583 35.304 2.20212 34.4008 1.1097 32.7569 0.0160408 31.113-0.134393 29.0008-0.146424 27.0025-0.153519 25.6881-0.116502 24.3738-0.0353721 23.0618" fill="#F5A784" fill-rule="evenodd" transform="matrix(1 0 0 -1 95 129)"/><path d="M6.84804 0.509058C6.79529 0.267648 6.74125 0.0250781 6.69467-0.211156 5.98784-0.0567604 5.29487 0.113253 4.61457 0.261401 3.02739 0.61892 1.44779 0.981615-0.15196 1.30495L-0.15196 1.78884C1.31446 1.57956 2.76203 1.28835 4.22844 0.986792 5.09493 0.805444 5.96769 0.651049 6.84804 0.509058" fill="#FFFFFF" fill-rule="evenodd" transform="matrix(1 0 0 -1 96 189)"/><path d="M5.85877 0.388585C5.82137 0.189234 5.78387-0.0166125 5.74062-0.217077 5.13891-0.0683991 1.2119 0.874524-0.14123 1.22914L-0.14123 1.78302C1.27278 1.45754 5.26885 0.514617 5.85877 0.388585" fill="#FFFFFF" fill-rule="evenodd" transform="matrix(1 0 0 -1 96 192)"/><path d="M6.83709-0.267475C6.09717-0.218874 5.36216-0.149201 4.62841-0.100487 3.05031 0.0113289 1.51103 0.0521128-0.0281448-0.0241305L-0.0731346 0.22046C-0.10107 0.38099-0.130261 0.520449-0.16301 0.651977 1.13207 0.763793 2.43803 0.742721 3.73311 0.687436 4.76327 0.638835 5.78737 0.596692 6.81763 0.554662 6.82496 0.275745 6.83103 0.00351195 6.83709-0.267475" fill="#FFFFFF" fill-rule="evenodd" transform="matrix(1 0 0 -1 118 189)"/><path d="M5.84944-0.235187 5.63537-0.228134C3.77622-0.179061 1.85201 0.142785-0.0374475 0.193067-0.0732543 0.384925-0.114755 0.572148-0.150659 0.764006 1.49452 0.782749 3.21248 0.490226 4.78025 0.446997 5.13108 0.435208 5.47516 0.435208 5.83149 0.435208 5.83708 0.21181 5.84384-0.0175333 5.84944-0.235187" fill="#FFFFFF" fill-rule="evenodd" transform="matrix(1 0 0 -1 119 192)"/><path d="M6.44195 2.61419C5.29105 2.76004 4.08455 2.35229 3.01718 1.98139 1.9448 1.60926 0.792704 1.17314-0.0226798 0.425305-0.358189 0.117171-0.0238792-0.481237 0.466027-0.331916 1.52958-0.00367434 2.49053 0.550947 3.55659 0.889906 4.54153 1.20274 5.64433 1.27979 6.57486 1.69336 6.97754 1.87351 6.918 2.55377 6.44195 2.61419" fill="#A9D13B" fill-rule="evenodd" transform="matrix(1 0 0 -1 103 69)"/><path d="M3.80907 0.457129C3.49779 1.36803 3.12505 2.28004 2.53575 3.07032 2.09043 3.66651 1.36826 4.50996 0.540248 4.64006 0.317644 4.6744 0.0162106 4.62111-0.0896353 4.40228-0.205229 4.15858-0.186793 3.97877-0.032951 3.80965 0.199507 3.55526 0.555082 3.37901 0.812227 3.1401 1.21813 2.76264 1.53069 2.33088 1.79387 1.85653 2.14086 1.22957 2.27616-0.152105 3.11392-0.33783 3.26893-0.37094 3.44248-0.340173 3.55437-0.229023L3.6368-0.148539C3.79678 0.00998411 3.88292 0.242981 3.80907 0.457129" fill="#A9D13B" fill-rule="evenodd" transform="matrix(1 0 0 -1 118 75)"/></g></svg>