<svg width="70" height="195" xmlns="http://www.w3.org/2000/svg" xmlns:xlink="http://www.w3.org/1999/xlink" overflow="hidden"><defs><clipPath id="clip0"><rect x="183" y="36" width="70" height="195"/></clipPath></defs><g clip-path="url(#clip0)" transform="translate(-183 -36)"><path d="M-0.206602-0.223819 58.7934-0.223819 58.7934 5.77628-0.206602 5.77628Z" fill="#DADADA" fill-rule="evenodd" transform="matrix(1 0 0 -1 193 230)"/><path d="M34.166 5.42261C33.8511 4.89443 33.3848 4.42993 32.7151 4.06325 31.5357 3.41536 30.1551 3.33472 28.8581 2.99972 28.7394 2.96908 28.6207 2.93613 28.5094 2.90191 27.3794 2.54249 26.3719 1.89092 25.3632 1.26019 25.0482 1.06458 24.7491 0.880028 24.4428 0.705159 23.1724-0.013581 21.7083-0.575982 20.2926-0.330261L20.0347-0.281306C19.2464-0.0906453 18.5549 0.345737 17.8997 0.845812 16.8534 1.63425 15.8773 2.59145 14.6422 2.99235 12.7517 3.61213 10.7088 2.81632 8.72765 2.95076 6.29353 3.11216 4.03379 4.82357 3.18973 7.1254 2.50546 8.99084 2.94631 11.1606 1.96177 12.9136 1.39744 13.9136 0.246969 14.5897-0.0739446 15.7302-1.01614 19.0112 3.54569 21.4683 3.9781 24.5378 4.11733 25.5378 3.90175 26.5512 3.9151 27.5585 3.94295 30.2833 5.60321 32.48 7.41011 34.3393 9.05576 36.0422 10.6385 38.3024 12.7312 39.4369 12.8644 39.5066 13.0182 39.5702 13.1926 39.6264 14.3988 40.0139 16.4635 40.1044 16.9721 40.8586 15.9537 42.0052 15.0054 43.2387 14.727 44.801 14.4618 46.329 14.9703 48.0612 16.254 48.9206 17.1465 49.5183 18.2764 49.6247 19.3578 49.61 19.755 49.6027 20.1668 49.5819 20.5434 49.4475 23.612 48.3999 22.4192 43.0968 21.1646 41.1679 23.3335 41.4013 25.035 40.4785 26.7231 39.2535 28.1388 38.2181 29.7361 37.585 30.407 35.7952 30.9785 34.2819 30.7691 32.5155 31.5078 31.0718 32.0176 30.0657 32.9246 29.3249 33.4963 28.3543 34.7096 26.2773 34.1442 23.6503 33.4817 21.3339 32.9658 19.5601 32.4221 17.6445 32.6376 15.85 32.7006 15.3145 32.8265 14.7865 33.0494 14.2791 33.9007 12.3293 34.7096 11.3368 34.786 9.16813 34.8283 7.80876 34.7932 6.47877 34.166 5.42261" fill="#3B2645" fill-rule="evenodd" transform="matrix(1 0 0 -1 198 86)"/><path d="M28.1497 5.38936C27.8949 5.33205 27.6241 5.29793 27.3693 5.24923 25.8812 4.94691 24.5973 4.06202 23.2999 3.28314 23.1152 3.17712 22.9367 3.07478 22.7545 2.97359 21.6012 2.33369 20.4207 1.74009 19.2021 1.23917 17.7692 0.652912 16.3093 0.172675 14.8199-0.19178 14.5651-0.255182 14.3103-0.311236 14.0481-0.346505 13.6936-0.396471 13.3317-0.396471 12.992-0.297799 12.4036-0.128378 11.9494 0.306722 11.6158 0.826008 11.4533 1.06366 11.3253 1.32451 11.212 1.5841 10.8649 2.39825 10.6447 3.28314 10.1276 4.01331 8.93608 5.69776 6.5961 6.00732 4.55518 6.39245 2.51309 6.7862 0.166861 7.7685-0.166649 9.80397-0.443655 11.4471 0.776211 12.9913 0.853811 14.655 0.925156 16.1299 0.0955157 17.5546 0.286335 19.0222 0.463585 20.3555 1.45563 21.4367 2.46995 22.3423 2.74695 22.5873 3.04484 22.8482 3.17895 23.1918 3.67508 24.4351 3.25655 25.6283 4.6967 26.2877 6.49761 27.1226 7.99322 25.6697 9.70168 25.4942 11.8005 25.2773 13.381 27.2775 14.5085 29.046 15.6361 30.8157 17.2104 32.8098 19.308 32.6063 21.35 32.3954 22.5342 30.1697 22.8247 28.155 22.9035 27.6284 22.9527 27.0739 23.2285 26.6253 23.6543 25.9367 24.5049 25.6344 25.0158 25.0177 26.0153 23.8159 25.4122 22.0547 25.2632 20.5104 25.1081 18.8467 25.6116 17.1403 26.5963 15.7861 26.6602 15.2523 26.7883 14.7257 27.0148 14.2198 27.8802 12.2758 28.7024 11.2861 28.78 9.12387 28.8231 7.7685 28.7873 6.44242 28.1497 5.38936" fill="#2C1C33" fill-rule="evenodd" transform="matrix(1 0 0 -1 204 86)"/><path d="M20.7929 6.69347C20.731 5.78288 20.237 4.96537 19.681 4.25421 17.5489 1.52614 14.2441-0.193416 10.8429-0.362273 7.14774-0.545887 3.67148 1.11011 1.13343 3.81731-1.01901 6.11459-0.415438 9.0054 1.87511 10.6968 2.19058 10.9232 2.53343 11.1276 2.90365 11.31 5.30964 12.4665 8.05243 12.8753 10.6787 12.4738 11.9537 12.2756 13.2024 11.8949 14.4845 11.8876 15.5262 11.8816 16.6239 12.1067 17.5703 11.6698 17.9061 11.5143 18.2001 11.2818 18.4679 11.015 18.6537 10.8375 18.8311 10.6405 19.0025 10.4434 19.9346 9.37863 20.8953 8.12412 20.7929 6.69347" fill="#C07ADE" fill-rule="evenodd" transform="matrix(1 0 0 -1 207 81)"/><path d="M16.7957 5.97427C16.7603 5.85824 16.7116 5.75092 16.6481 5.64993 16.1919 4.90264 15.2651 4.62203 14.6467 4.00451 13.8942 3.24368 13.6904 2.086 13.066 1.21656 11.5768-0.874171 8.18982-0.815513 6.39932 0.792415 5.4297 1.66938 4.68455 2.74842 3.44172 3.25733 2.34522 3.70263 0.715739 3.54546 0.0278354 4.70937-0.140438 4.99621-0.211129 5.31937-0.203882 5.64993 0.119325 5.8807 0.470577 6.08901 0.849874 6.27486 3.31483 7.45371 6.12495 7.87033 8.81554 7.46112 10.1217 7.25915 11.4012 6.87111 12.7147 6.8637 13.7819 6.85746 14.9065 7.08694 15.8761 6.64163 16.22 6.48317 16.5213 6.24618 16.7957 5.97427" fill="#A166BA" fill-rule="evenodd" transform="matrix(1 0 0 -1 209 76)"/><path d="M14.4823 115.588C13.6022 115.659 12.8227 115.781 12.1175 115.916L12.0552 115.916C11.7152 115.987 11.3943 116.07 11.0794 116.161 10.4819 116.315 9.94789 116.489 9.47613 116.669 7.08029 117.59 6.28164 118.71 6.28164 118.71 6.34516 118.62 4.03428 114.203 3.84506 113.68 3.25719 112.045-2.18589 101.115 0.584679 76.0257 1.55337 67.2436 2.6657 58.6121 3.07281 49.7601 3.24997 45.9358 3.31225 41.5723 3.24997 36.5385 3.22367 33.9187 4.76817 12.6981 4.52873 4.56904 4.49996 3.58022 4.47367 2.56439 4.79694 1.63066 5.11908 0.698084 5.877-0.14616 6.83724-0.2576 10.2365-0.651017 9.87128 2.58518 10.0353 4.96848 10.2628 8.28192 10.713 11.5756 10.9992 14.8841 11.3668 19.1495 18.8035 115.485 18.8035 115.485 17.1679 115.421 15.7406 115.459 14.4823 115.588" fill="#F5A784" fill-rule="evenodd" transform="matrix(1 0 0 -1 202 222)"/><path d="M4.28663 115.179C5.20212 115.295 6.01011 115.455 6.73807 115.626L6.80313 115.629C7.15461 115.716 7.48477 115.816 7.80867 115.922 8.42406 116.106 8.9731 116.306 9.45718 116.51 11.9112 117.549 12.6891 118.709 12.6891 118.709 12.6267 118.616 15.2582 114.316 15.4796 113.803 16.1763 112.2 21.2068 99.0377 20.7553 76.3298 20.5789 67.4889 19.4495 58.821 19.4645 49.9532 19.4695 46.1225 19.6208 41.7586 19.9373 36.7299 20.0937 34.1132 19.5383 12.8266 20.1924 4.71283 20.2712 3.72576 20.35 2.71166 20.0585 1.76388 19.7685 0.814723 19.0205-0.0656847 18.0224-0.226306 14.4965-0.789061 14.7166 2.46402 14.4277 4.8367 14.025 8.13878 13.3921 11.4066 12.9292 14.7002 12.3327 18.9452-0.216082 114.862-0.216082 114.862 1.49372 114.879 2.98076 114.988 4.28663 115.179" fill="#F5A784" fill-rule="evenodd" transform="matrix(1 0 0 -1 215 222)"/><path d="M0.677665 0.288241C3.20961-0.343712 6.82877-0.445758 10.4922-0.306033 11.4287-0.273169 12.364-0.222199 13.2873-0.158982 14.2297-0.0945103 15.1531-0.018002 16.0394 0.0646815 20.613 0.479041 24.2633 1.05385 24.4641 1.08546 23.3459 6.69767 23.2957 13.8277 24.4773 17.4407 24.6651 17.9973 24.9486 18.82 25.1674 19.1773 25.5454 19.7837 25.9413 20.4984 26.2355 21.1497 27.0715 22.9751 26.8897 24.8017 26.2486 26.7108 25.7714 28.1205 25.6207 29.4745 25.4126 30.8465 25.3313 31.4152 25.2368 31.99 25.1112 32.5709 24.829 33.8275 23.7179 34.2469 22.5039 34.4668 22.065 34.5458 20.7708 34.7572 20.5627 34.7925 19.7925 34.9213 18.9983 34.9967 18.3071 35.0671 18.1312 35.0866 17.9614 35.1048 17.7987 35.1182 16.8754 35.2081 16.2212 35.2518 16.2212 35.2518L14.9893 42.1729C14.8003 44.1258 12.3783 44.5913 10.4624 44.635 9.14905 44.6654 8.07863 44.5147 8.07863 44.5147L8.4685 35.1631C8.4685 35.0671 8.00333 35.0586 7.17445 35.0088 6.97947 34.9978 6.76656 34.9833 6.53336 34.9711 6.25112 34.9517 5.93057 34.9322 5.58489 34.9006L5.45933 34.8945C5.30153 34.8812 5.14599 34.8654 4.99406 34.8496 4.13531 34.7597 3.09724 34.7329 2.17988 34.5044 1.71461 34.3902 1.32587 34.2432 0.99224 34.039 0.489888 33.7315 0.119073 33.2989-0.0375966 32.667L-0.0817854 32.4494C-0.100944 32.3218-0.122472 32.2003-0.138026 32.0727-0.439416 29.7478 0.389356 27.2978 0.910867 25.0885 1.18712 23.94 1.40127 22.8037 1.58307 21.6541 1.63921 21.2907 1.7588 20.3902 1.77085 20.3076 1.89044 19.4398 1.99087 18.5709 2.07935 17.6971 2.19904 16.5025 2.29947 15.303 2.39269 14.0902 2.41185 13.841 2.45614 13.604 2.45614 13.3549 2.55657 8.48531 1.95976 4.05442 1.37614 1.81945 1.31269 1.58982 1.24934 1.37956 1.1931 1.2009 0.998215 0.620021 0.822386 0.288241 0.677665 0.288241" fill="#F5A784" fill-rule="evenodd" transform="matrix(1 0 0 -1 206 110)"/><path d="M7.7881-0.362345C4.39408-0.610559 1.70043 0.490618-0.0683557 1.5714L-0.212011 4.94872 2.23968 6.60235C4.2655 6.55017 6.813 6.07018 7.00819 4.02318L7.7881-0.362345" fill="#E0855C" fill-rule="evenodd" transform="matrix(1 0 0 -1 214 72)"/><path d="M17.7277 11.0876C17.5209 13.7819 17.1684 16.0674 16.2792 17.2547 12.3738 22.4652 4.35843 21.0121 2.80606 16.8297 2.30174 15.4731 2.20253 13.5574 2.37698 11.2919 1.34334 11.44-0.578421 11.3748-0.135033 8.68674 0.23425 6.44757 1.94327 6.06642 3.20159 6.10281 4.94045 0.227825 9.79126-0.51061 12.1849-0.389031 14.734-0.258706 18.3563 2.93204 17.7277 11.0876" fill="#F5A784" fill-rule="evenodd" transform="matrix(1 0 0 -1 208 70)"/><path d="M0.25359-0.387808C0.25359-0.387808 0.932376-0.618711 0.773908 0.635445 0.63204 1.76214 0.164884 1.58546 0.164884 1.58546 0.164884 1.58546-0.298605 1.56406-0.183929 0.578724-0.0692535-0.408019 0.25359-0.387808 0.25359-0.387808" fill="#3B2645" fill-rule="evenodd" transform="matrix(1 0 0 -1 222 59)"/><path d="M0.257443-0.387497C0.257443-0.387497 0.93699-0.618538 0.778344 0.63626 0.636317 1.76244 0.168638 1.58565 0.168638 1.58565 0.168638 1.58565-0.29425 1.56543-0.179445 0.578201-0.0657626-0.407719 0.257443-0.387497 0.257443-0.387497" fill="#3B2645" fill-rule="evenodd" transform="matrix(1 0 0 -1 216 60)"/><path d="M-0.110086-0.0808091C0.266338-0.0150695 1.14818-0.178306 1.30649 0.191656 1.43949 0.499317 0.730626 2.25143 0.628215 2.55322 0.515035 2.88324 0.403345 3.17795 0.292915 3.46923L0.391431 3.53497 0.629475 3.62539C1.05115 2.42053 1.37167 1.15459 1.76677 0.0108217 1.80136-0.0902149 1.72152-0.20177 1.5978-0.20531 1.04049-0.221694 0.505756-0.348622-0.0489146-0.374412-0.233805-0.383818-0.302881-0.114893-0.110086-0.0808091" fill="#E0855C" fill-rule="evenodd" transform="matrix(1 0 0 -1 219 62)"/><path d="M-0.117277 0.00150502C0.387941 0.438294 1.35089 0.61505 1.75352-0.173244 1.82662-0.31505 1.74325-0.546154 1.62785-0.546154 1.36878-0.546154 1.13677-0.373244 0.877699-0.359699 0.596875-0.344147 0.335376-0.460702 0.0749821-0.606355-0.160897-0.738294-0.340456-0.190803-0.117277 0.00150502" fill="#3B2645" fill-rule="evenodd" transform="matrix(1 0 0 -1 222 56)"/><path d="M-0.187775-0.170675C0.0494464 0.619542 1.21998 0.760565 1.74134 0.306444 1.85995 0.203479 1.79534-0.00933925 1.67329-0.0608219 1.38561-0.181532 1.06972-0.0716787 0.767986-0.120476 0.503767-0.163904 0.297184-0.310297 0.0540978-0.424119-0.0703777-0.482489-0.234693-0.325239-0.187775-0.170675" fill="#3B2645" fill-rule="evenodd" transform="matrix(1 0 0 -1 215 57)"/><path d="M0.174397 0.632882C0.629908 0.440617 0.979479 0.206757 1.50481 0.21118 1.91303 0.213345 2.34485 0.423113 2.73724 0.30623L2.80939 0.156503C2.53313-0.283832 1.76194-0.359307 1.27826-0.342838 0.758472-0.324299 0.137207-0.168078-0.150316 0.286561-0.286745 0.500753-0.0522415 0.728026 0.174397 0.632882" fill="#E0855C" fill-rule="evenodd" transform="matrix(1 0 0 -1 218 65)"/><path d="M3.23662 8.5125 0.376011 6.03435C0.0502739 4.45944-0.410014 2.99182-0.102321 1.41082-0.00177315 0.900097 0.153221 0.374673 0.514108 0.000524899 0.825348-0.321343 1.32798-0.489521 1.73612-0.342024L1.92261-0.246913C2.30895 0.0163769 2.41795 0.530778 2.48334 0.995209 2.60809 1.88134 2.69164 2.77976 2.94238 3.63913 3.20762 4.55214 3.7598 5.52971 4.46468 6.16841 5.27376 6.90348 6.47512 6.95586 7.43314 7.39594 8.10286 7.70437 8.5643 8.49665 9.17353 8.73432 9.90855 9.01955 11.2324 8.29425 11.9154 8.03348 13.026 7.60925 14.4817 7.03029 15.212 6.02826 16.0598 4.86655 17.0516 3.0125 17.4223 1.6254 17.4635 1.47297 17.8232 0.581903 17.96 0.506318 18.7158 0.0882881 18.5764 3.12221 18.6685 3.55619 18.9313 4.80073 18.7896 6.1367 18.2361 7.28497 17.3302 9.16096 15.6638 10.0581 13.7272 10.4799 12.6821 10.7078 11.8125 10.5458 10.7455 10.5775 9.36607 10.6201 7.84732 10.647 6.52362 10.0642 5.40935 9.57416 4.36663 9.00129 3.23662 8.5125" fill="#3B2645" fill-rule="evenodd" transform="matrix(1 0 0 -1 209 58)"/><path d="M-0.22077 4.06986C-0.197381 3.4234 0.276968 2.86726 0.848366 2.52463 1.41987 2.19028 2.08832 2.04135 2.74089 1.88999 5.34124 1.27636 7.67848 0.208651 10.3968-0.103366 12.0214-0.282917 15.3578-0.551587 15.7634 1.57787L15.7745 1.68699C15.7892 1.8911 15.7855 2.3276 15.5496 2.82382 15.203 3.57233 14.3292 4.43937 12.2303 4.78554 11.7781 4.85941 11.375 4.97318 11.0236 5.10817 10.8331 5.18092 10.6548 5.25125 10.489 5.34158L10.3464 5.42958C10.0613 5.58802 9.82416 5.77333 9.61894 5.95874L9.55132 6.01856C9.33753 6.22741 9.1556 6.43859 9.00574 6.66502L8.96267 6.71777C8.79682 6.95249 8.66411 7.16478 8.53139 7.37717 8.11356 8.09285 7.80876 8.67242 7.10337 8.75103 5.43702 8.92816 3.11819 8.23602 3.30001 6.63805 3.30001 6.63805 1.26133 6.58874 0.922132 7.71273 0.700939 8.42719 0.378992 7.79841 0.274534 7.40415 0.0951449 6.72605 0.243736 5.99976 0.0483662 5.29702L-0.0364069 5.02016C-0.129753 4.72805-0.221934 4.44291-0.215796 4.14726L-0.22077 4.06986" fill="#A166BA" fill-rule="evenodd" transform="matrix(1 0 0 -1 229 227)"/><path d="M-0.22077 4.66004C-0.197381 3.92024 0.276968 3.2838 0.848366 2.89182 1.41987 2.50919 2.08832 2.33864 2.74089 2.16542 5.34124 1.46319 7.67848 0.241438 10.3968-0.115747 12.0214-0.321107 15.3578-0.62857 15.7634 1.80824L15.7745 1.93312C15.7892 2.16681 15.7855 2.66622 15.5496 3.2342L15.5041 3.13348C14.4349-1.22881 7.25091 1.31692 4.69607 2.2607 2.97923 2.90789 1.39648 3.87456-0.215796 4.74862L-0.22077 4.66004" fill="#3B2645" fill-rule="evenodd" transform="matrix(1 0 0 -1 229 227)"/><path d="M0.124449-0.215928C0.759368-0.0155047 1.32341 0.515065 1.90143 0.871466 2.2076 1.06228 2.51488 1.23758 2.80606 1.444 2.6385 1.51481 2.4837 1.59037 2.33871 1.68277L2.21408 1.7728C2.04003 1.68401 1.87136 1.58799 1.69731 1.49083 1.09024 1.14156 0.326435 0.799524-0.129075 0.226988-0.298862 0.0181922-0.107609-0.290351 0.124449-0.215928" fill="#3B2645" fill-rule="evenodd" transform="matrix(1 0 0 -1 237 223)"/><path d="M0.14154-0.198118C1.06504-0.133279 1.84333 0.407312 2.62737 0.7388 2.95898 0.881985 3.3673 1.01373 3.74437 1.17169L3.66619 1.225C3.41852 1.41114 3.20799 1.59935 3.03434 1.80116 2.7384 1.69454 2.45385 1.56693 2.19491 1.46868 1.36393 1.14863 0.248277 0.841281-0.214209 0.213877-0.345087 0.0350308-0.150118-0.214868 0.14154-0.198118" fill="#3B2645" fill-rule="evenodd" transform="matrix(1 0 0 -1 235 222)"/><path d="M15.7969 5.40606C15.8344 4.72527 15.4048 4.09993 14.859 3.69095 14.312 3.29059 13.6488 3.07306 13.0031 2.85681 10.4266 1.98436 8.16107 0.657266 5.43842 0.0900335 3.80986-0.242324 0.457773-0.818177-0.151766 1.38019L-0.172956 1.49385C-0.207912 1.70638-0.24416 2.16485-0.0518436 2.70611 0.229209 3.52291 1.03225 4.50902 3.12417 5.05763 3.57635 5.17501 3.97346 5.32954 4.3169 5.50247 4.50179 5.59517 4.67658 5.68531 4.83523 5.79535L4.97129 5.89922C5.2461 6.09195 5.46843 6.30692 5.65827 6.51945L5.72195 6.58745C5.91932 6.82595 6.08281 7.06316 6.21403 7.31528L6.25146 7.37338C6.39882 7.63412 6.51251 7.86889 6.62738 8.10366 6.9834 8.89086 7.2381 9.52599 7.94498 9.67052 9.61484 10.0043 12.0277 9.48279 11.9928 7.78982 11.9928 7.78982 14.0622 7.91827 14.2995 9.1268 14.4568 9.89666 14.8415 9.26526 14.9839 8.86117 15.2287 8.16549 15.1462 7.38945 15.4098 6.67025L15.5222 6.38727C15.642 6.08822 15.7632 5.79907 15.7844 5.48768L15.7969 5.40606" fill="#A166BA" fill-rule="evenodd" transform="matrix(1 0 0 -1 198 227)"/><path d="M15.7969 5.67123C15.8344 4.95722 15.4048 4.30158 14.859 3.87259 14.312 3.45276 13.6488 3.22476 13.0031 2.99799 10.4266 2.0831 8.16107 0.691355 5.43842 0.0966446 3.80986-0.25199 0.457773-0.855851-0.151766 1.44945L-0.172956 1.56863C-0.207912 1.7915-0.24416 2.27226-0.0518436 2.83986L0.00193607 2.7479C1.44065-1.34689 8.50698 1.76561 11.0148 2.90983 12.7009 3.6899 14.2245 4.76549 15.7844 5.75671L15.7969 5.67123" fill="#3B2645" fill-rule="evenodd" transform="matrix(1 0 0 -1 198 227)"/><path d="M2.54532-0.249303C1.91813-0.0968866 1.33465 0.434596 0.75009 0.770446 0.440165 0.949814 0.13024 1.11176-0.166159 1.31134-0.0111967 1.40985 0.133375 1.51104 0.265407 1.63104L0.378807 1.74442C0.55455 1.66473 0.723128 1.57574 0.898871 1.48676 1.51039 1.16159 2.27383 0.863499 2.75645 0.272653 2.9364 0.0582017 2.77616-0.308666 2.54532-0.249303" fill="#3B2645" fill-rule="evenodd" transform="matrix(1 0 0 -1 203 223)"/><path d="M3.42575-0.220726C2.52554-0.214941 1.70692 0.325953 0.910444 0.635149 0.571633 0.769499 0.16232 0.886495-0.222103 1.03351L-0.151483 1.09725C0.0669287 1.32077 0.248065 1.54309 0.393236 1.77937 0.690604 1.68213 0.982375 1.56164 1.24378 1.47127 2.08586 1.17834 3.20174 0.917714 3.72169 0.259924 3.86972 0.072312 3.71061-0.218432 3.42575-0.220726" fill="#3B2645" fill-rule="evenodd" transform="matrix(1 0 0 -1 204 222)"/><path d="M39.7944 1.9545C30.5499-1.95826 21.1363 1.42405 21.1363 1.42405L19.5396 45.6881 18.2566 0.887556C12.6955-1.78387-0.205691 0.887556-0.205691 0.887556-0.00261826 2.07924 0.179822 5.03049 0.340374 9.05474 0.3476 9.32716 0.362262 9.60573 0.375563 9.88546 0.466783 12.2845 1.68532 66.6968 1.69988 66.962 1.83247 69.1661 2.03554 71.1606 2.28113 72.9601 2.3225 73.2532 2.36502 73.5463 2.41372 73.8248 2.86249 76.7338 3.43641 79.0988 4.01159 80.9601 5.25076 84.9783 6.48993 86.7004 6.48993 86.7004 17.7678 82.0489 30.6337 86.5127 30.6337 86.5127 30.9001 86.1917 31.1518 85.8151 31.4035 85.3961 32.7764 83.0734 33.9256 79.266 34.8851 74.5151 34.9763 74.0901 35.0603 73.6577 35.1442 73.2182 35.5284 71.1678 35.886 68.9638 36.2156 66.6411 36.2715 66.2148 36.3274 65.7765 36.3907 65.344 36.7761 62.4352 37.1191 59.3664 37.4206 56.2058 37.462 55.8085 38.1843 47.1522 38.2122 46.7126 38.4214 43.8183 39.1851 28.9408 39.1998 28.5291 39.3116 25.6554 39.7944 1.9545 39.7944 1.9545" fill="#D94384" fill-rule="evenodd" transform="matrix(1 0 0 -1 200 193)"/><path d="M7.77614 6.1922 7.68594 6.15181 7.76134 6.20556ZM7.76379 43.9602C6.71776 44.737 5.52947 45.5443 4.05813 45.6371 1.00769 45.8277-0.0482388 43.3984-0.208928 41.6139-0.404333 39.4266 1.44919 37.7289 3.21975 36.0739 6.61756 32.8996 10.3381 30.0611 13.8646 26.9907 14.5545 26.391 18.5755 23.0273 17.8855 21.988 15.7267 18.7306 13.5665 15.4733 11.4064 12.2159 9.75947 9.71583 8.7456 7.05326 5.05102 5.89295 3.82567 5.50944 2.5459 5.176 1.54439 4.52984 0.544044 3.88379-0.121183 2.8212 0.341292 1.89787 1.32055-0.0403915 5.5382-1.13359 7.52888 0.308932 10.7573 2.64049 13.4838 5.46421 16.0914 8.19516 19.8541 12.1316 23.5622 16.1779 26.4716 20.5065 27.5943 22.0551 25.4404 25.9733 22.9452 29.5762 21.2512 32.0227 19.2012 34.2944 16.9297 36.4439 14.1255 39.0992 10.9848 41.57 7.76379 43.9602" fill="#F5A784" fill-rule="evenodd" transform="matrix(1 0 0 -1 225 121)"/><path d="M18.1229 6.1851 18.1954 6.13152 18.1074 6.17168ZM9.29575 36.3238C7.10893 34.1813 5.13516 31.9169 3.5031 29.4787 1.10079 25.8875-0.971712 21.9824 0.107957 20.4387 2.90909 16.1246 6.47924 12.0915 10.1017 8.16803 12.6123 5.44619 15.2373 2.63167 18.3454 0.307808 20.2632-1.12985 24.3239-0.0403631 25.2667 1.89151 25.7118 2.81179 25.0714 3.87087 24.1071 4.5149 23.1429 5.15882 21.912 5.49117 20.7323 5.87341 17.1752 7.02989 16.1991 9.68369 14.6123 12.1755 12.5337 15.4222 10.4541 18.6687 8.3756 21.9154 7.71126 22.9514 11.5826 26.3039 12.2469 26.9015 15.642 29.9619 19.7144 31.7502 22.9857 34.9152 24.6905 36.5648 25.9844 39.2965 25.7964 41.4767 25.6416 43.2552 25.8762 45.8298 22.9393 45.6387 21.5227 45.5474 19.1264 44.5894 18.1204 43.8152 15.0194 41.4329 11.9957 38.9702 9.29575 36.3238" fill="#F5A784" fill-rule="evenodd" transform="matrix(1 0 0 -1 185 121)"/><path d="M67.3231 20.2485C64.536 28.3573 57.1379 33.7993 50.1533 38.705 49 39.514 47.7775 40.2815 46.5622 40.9854 45.8637 41.3802 45.0887 41.5977 44.3137 41.8018 42.4823 42.3017 40.5843 42.8468 38.7045 42.5693 38.5783 42.551 38.445 42.5266 38.3686 42.4214 38.2995 42.3298 38.3055 42.1965 38.3127 42.0695 38.3686 40.8021 37.1108 39.2182 36.0424 38.5986 34.3105 37.5928 32.2147 39.1901 31.0759 40.8522 30.7691 41.2885 30.4757 41.7529 30.0353 42.0486 29.4556 42.4422 28.7073 42.4715 28.0088 42.4911 24.7549 42.59 21.4293 42.7869 18.6628 40.8657 16.0154 39.0215 13.5982 36.8461 11.4964 34.3897 7.46501 29.6882 2.86975 25.6625 0.634531 19.6851-0.0579695 17.8275-0.546793 15.7572 0.0960936 13.8788 1.31126 10.2956 5.12555 6.75515 7.66033 4.05913 9.77783 1.81412 16.6581-3.67686 18.0347 2.4471 18.5719 4.81926 16.3234 8.40255 15.0233 10.2882 13.7947 12.0835 12.5649 13.8715 11.3351 15.6668 9.72206 18.0109 11.5304 19.1791 13.3047 20.5235 16.1414 22.6769 19.0267 24.7679 21.8841 26.887 22.875 23.0924 22.9234 19.0447 22.0224 15.2293 21.6525 13.6393 21.1503 11.8367 22.0576 10.4851 22.5123 9.81039 23.2461 9.38023 23.9786 9.02953 27.9809 7.09974 32.5568 6.69895 36.9859 6.89566 39.2697 7.0007 42.0288 7.17679 44.0263 8.41602 46.2833 9.8165 46.8133 11.4994 46.7721 14.1734 46.7369 16.4831 46.1706 18.7918 46.4931 21.1003 46.5925 21.8177 46.8594 22.4691 47.1566 23.1242 47.3894 23.6387 47.8781 24.1276 48.0213 24.6725 48.1741 25.2543 47.9061 26.0609 47.8394 26.6536L48.6362 26.1354C48.8811 25.8263 49.0607 25.5659 49.3735 25.2923 50.0988 24.6568 50.8107 24.0054 51.5117 23.3429 52.9161 22.0157 54.2805 20.647 55.6426 19.2769 55.9858 18.9396 56.3496 18.5595 56.5789 18.1294 56.7268 17.8482 56.8165 17.5452 56.7959 17.2225 56.7607 16.6872 56.4321 16.2228 56.1252 15.7792 54.7426 13.8006 53.5055 11.7243 52.4371 9.55621 51.8222 8.31087 50.5305 6.74042 50.4457 5.30447 50.3692 3.97483 51.5359 3.08755 52.3812 2.22228 52.8567 1.72855 53.3661 1.2226 54.0162 1.02578 55.0288 0.722762 56.1119 1.2507 56.9075 1.95463 60.8613 5.48045 64.3335 10.232 66.8197 14.9128 67.266 15.7646 67.7002 16.6518 67.7839 17.61 67.853 18.5033 67.6166 19.3967 67.3231 20.2485" fill="#C07ADE" fill-rule="evenodd" transform="matrix(1 0 0 -1 184 117)"/><path d="M-0.194039 1.89293C0.649488 1.45637 1.06768 0.436449 1.8872-0.0453932 3.0444-0.725343 4.52354-0.0955258 5.58584 0.731136 7.3414 2.09841 8.66201 3.98165 9.62217 6.00802 10.3023 7.44248 10.8189 8.99565 10.8058 10.5879 10.7925 12.1814 10.1881 13.8225 8.95643 14.8058 7.97113 15.5933 6.1158 16.0445 4.99586 15.2497 4.00569 14.5465 3.99969 12.9041 3.72565 11.8132 3.50585 10.945 0.326296 1.62383-0.194039 1.89293" fill="#D94384" fill-rule="evenodd" transform="matrix(1 0 0 -1 202 126)"/><path d="M10.7895 1.89293C9.9471 1.45637 9.52886 0.436449 8.70925-0.0453932 7.55192-0.725343 6.07251-0.0955258 5.01019 0.731136 3.25443 2.09841 1.93243 3.98165 0.972272 6.00802 0.292075 7.44248-0.224697 8.99565-0.21031 10.5879-0.198304 12.1814 0.407373 13.8225 1.63922 14.8058 2.6235 15.5933 4.47903 16.0445 5.5991 15.2497 6.58928 14.5465 6.59652 12.9041 6.87059 11.8132 7.08928 10.945 10.2692 1.62383 10.7895 1.89293" fill="#D94384" fill-rule="evenodd" transform="matrix(1 0 0 -1 224 126)"/><path d="M26.7989 4.50937C25.9981 3.86448 25.08 3.35802 24.169 2.8648 22.347 1.89037 20.4819 0.941119 18.4597 0.378643 15.2149-0.533146 11.7208-0.413366 8.35851 0.0304655 5.41815 0.422638 2.73917 0.548947-0.2012 0.485272 1.02024 4.13035 2.24169 5.69251 2.24169 5.69251 13.3582 1.47285 26.0401 5.5223 26.0401 5.5223 26.3027 5.23117 26.5507 4.88952 26.7989 4.50937" fill="#BF3B75" fill-rule="evenodd" transform="matrix(1 0 0 -1 204 112)"/><path d="M10.7531-0.355055C10.5159 0.0677625 10.1395 0.441335 9.78443 0.772906 7.16959 3.27029 4.55345 5.76167 1.6839 7.98283 0.693963 10.7157 0.390314 13.8917-0.224549 16.6449 4.29378 12.162 8.98262 7.38818 10.5661 1.34832 10.7104 0.787286 10.8259 0.205977 10.7531-0.355055" fill="#A166BA" fill-rule="evenodd" transform="matrix(1 0 0 -1 230 98)"/><path d="M1.49908 5.98619C1.24429 8.13864 0.959383 10.6255 0.145873 12.5128 0.0718751 12.6832-0.166398 12.6307-0.145402 12.4026 0.0408131 10.3885 0.595132 8.4423 0.858019 6.43595 1.14662 4.23605 1.08088 1.94258 1.42689-0.227747 1.4607-0.436625 1.70173-0.443025 1.73192-0.227747 2.0195 1.7838 1.73648 3.97972 1.49908 5.98619" fill="#A166BA" fill-rule="evenodd" transform="matrix(1 0 0 -1 205 88)"/><path d="M8.56635 0.465637C7.13555 0.703613 5.6869 0.50676 4.25229 0.731452 2.75568 0.962928 1.561 1.64874 0.205893 2.48066-0.0416571 2.63328-0.306827 2.32154-0.173046 1.98846-0.0151184 1.59786-0.0745042 1.72745 0.155317 1.34674L0.275285 1.46827C0.776693 0.378727 2.9136-0.074191 3.77861-0.244901 5.37627-0.561449 7.04962-0.594376 8.62704-0.115173 8.89852-0.0315135 8.80129 0.426351 8.56635 0.465637" fill="#A166BA" fill-rule="evenodd" transform="matrix(1 0 0 -1 209 95)"/><path d="M12.8118 4.64107C11.734 5.72636 10.4354 6.35331 10.8759 8.1185 11.0613 8.85964 11.6947 9.6382 11.4903 10.4432 11.1095 11.9448 8.91338 11.6489 7.72274 11.8666 4.75099 12.4141 2.36708 13.8484 0.0326878 15.6028-0.114571 15.7135-0.289708 15.5475-0.17295 15.4066 1.09007 13.8977 2.79617 12.7944 4.64943 12.0267 5.56983 11.6464 6.53198 11.3468 7.51327 11.1506 8.60618 10.9317 10.6919 11.2325 10.5687 9.64545 10.5141 8.93674 9.94923 8.28451 9.9149 7.52409 9.88702 6.90201 10.0101 6.29434 10.358 5.75651 10.8201 5.03931 11.649 4.68915 12.2164 4.07671 13.3423 2.86023 12.9844 1.31037 12.827-0.140726 12.7978-0.413889 13.2179-0.43192 13.3043-0.202074 13.9073 1.40913 14.1497 3.29339 12.8118 4.64107" fill="#A166BA" fill-rule="evenodd" transform="matrix(1 0 0 -1 208 92)"/><path d="M5.14647 15.3774C4.49313 13.1623 2.7327 12.5372 0.96287 11.5479 0.0507721 11.0368-0.132627 10.6299-0.138424 9.58421-0.144221 8.41113-0.360102 7.13503 0.0577682 6.0159 0.372195 5.17262 0.967568 4.48981 1.31338 3.66247 1.84259 2.39376 1.75324 1.25615 1.36675-0.0468722 1.28549-0.321455 1.68128-0.501554 1.8112-0.244179 2.37759 0.887194 2.52381 2.1424 2.16401 3.3805 1.97142 4.04114 1.61161 4.60868 1.2739 5.19342 0.664634 6.25132 0.539303 7.22951 0.591575 8.43805 0.63565 9.48244 0.644945 10.343 1.53386 10.9718 2.25106 11.4793 3.15277 11.6877 3.88047 12.2221 4.87032 12.9491 5.60262 13.9088 5.79521 15.1873 5.86377 15.631 5.2788 15.8248 5.14647 15.3774" fill="#A166BA" fill-rule="evenodd" transform="matrix(1 0 0 -1 221 91)"/><path d="M17.8037 0.785633 17.7687-0.193183C11.7924-0.32787 5.64842-0.0120303-0.1964 1.08325-0.189126 1.31096-0.174682 1.54381-0.16138 1.77761 5.82934 1.12475 11.7647 0.664197 17.8037 0.785633" fill="#BF3B75" fill-rule="evenodd" transform="matrix(1 0 0 -1 200 185)"/><path d="M18.7848 2.31873C12.5977 1.53274 6.48796 0.0921584 0.215142-0.254487 0.0876622-0.262032-0.0460491-0.268283-0.173635-0.275829L-0.215353 0.92816C0.145224 0.949502 0.511926 0.970736 0.878629 0.999515 5.18063 1.3024 9.41165 1.98696 13.65 2.80183 15.324 3.12595 17.0335 3.47259 18.7638 3.72417 18.7712 3.24236 18.7786 2.77295 18.7848 2.31873" fill="#BF3B75" fill-rule="evenodd" transform="matrix(1 0 0 -1 221 185)"/><path d="M18.7923 1.09865 18.7554-0.221784C12.4641-0.410401 6.00326-0.296463-0.207683 0.691297-0.192315 1.02262-0.184741 1.36319-0.177057 1.70241 6.15759 1.43133 12.4488 1.00818 18.7923 1.09865" fill="#BF3B75" fill-rule="evenodd" transform="matrix(1 0 0 -1 200 176)"/><path d="M18.7866 1.41577C16.9924 1.16926 15.1995 0.968999 13.4479 0.762959 9.41923 0.282695 5.37713-0.04376 1.32048-0.210427 0.822981-0.230064 0.325484-0.250897-0.172013-0.263656L-0.213393 0.876395C0.297513 0.890351 0.808419 0.909988 1.32048 0.929625 5.37713 1.11025 9.41923 1.4366 13.4479 1.91577 15.2202 2.12988 16.9863 2.4366 18.7441 2.73644 18.7586 2.28967 18.772 1.84978 18.7866 1.41577" fill="#BF3B75" fill-rule="evenodd" transform="matrix(1 0 0 -1 220 176)"/><path d="M-0.175872 0.834027C5.81207 0.810204 11.8145 0.636512 17.8037 0.491526L17.7688-0.166033C11.7797-0.0245462 5.77725 0.0840118-0.196289 0.338218-0.190278 0.503468-0.183127 0.668717-0.175872 0.834027" fill="#BF3B75" fill-rule="evenodd" transform="matrix(1 0 0 -1 201 163)"/><path d="M18.7882-0.295444C17.4923-0.23799 0.602976 0.502878-0.170628 0.531605L-0.21175 1.70466C0.686364 1.66217 17.785 0.99263 18.7398 0.985099 18.7532 0.554091 18.7738 0.129324 18.7882-0.295444" fill="#BF3B75" fill-rule="evenodd" transform="matrix(1 0 0 -1 220 164)"/><path d="M-0.175436 2.64449C5.81575 2.12349 11.7998 1.39249 17.8042 1.02329L17.7694-0.355506C11.813-0.0272693 5.75334 0.341934-0.195894 1.27437-0.188661 1.72953-0.181429 2.19059-0.175436 2.64449" fill="#BF3B75" fill-rule="evenodd" transform="matrix(1 0 0 -1 201 156)"/><path d="M18.7874-0.368397C17.1441-0.34254 15.5068-0.28952 13.8914-0.281946 9.53949-0.247078 5.18147-0.0984655 0.830767 0.147176 0.501682 0.163892 0.16517 0.182044-0.170086 0.198759L-0.212556 1.63173C0.250213 1.60588 0.711727 1.57858 1.17335 1.55286 5.52404 1.33451 9.88196 1.21162 14.2412 1.19504 15.7242 1.1859 17.2206 1.22991 18.711 1.28149 18.7389 0.730917 18.7595 0.182044 18.7874-0.368397" fill="#BF3B75" fill-rule="evenodd" transform="matrix(1 0 0 -1 220 156)"/><path d="M36.7943-0.347997C34.762-0.203784 32.7287-0.0111025 30.711 0.0761655 26.7645 0.23554 22.8254 0.331284 18.879 0.354802 12.5146 0.40339 6.15748 0.123321-0.205728-0.00417836-0.199649 0.371396-0.192418 0.738853-0.185082 1.11443 6.26333 1.64818 12.7738 1.68006 19.2294 1.63983 23.2878 1.62454 27.3462 1.52892 31.4034 1.35283 33.1496 1.28216 34.9227 1.25721 36.6958 1.16982 36.731 0.666746 36.7663 0.155196 36.7943-0.347997" fill="#BF3B75" fill-rule="evenodd" transform="matrix(1 0 0 -1 201 146)"/><path d="M35.7953-0.336981C34.4197-0.194745 33.0441-0.0589183 31.6697 0.0611671 27.8094 0.407144 23.9419 0.685207 20.0744 0.903227 13.3236 1.2871 6.5461 1.24279-0.204794 1.54177-0.197487 1.88111-0.197487 2.21933-0.190181 2.54305 6.66488 2.86552 13.6036 2.47524 20.4162 2.107 24.514 1.88898 28.6045 1.59529 32.6962 1.23492 33.6864 1.14351 34.6851 1.05345 35.6765 0.955511 35.7178 0.527229 35.7529 0.0990593 35.7953-0.336981" fill="#BF3B75" fill-rule="evenodd" transform="matrix(1 0 0 -1 201 138)"/><path d="M33.7994-0.190526C32.572-0.145439 31.3518-0.10029 30.1377-0.0752482 26.5046-0.00573614 0.81462 0.254919-0.200733 0.2836-0.186483 0.448282-0.173361 0.609449-0.15911 0.766299 1.29441 0.794918 2.74783 0.799235 4.20843 0.80713 8.41768 0.836489 32.3387 0.588663 33.628 0.576513 33.6827 0.324369 33.7374 0.0651329 33.7994-0.190526" fill="#BF3B75" fill-rule="evenodd" transform="matrix(1 0 0 -1 202 127)"/><path d="M25.4988 1.5764C21.5428 2.12437 17.2093 0.848474 13.2485 0.666515 11.1054 0.568109 8.95492 0.592437 6.81568 0.747973 4.56511 0.911982 2.37344 1.36583 0.135351 1.56474-0.299775 1.60492-0.314742 1.07599 0.0390871 0.962733 3.85497-0.259226 8.5423-0.377677 12.572-0.245467 14.5199-0.180957 16.4479 0.0126651 18.3746 0.254943 20.7127 0.549066 23.0545 0.66861 25.3912 0.907699 25.7951 0.948975 25.9901 1.5087 25.4988 1.5764" fill="#BF3B75" fill-rule="evenodd" transform="matrix(1 0 0 -1 205 120)"/><path d="M-0.164892 0.776151-0.237564 0.69254C0.0897131 0.584367 0.423005 0.460705 0.695026 0.319499 0.484025 0.258394 0.299211 0.17551 0.185816 0.0708452 0.0738003-0.0338193 0.319634-0.187005 0.550933-0.105512 0.641148-0.0732047 0.881218-0.00362998 1.06165 0.0771371 1.16201-0.00502148 1.25373-0.0893581 1.35697-0.175026 1.47626-0.27479 1.82985-0.208785 1.75128-0.0942586 1.47488 0.309698 0.665957 0.65739-0.164892 0.776151" fill="#E0855C" fill-rule="evenodd" transform="matrix(1 0 0 -1 209 61)"/><path d="M5.69817 1.23688 5.64199 1.31469C5.41683 1.6235 5.08559 1.65416 4.78883 1.43722 4.11985 1.23556 3.33576 1.20237 2.66557 1.09391 1.83036 0.959943 0.984798 0.850157 0.165014 0.635859-0.408019 0.487829-0.310861-0.473103 0.308218-0.420792 1.20742-0.346722 2.0976-0.206385 2.98788-0.0749492 3.75534 0.0373647 4.82716 0.00538491 5.4859 0.429144 5.73408 0.588604 5.8926 0.967526 5.69817 1.23688" fill="#C07ADE" fill-rule="evenodd" transform="matrix(1 0 0 -1 215 46)"/></g></svg>