<svg width="56" height="199" xmlns="http://www.w3.org/2000/svg" xmlns:xlink="http://www.w3.org/1999/xlink" overflow="hidden"><defs><clipPath id="clip0"><rect x="282" y="209" width="56" height="199"/></clipPath></defs><g clip-path="url(#clip0)" transform="translate(-282 -209)"><path d="M41.2137-0.223819C35.7567-0.223819 30.2095 0.243146 25.2021 0.247926 19.7972 0.253953 14.3874 0.245536 8.98373 0.348094 8.7311 0.352874 8.48104 0.354121 8.23331 0.354121 7.93493 0.354121 7.64018 0.351731 7.34799 0.349237 7.05207 0.346847 6.76105 0.344457 6.47131 0.344457 4.05187 0.344457 1.85521 0.520583-0.0888307 2.34241-0.319172 2.55969-0.319172 2.99039-0.0888307 3.20756 1.81191 4.98959 4.08525 5.25861 6.49616 5.25861 7.01741 5.25861 7.54485 5.24656 8.0773 5.23336 8.60847 5.2212 9.14465 5.20801 9.68329 5.20801 9.81083 5.20801 9.93837 5.20915 10.0659 5.2104 15.1092 5.27316 20.1562 5.29602 25.2021 5.30204 30.2156 5.30807 35.7593 5.77628 41.2174 5.77628 45.9276 5.77628 50.5747 5.42757 54.7587 4.12933 56.0663 3.72513 56.0638 1.82484 54.7587 1.42064 50.5784 0.124898 45.9301-0.223819 41.2137-0.223819" fill="#DADADA" fill-rule="evenodd" transform="matrix(1 0 0 -1 282 407)"/><path d="M13.0703 54.427C12.3228 51.609 11.6247 48.7054 9.66551 46.5894 7.6942 44.4587 5.35396 42.371 4.80301 39.5028 4.6161 38.5329 4.65224 37.5287 4.47385 36.5551 3.74202 32.5678-0.455006 29.6055-0.247543 25.5534-0.168006 24.005 0.571094 22.5764 0.907417 21.0634 1.74184 17.3085 0.210578 12.8075 2.66898 9.87691 3.3489 9.0673 4.27376 8.48627 4.88618 7.62399 5.79889 6.341 5.93388 4.55651 7.0419 3.441 8.29582 2.18003 10.3516 2.23628 12.0334 2.78181 13.7153 3.32724 15.2814 4.27147 17.0273 4.53818 20.8529 5.12522 24.4989 2.3671 28.3667 2.48329 29.2734 2.51026 30.1909 2.69617 31.0806 2.51763 33.0833 2.11767 34.4408 0.00168537 36.4532-0.339602 38.1049-0.61969 39.7205 0.400381 40.8514 1.65409 43.0253 4.0648 44.0187 7.52129 43.4641 10.738 43.3206 11.5672 43.0808 12.4014 43.1892 13.2355 43.346 14.4195 44.1719 15.3821 44.9398 16.2884 46.799 18.4876 48.5991 21.0034 48.7366 23.8973 48.9198 27.7721 46.0756 31.2726 46.1347 35.1522 46.1564 36.5784 46.5459 38.1316 45.8044 39.3437 44.9628 40.7197 43.0651 40.968 41.916 42.0921 40.0159 43.9524 40.8695 47.2426 39.8074 49.6949 39.1164 51.2909 37.5732 52.1006 36.7172 53.5475 35.9034 54.9224 35.8009 56.6958 35.3692 58.2039 34.7254 60.4483 33.0145 62.3527 30.8696 63.2088 28.6355 64.1016 27.1646 63.2688 25.0125 63.0694 23.2329 62.9043 21.639 63.8534 19.6388 63.2504 15.1875 61.9062 14.0831 58.2442 13.0703 54.427" fill="#3B2645" fill-rule="evenodd" transform="matrix(1 0 0 -1 286 273)"/><path d="M-0.130597 11.6391C-0.644531 13.0855 0.507043 14.578 1.71551 15.5261 2.92523 16.4755 4.37381 17.3656 4.78711 18.8435 5.28893 20.6358 4.03557 22.5939 4.6065 24.3657 5.072 25.8108 6.59449 26.6442 7.35938 27.9576 8.25999 29.5008 8.14244 31.7176 9.63455 32.7044 10.3158 33.1555 11.1777 33.2173 11.9401 33.5147 13.6566 34.1848 15.156 36.0848 16.9063 35.5091 18.0033 35.1486 18.544 33.961 19.1294 32.9669 19.715 31.9739 20.772 30.9678 21.8713 31.3245 22.3768 31.4879 22.8265 31.9317 23.3502 31.8409 24.2302 31.6898 24.1636 30.4405 24.2145 29.5492 24.3782 26.6526 28.0122 25.0756 28.6862 22.2528 28.9031 21.3458 28.788 20.3916 28.9455 19.4724 29.1892 18.0501 30.0644 16.8166 30.4802 15.433 31.1117 13.3372 30.5868 10.9316 29.1395 9.28812 28.2946 8.3302 27.1916 7.64329 26.1055 6.97086 22.9974 5.04918 19.8907 3.12739 16.7839 1.20446 15.733 0.555048 14.6481-0.107697 13.4287-0.315801 10.9159-0.741487 8.47087 0.888868 6.88543 2.88065 5.00529 5.24509 3.91562 8.22386 3.82835 11.2413 3.22464 11.7081 2.34344 10.6451 1.8246 10.085 1.67553 9.9242 1.53982 9.7186 1.32403 9.67996 1.17005 9.65215 1.01492 9.72099 0.880357 9.79963-0.00814276 10.3257-0.398473 10.6438-0.130597 11.6391" fill="#2C1C33" fill-rule="evenodd" transform="matrix(1 0 0 -1 295 257)"/><path d="M0.306086-0.212941 2.67236-0.212941 2.67236 2.85211 4.54465 1.09253C5.43964 0.250827 6.58587-0.212941 7.77259-0.212941L11.498-0.212941C13.6572-0.327419 13.9738 0.258013 13.6155 0.569108 12.9097 1.17949 10.3649 1.84952 10.3649 1.84952 10.3649 1.84952 2.92822 11.5489 0.832255 9.48408-1.26381 7.41925 0.306086-0.212941 0.306086-0.212941" fill="#D94384" fill-rule="evenodd" transform="matrix(1 0 0 -1 313 402)"/><path d="M4.34702 126.341C5.28924 126.416 6.12317 126.548 6.87683 126.694L6.94437 126.694C7.30775 126.77 7.65081 126.861 7.98739 126.958 8.62618 127.124 9.19876 127.312 9.70369 127.506 12.2667 128.499 13.121 129.707 13.121 129.707 13.121 129.707 14.164 128.047 15.5972 125 15.6304 124.923 16.1876 123.702 16.4439 123.112 17.0483 121.717 17.7024 120.114 18.3477 118.316 19.0821 116.317 19.7949 114.095 20.4605 111.652 23.2594 101.302 20.7768 83.7136 19.1357 75.5005 18.9878 74.7795 18.8399 74.134 18.7251 73.5714 17.696 68.9691 16.9145 63.2221 16.5523 55.3499 16.3635 51.2275 16.296 46.5205 16.3635 41.0925 16.3903 38.2684 16.3292 35.4076 16.2092 32.6175 15.8586 25.0437 14.2252 11.6949 14.1245 11.0019 14.1245 11.0019 13.7764 4.87249 18.4586-0.288746 18.5822-0.423941 12.1851 2.74366 9.69732 5.78949 9.16944 6.1354 8.83659 6.6079 8.72063 7.24969 8.43884 8.77932 8.44894 11.2589 8.31003 12.8408 7.7592 19.0543-0.273988 126.229-0.273988 126.229 1.47416 126.159 3.00168 126.201 4.34702 126.341" fill="#F5A784" fill-rule="evenodd" transform="matrix(1 0 0 -1 305 400)"/><path d="M14.0651-0.215684 11.5413-0.215684 11.5413 2.89221 9.54656 1.10852C8.59232 0.254739 7.37034-0.215684 6.1053-0.215684L2.1324-0.215684C-0.169385-0.332951-0.505752 0.262029-0.123815 0.576442 0.627381 1.19673 3.34039 1.87763 3.34039 1.87763 3.34039 1.87763 11.691 11.0366 13.5043 9.62049 15.9114 7.74016 14.0651-0.215684 14.0651-0.215684" fill="#D94384" fill-rule="evenodd" transform="matrix(1 0 0 -1 290 402)"/><path d="M0.957032 111.44C2.11892 115.898 4.10225 120.218 6.18901 123.852 6.7535 124.843 7.33267 125.779 7.90335 126.653 8.73191 127.935 10.9391 127.86 13.3604 127.416 15.2926 127.082 17.3599 126.501 18.9513 126.21 19.6716 126.07 20.2813 125.981 20.7497 126.001 20.7497 126.001 13.0781 18.9329 12.5512 12.7346 12.4248 11.0971 12.2118 9.85742 12.1132 8.33308 12.1266 8.14816 12.134 7.96072 12.1157 7.76124L12.0707 7.48757C12.0438 7.35493 12.0232 7.28075 11.9891 7.19798 10.8564 3.82326 2.69694-0.445598 2.83201-0.287496 7.30102 4.8671 6.78033 12.5557 6.78033 12.5557 6.78033 12.5557 5.36768 24.7504 5.04032 32.2055 4.90525 35.0827 4.84814 38.0364 4.87978 40.955 4.96246 48.2434 4.80308 54.2277 4.45633 59.2471 4.06453 65.0927 3.41599 69.628 2.613 73.3994 2.50465 73.9614 2.3635 74.6061 2.2212 75.3276 1.17593 80.7912-0.217226 90.4165-0.250025 99.2839-0.263438 103.743 0.0711513 107.987 0.957032 111.44" fill="#F5A784" fill-rule="evenodd" transform="matrix(1 0 0 -1 291 400)"/><path d="M37.3948 13.6459C37.0984 9.88525 36.5937 5.7801 35.8318 1.32215 35.8318 1.32215 14.8702-2.38277 1.34307 1.32215 1.34307 1.32215-3.88511 30.6012 4.55491 46.8458 5.27271 48.2283 6.08735 49.5138 7.01213 50.6756 7.01213 50.6756 17.8959 47.1222 31.482 49.8109 31.482 49.8109 39.4821 39.9816 37.3948 13.6459" fill="#3B2645" fill-rule="evenodd" transform="matrix(1 0 0 -1 290 327)"/><path d="M32.3964-0.184199C32.0493-0.245841 31.7021-0.288045 31.3489-0.308523 26.6119-0.60426 22.0747 2.24428 19.0101 6.12472 15.9443 10.004 14.1318 14.814 12.5374 19.595 11.2402 23.4947 9.90274 27.671 6.85642 30.2165 4.62014 32.0886 2.22904 32.2527-0.258161 32.8586 0.455584 34.2346 1.26563 35.514 2.18529 36.6704 2.18529 36.6704 13.0076 33.1339 26.5169 35.8098 26.5169 35.8098 34.472 26.0271 32.3964-0.184199" fill="#2C1C33" fill-rule="evenodd" transform="matrix(1 0 0 -1 295 313)"/><path d="M17.6869 24.6901C17.5656 23.7777 17.2727 22.8029 16.7522 21.7584 16.0539 20.2962 15.3118 18.8548 14.5485 17.4281 14.3346 17.0176 12.6653 13.9259 12.0447 12.7837 10.9397 10.7511 9.84856 8.71835 8.83501 6.65638 8.17299 5.31273 7.51604 3.96898 6.76781 2.67414 5.97572 1.28894 5.04094-0.0901586 3.35168-0.333282 1.93141-0.53485 0.262091 0.0771135-0.143331 1.54543-0.308539 2.13182-0.250883 2.75115-0.193335 3.34965 0.23461 7.90366 1.11798 12.2194 2.3669 16.5644 2.59461 17.4 2.83731 18.2281 3.10134 19.0637 4.35651 23.0948 5.71169 27.4471 8.42204 30.9835 9.55576 32.4666 11.3252 33.5109 12.6228 33.6294 12.6228 33.6294 13.7502 33.0101 14.9478 31.8191 16.4606 30.3154 18.0861 27.9065 17.6869 24.6901" fill="#F5A784" fill-rule="evenodd" transform="matrix(1 0 0 -1 285 274)"/><path d="M11.3344 4.33861C11.1786 1.58859 11.0301-0.35726 11.0301-0.35726 10.3119-0.392891 9.61999-0.38549 8.95549-0.32903 7.79748-0.251636 6.73346-0.0490585 5.75145 0.230808 3.14188 0.964993 1.14931 2.26748-0.239281 3.47057-0.022935 4.31038 0.207746 5.14268 0.458597 5.98239 0.852075 7.31934 1.25866 8.69805 1.71879 10.0694 2.64018 12.8402 3.79215 15.5828 5.5136 17.962 6.59073 19.4524 8.27184 20.502 9.5047 20.6212 9.5047 20.6212 10.5759 19.9987 11.7136 18.8018 11.8765 14.883 11.5852 8.62806 11.3344 4.33861" fill="#A9D13B" fill-rule="evenodd" transform="matrix(1 0 0 -1 288 261)"/><path d="M9.33644 4.33861C9.18136 1.58859 9.03331-0.35726 9.03331-0.35726 8.31826-0.392891 7.62921-0.38549 6.96748-0.32903 5.81431-0.251636 4.75473-0.0490585 3.77683 0.230808 3.41803 1.48423 3.35063 2.81991 3.08778 4.1004 2.55503 6.62575 1.19121 8.21434-0.238996 10.0694 0.678548 12.8402 1.82571 15.5828 3.53997 17.962 4.6126 19.4524 6.28669 20.502 7.5144 20.6212 7.5144 20.6212 8.58111 19.9987 9.7141 18.8018 9.87632 14.883 9.58624 8.62806 9.33644 4.33861" fill="#99BD36" fill-rule="evenodd" transform="matrix(1 0 0 -1 290 261)"/><path d="M27.8053 0.333266C25.0858-0.354588 21.1989-0.466762 17.2647-0.3131 16.2595-0.278965 15.2543-0.222878 14.2622-0.153347 13.2499-0.0838154 12.2578-0.000945287 11.3071 0.0892771 6.39365 0.541754 2.47365 1.16743 2.25697 1.20283 3.45872 7.31158 3.51195 15.0766 2.24392 19.0109 2.04152 19.6159 1.73726 20.5122 1.50162 20.9025 1.09673 21.5622 0.671637 22.3415 0.354427 23.0489-0.54306 25.038-0.347697 27.026 0.341376 29.104 0.854051 30.6407 1.01505 32.1139 1.23764 33.6079 1.32635 34.2275 1.42709 34.853 1.56199 35.4848 1.86625 36.8544 3.05851 37.3093 4.36325 37.5495 4.83442 37.6362 6.22439 37.8666 6.4481 37.9044 7.27575 38.0435 8.12817 38.1265 8.87046 38.2032 9.05879 38.2239 9.24222 38.2447 9.4175 38.2593 10.4084 38.3556 11.1105 38.4056 11.1105 38.4056L12.4342 45.9402C12.6366 48.0671 15.2389 48.5733 17.2967 48.622 18.7067 48.655 19.8564 48.4903 19.8564 48.4903L19.4384 38.3069C19.4384 38.2032 19.938 38.1947 20.8283 38.1411 21.0367 38.1289 21.2664 38.113 21.5162 38.0984 21.8205 38.0776 22.1638 38.0569 22.5356 38.0227L22.6706 38.0154C22.8387 38.002 23.008 37.9837 23.1702 37.9666 24.0925 37.869 25.2065 37.841 26.1928 37.591 26.6912 37.4654 27.1104 37.3056 27.4679 37.0837 28.0078 36.7495 28.4068 36.2776 28.5749 35.5897L28.6222 35.3531C28.6424 35.214 28.6648 35.0823 28.6827 34.9434 29.0047 32.4115 28.1156 29.7443 27.5555 27.3381 27.2584 26.088 27.0299 24.8502 26.8333 23.5989 26.7729 23.2026 26.645 22.222 26.6321 22.1318 26.503 21.1866 26.3952 20.2414 26.3005 19.289 26.1726 17.9889 26.065 16.6827 25.9631 15.362 25.943 15.0912 25.8956 14.8339 25.8956 14.5619 25.7879 9.25919 26.4296 4.43466 27.056 2.00159 27.1246 1.75162 27.1921 1.52233 27.2524 1.32718 27.462 0.695416 27.6502 0.333266 27.8053 0.333266" fill="#F5A784" fill-rule="evenodd" transform="matrix(1 0 0 -1 294 278)"/><path d="M-0.245257-0.343235C3.14815-0.59321 5.84268 0.508538 7.61077 1.59018L7.75474 4.96676 5.30287 6.621C3.27703 6.56815 0.729972 6.08841 0.534906 4.04102L-0.245257-0.343235" fill="#E0855C" fill-rule="evenodd" transform="matrix(1 0 0 -1 306 236)"/><path d="M-0.177802 11.0798C0.0297521 13.7751 0.38109 16.0609 1.27122 17.2483 5.17625 22.4571 13.1927 21.0049 14.7443 16.8229 15.2489 15.4659 15.3468 13.55 15.1735 11.2839 16.2076 11.4336 18.1282 11.3668 17.6849 8.67904 17.3158 6.44017 15.6073 6.05912 14.3481 6.09502 12.6102 0.220936 7.7596-0.518784 5.36614-0.396279 2.81578-0.266423-0.806251 2.92479-0.177802 11.0798" fill="#F5A784" fill-rule="evenodd" transform="matrix(1 0 0 -1 302 234)"/><path d="M0.301145-0.395432C0.301145-0.395432-0.377813-0.625744-0.219152 0.627995-0.076869 1.75468 0.389871 1.57787 0.389871 1.57787 0.389871 1.57787 0.853095 1.55675 0.738746 0.570739 0.623191-0.415268 0.301145-0.395432 0.301145-0.395432" fill="#3B2645" fill-rule="evenodd" transform="matrix(1 0 0 -1 305 223)"/><path d="M0.296281-0.395108C0.296281-0.395108-0.381709-0.62565-0.224221 0.628761-0.081809 1.75616 0.386131 1.57796 0.386131 1.57796 0.386131 1.57796 0.848241 1.55801 0.733869 0.571474 0.619497-0.415062 0.296281-0.395108 0.296281-0.395108" fill="#3B2645" fill-rule="evenodd" transform="matrix(1 0 0 -1 312 224)"/><path d="M1.60875-0.0882881C1.23219-0.0222466 0.350342-0.185555 0.192914 0.185056 0.0603492 0.492119 0.767701 2.24471 0.871334 2.54589 0.982878 2.876 1.09567 3.17139 1.20597 3.46209L1.10753 3.52813 0.869978 3.61852C0.448777 2.41261 0.127253 1.14775-0.267729 0.0032921-0.301859-0.0963687-0.223089-0.208699-0.0984348-0.212191 0.457931-0.228452 0.993389-0.354649 1.5484-0.381285 1.7334-0.389465 1.80166-0.121808 1.60875-0.0882881" fill="#E0855C" fill-rule="evenodd" transform="matrix(1 0 0 -1 307 226)"/><path d="M1.63439-0.00856813C1.12952 0.427583 0.166621 0.603724-0.237018-0.182732-0.309159-0.326083-0.225576-0.557588-0.110391-0.555775 0.14766-0.555775 0.380537-0.383589 0.639895-0.370077 0.919523-0.354754 1.1815-0.4696 1.44216-0.616906 1.67874-0.748888 1.85713-0.201845 1.63439-0.00856813" fill="#3B2645" fill-rule="evenodd" transform="matrix(1 0 0 -1 305 220)"/><path d="M1.74577-0.177893C1.5084 0.61232 0.337605 0.752677-0.183514 0.2981-0.301701 0.195164-0.237969-0.0173863-0.115195-0.0681635 0.171944-0.189868 0.487009-0.0788716 0.789209-0.128382 1.05441-0.171215 1.26056-0.31825 1.50381-0.431894 1.62769-0.490731 1.79215-0.332873 1.74577-0.177893" fill="#3B2645" fill-rule="evenodd" transform="matrix(1 0 0 -1 311 221)"/><path d="M2.40134 0.626555C1.94408 0.434633 1.59594 0.20065 1.06981 0.205014 0.661504 0.207149 0.229922 0.417363-0.162765 0.299814L-0.233945 0.150046C0.0430145-0.289879 0.812869-0.366388 1.29666-0.349211 1.81619-0.330826 2.43803-0.173445 2.72611 0.280501 2.86186 0.493965 2.62714 0.721448 2.40134 0.626555" fill="#E0855C" fill-rule="evenodd" transform="matrix(1 0 0 -1 307 229)"/><path d="M16.1133 9.27914 19.1243 6.57522C19.4664 4.8578 19.9519 3.25597 19.6274 1.53212 19.5231 0.974521 19.3583 0.399864 18.9797-0.00689227 18.6514-0.358511 18.122-0.542116 17.693-0.380769L17.4955-0.277047C17.0893 0.00892605 16.9749 0.571719 16.9069 1.07678 16.7749 2.04508 16.6868 3.02378 16.4227 3.96181 16.1435 4.95757 15.5625 6.02418 14.8204 6.72086 13.9689 7.52376 12.7036 7.58014 11.6949 8.06158 10.9905 8.39749 10.505 9.26208 9.86357 9.52048 9.09006 9.83018 7.69653 9.04039 6.97707 8.75691 5.80863 8.29388 4.27678 7.66149 3.50825 6.56867 2.61397 5.30128 1.57128 3.27823 1.18014 1.76555 1.13735 1.59901 0.758778 0.6281 0.615471 0.545506-0.179485 0.0876787-0.033579 3.39902-0.130417 3.87131-0.408364 5.2292-0.258667 6.68798 0.32485 7.93966 1.27828 9.98622 3.03154 10.965 5.07033 11.4255 6.17085 11.6735 7.08529 11.4963 8.20845 11.5318 9.65982 11.5777 11.2597 11.6078 12.6532 10.9716 13.8255 10.4362 14.9235 9.81176 16.1133 9.27914" fill="#3B2645" fill-rule="evenodd" transform="matrix(1 0 0 -1 300 223)"/><path d="M28.1215 1.32824C16.0346-2.68276 2.00716 1.68546 1.79171 1.72061 2.13033 5.91203 3.51195 16.6698 2.24392 20.5767 2.04152 21.1773 1.73726 22.0674 1.50162 22.455 1.09673 23.1102 0.671637 23.884 0.354427 24.5864-0.54306 26.5616-0.347697 28.5357 0.341376 30.5993 0.854051 32.1252 1.01505 33.5881 1.23764 35.0716 1.32635 35.6869 1.42709 36.3082 1.56199 36.9354 1.86625 38.2955 3.05851 38.7472 4.36325 38.9858 4.83442 39.0717 6.22439 39.3006 6.4481 39.3381 7.27575 39.4762 8.12817 39.5586 8.87046 39.6348 9.07888 38.924 9.22214 38.1574 9.55841 37.6403 10.6381 35.9968 12.703 34.976 14.6197 35.0172 17.3191 35.0716 19.803 37.0191 20.8283 39.5731 21.0367 39.5586 21.2664 39.5453 21.5162 39.5308 21.8205 39.5101 22.1638 39.4896 22.5356 39.4557L22.6706 39.4484C22.8387 39.435 23.008 39.4169 23.1702 39.4 23.5798 39.3575 24.0262 39.3381 24.4855 39.2969 25.0586 39.2412 25.6458 39.165 26.1928 39.0269 26.6912 38.9022 27.1092 38.7424 27.4679 38.5231 27.5828 38.4541 27.6893 38.3766 27.7852 38.2955 28.157 37.9842 28.4399 37.5846 28.5749 37.0396L28.6222 36.8046C28.6424 36.6666 28.6648 36.5357 28.6827 36.3978 29.0047 33.8836 28.1156 31.2351 27.5555 28.8456 27.2584 27.6043 27.0299 26.3751 26.8333 25.1326 26.7729 24.739 26.645 23.7653 26.6321 23.6757 26.503 22.7371 26.3952 21.7985 26.3005 20.8527 26.2331 20.2036 26.0034 17.4909 25.9631 16.9531 25.943 16.6843 25.8956 16.4288 25.8956 16.1587 25.8755 15.0966 25.8825 14.0612 25.9169 13.0524 26.0235 9.62995 26.4154 6.60593 26.8475 4.59684 26.915 4.26621 26.9824 3.96229 27.056 3.6861 27.1246 3.43787 27.1921 3.21019 27.2524 3.01641 27.462 2.38905 27.9675 1.32824 28.1215 1.32824" fill="#A9D13B" fill-rule="evenodd" transform="matrix(1 0 0 -1 294 279)"/><path d="M6.91728 4.42298C8.57537 4.07227 10.1626 3.25221 11.2613 1.96552 11.5067 1.67782 11.7359 1.33971 11.7269 0.962604 11.7168 0.52476 11.3764 0.150149 10.9776-0.0315074 10.5802-0.214467 10.1297-0.240977 9.6917-0.261185 7.71215-0.354512 5.7301-0.381022 3.74794-0.372113 2.75054-0.368419 1.70387-0.341909 0.836837 0.150149-0.79596 1.07484-0.551678 3.47048 1.0773 4.26403 1.70637 4.57052 2.47214 4.54781 3.1543 4.58063 4.42007 4.63995 5.66677 4.68536 6.91728 4.42298" fill="#F5A784" fill-rule="evenodd" transform="matrix(1 0 0 -1 311 268)"/><path d="M31.6564 2.62401C31.5247 1.713 31.1206 0.799527 30.3907 0.254716 29.347-0.530916 27.9274-0.424241 26.6469-0.255464 24.1494 0.0784563 21.6727 0.523968 19.2168 1.07509 18.1938 1.30842 17.1648 1.55662 16.1492 1.8247 14.2914 2.31371 12.475 2.73817 10.6453 3.10554 9.17678 3.40964 7.70218 3.67152 6.17879 3.91971 4.36978 4.21633 0.0767421 4.94488-0.263867 5.00827L0.223183 9.4093C0.223183 9.4093 2.99904 9.53586 6.90143 9.63516 10.2205 9.71949 14.3402 9.79025 18.2573 9.74066 19.1887 9.73446 21.2344 9.68476 21.3456 9.68476 21.005 9.69844 19.4535 13.7098 19.2168 14.2125 19.0288 14.6009 18.5283 15.6124 18.4648 15.7328 18.0339 16.6313 17.6238 17.53 17.3101 18.4918 16.2175 21.8304 15.7659 25.375 15.9954 28.8838 16.1065 30.6028 16.3995 32.3639 17.3027 33.8284 17.9362 34.8474 19.008 35.7485 20.1835 35.6107 22.4173 35.3488 23.8992 31.3958 24.7341 29.6409 25.9927 26.9812 26.8422 24.1501 27.6845 21.3352 28.1288 19.8435 28.5182 18.3428 28.8733 16.8361 29.646 13.6179 30.3064 10.3786 31.1829 7.17276 31.587 5.70198 31.886 4.16053 31.6564 2.62401" fill="#F5A784" fill-rule="evenodd" transform="matrix(1 0 0 -1 302 276)"/><path d="M19.7431 5.61233C18.287 4.73797 16.6922 4.18948 15.1879 3.48085 13.0916 2.49794 11.175 1.20939 9.51281-0.328764 8.06277-0.0544727 6.60659 0.181736 5.10225 0.405605 3.31586 0.673148 1.52219 0.940787-0.256935 1.22848-0.113466 1.51502 0.0588614 1.79046 0.257765 2.04451 1.39804 3.5066 3.14467 4.45028 4.90937 5.19699 5.20472 5.32464 5.50733 5.44554 5.81586 5.56084 9.86961 5.656 15.1469 5.72648 19.7431 5.61233" fill="#E0855C" fill-rule="evenodd" transform="matrix(1 0 0 -1 303 272)"/><path d="M16.7333 1.20202C14.6577 0.340487 12.436-0.17072 10.2008-0.324293 8.97914-0.41521 7.7501-0.395629 6.52715-0.254227L6.32007-0.233377C6.07649-0.206388 5.83406-0.17072 5.59047-0.135052 4.34801 0.0603287 2.83405 0.0467812 1.93136 1.0349 1.348 1.67883 1.02878 2.51211 0.771874 3.33914-0.129555 6.18295-0.525457 9.22214-0.0881182 12.179 0.226065 14.3051 0.985036 16.382 2.19572 18.1554 3.55389 20.145 5.01068 21.1712 7.47484 20.3183 8.9097 19.8218 10.0827 18.7269 10.939 17.4647 13.2411 14.0752 14.3764 9.54781 15.547 5.65693 15.9903 4.17983 16.3789 2.69394 16.7333 1.20202" fill="#A9D13B" fill-rule="evenodd" transform="matrix(1 0 0 -1 314 260)"/><path d="M7.54266 1.33329C6.30755 1.19637 5.16389 0.587501 3.89793 0.571409 2.45765 0.552126 1.22377 1.24312-0.1643 1.51044L-0.252069 1.30596C1.54061-0.812236 5.73455-1.14573 7.65178 0.7856 7.80484 0.940279 7.77991 1.35909 7.54266 1.33329" fill="#99BD36" fill-rule="evenodd" transform="matrix(1 0 0 -1 308 257)"/><path d="M1.77213 10.5614 1.65491 10.6373C-0.641528 8.23618-0.364283 2.91825 0.0594675-0.222564 0.0908231-0.448947 0.394197-0.378912 0.403658-0.171219 0.476821 1.57071 0.376447 3.31606 0.490517 5.05568 0.622336 7.08106 1.34523 8.64333 1.77213 10.5614" fill="#99BD36" fill-rule="evenodd" transform="matrix(1 0 0 -1 320 253)"/><path d="M19.612 4.89905C19.5712 4.04441 19.5304 3.14582 19.1196 2.39369 18.524 1.30836 17.2989 0.765056 16.128 0.410918 12.9107-0.549924 9.42674-0.584097 6.18889 0.327956 6.0112 0.37685 5.83951 0.424377 5.66171 0.480526 4.88827 0.723523 4.10769 1.03728 3.52642 1.61476 2.92353 2.21431 2.60166 3.03467 2.31464 3.84179 1.0344 7.39831-0.0740553 11.2112-0.25185 14.9618-0.368311 17.411 0.493978 19.0055 1.90392 20.014 5.0792 22.297 11.0348 21.6561 14.8406 21.3228 15.8063 21.2398 16.8402 21.0786 17.5583 20.4182 18.1265 19.8956 18.4207 19.1373 18.6464 18.3926 19.1941 16.604 19.4883 14.7677 19.6324 12.9022 19.66 12.4773 19.6876 12.0463 19.7009 11.6214 19.7897 9.38719 19.7009 7.13334 19.612 4.89905" fill="#C07ADE" fill-rule="evenodd" transform="matrix(1 0 0 -1 312 306)"/><path d="M13.6836 0.397778C10.4514 8.26987 7.69273 16.3089 5.50723 24.5085 4.4285 28.552 3.49544 32.6297 2.70387 36.7332 2.30819 38.7843 1.94693 40.8429 1.62261 42.9063 1.36985 44.5073 1.13502 46.1094 0.961427 47.7153 0.930753 48.0011 0.84522 48.3004 0.619293 48.4893 0.394575 48.6782-0.0010994 48.6954-0.176014 48.4623-0.418542 48.1348-0.104553 46.8087-0.0675033 46.3572 0.0129729 45.3267 0.296289 44.2987 0.448226 43.2731 0.754629 41.2072 1.09797 39.145 1.47463 37.089 2.25069 32.8702 3.17243 28.6747 4.23446 24.5122 6.35872 16.1911 9.0893 8.01229 12.4071 0.0591648 12.7197-0.690327 13.9976-0.367773 13.6836 0.397778" fill="#FFFFFF" fill-rule="evenodd" transform="matrix(1 0 0 -1 300 288)"/><path d="M5.76048-0.338422C5.59523-0.288748 5.43546-0.240356 5.2702-0.183312 4.55088 0.0634541 3.82493 0.382327 3.28434 0.96901 2.72364 1.57802 2.4243 2.41158 2.15737 3.23146 0.966718 6.84471-0.0641593 10.7185-0.229511 14.529-0.337822 17.0171 0.464121 18.6371 1.77539 19.6617 1.9217 19.6542 2.08032 19.6195 2.22105 19.5488 3.46864 18.9261 3.25866 15.809 3.3536 14.565 3.53232 12.3583 3.654 10.1379 4.0985 7.98218 4.67824 5.20366 5.77953 2.48849 5.76048-0.338422" fill="#A166BA" fill-rule="evenodd" transform="matrix(1 0 0 -1 312 305)"/><path d="M12.5257 4.10037C13.068 3.40451 12.9703 1.97759 12.7126 1.18407 12.4488 0.384564 11.815-0.220982 10.9735-0.318648 9.01712-0.54804 8.32832 1.63697 8.57138 3.20193 8.5921 3.34837 8.69591 3.43994 8.8156 3.48021 6.96302 3.41187 5.07615 3.60594 3.45558 3.7793 1.95829 3.94656 0.900734 4.41281 0.43417 5.9436-0.164181 7.93339-0.457309 10.6055-0.137361 12.6367L0.0580576 12.6647C0.768842 11.0986 0.879909 9.3396 1.13759 7.65501 1.28421 6.70169 1.32565 5.93624 2.12562 5.31735 2.94022 4.69845 3.95623 4.76079 4.94541 4.70581 8.25144 4.51048 12.0727 4.19067 14.6618 6.54904 14.6898 6.12421 14.7179 5.69339 14.7314 5.26857 14.0707 4.75469 13.3257 4.37139 12.5257 4.10037" fill="#A166BA" fill-rule="evenodd" transform="matrix(1 0 0 -1 317 299)"/><path d="M30.0865 13.6307C30.0865 13.6307 18.1154 11.8851 9.13615 9.87591 9.35117 10.7449 9.56248 11.5723 9.77391 12.3808 6.25369 11.5118 3.18192 11.7098 0.326446 9.48106 0.28105 8.71299-0.0690986 6.25734-0.133012 5.48927-0.216608 4.48646-0.327187 3.57707-0.184651 2.57697-0.104759 2.01691-0.00772465 1.45186 0.249094 0.946107 0.505912 0.43786 0.944524-0.0111882 1.53678-0.190308 3.01367-0.638052 4.7878-0.147402 6.23527 0.205732 9.54037 1.01172 12.8001 2.02202 15.9898 3.22904 19.0983 4.40456 22.0742 5.88781 25.1988 7.01412 27.2618 7.77079 31.6985 10.2769 33.7467 11.0678L30.0865 13.6307" fill="#F5A784" fill-rule="evenodd" transform="matrix(1 0 0 -1 285 277)"/><path d="M4.78466 7.5982C2.92256 7.51022 0.922524 6.6226 0.141458 4.77114-0.396061 3.49213-0.260493 2.01227-0.112939 0.613836-0.0889665 0.382799-0.0613776 0.141133 0.0670607-0.0426338 0.292628-0.370925 0.725681-0.393317 1.10004-0.3854 2.08746-0.365723 3.16735-0.310537 3.9076 0.407679 4.38033 0.867264 4.63587 1.52905 4.92261 2.14628 5.44452 3.27025 6.14044 4.31811 7.00789 5.1545 7.6102 5.73758 9.52024 6.38229 9.75542 7.03096 8.21602 7.46171 6.37552 7.67442 4.78466 7.5982" fill="#E0855C" fill-rule="evenodd" transform="matrix(1 0 0 -1 293 272)"/><path d="M1.66289 1.5533C1.16181 1.64691 0.677434 1.23186 0.328967 0.782663 0.280724 0.719351-0.435966-0.338571-0.142609-0.397799 0.146848-0.45714 0.341769 0.0593408 0.515071 0.299087L0.553393 0.345152C0.549493 0.0408464 0.666667-0.32541 0.831998-0.433426L0.975794-0.383276C1.08406-0.122426 0.984611 0.409712 0.786723 0.613944 1.04566 0.861633 1.32333 0.988143 1.66289 1.10671 1.81754 1.15936 1.83916 1.52176 1.66289 1.5533" fill="#E0855C" fill-rule="evenodd" transform="matrix(1 0 0 -1 317 226)"/><path d="M3.07477 2.4841C1.96784 1.99496 0.792471 1.41041-0.102605 0.486307-0.547084 0.0243154 0.0198249-0.688567 0.499736-0.421957 1.50997 0.141226 2.44174 0.854231 3.47759 1.3705 4.01761 1.63846 3.62944 2.73081 3.07477 2.4841" fill="#D94384" fill-rule="evenodd" transform="matrix(1 0 0 -1 315 217)"/><path d="M2.29979 1.56898C1.54298 1.09306 0.705654 0.810309-0.0530499 0.343586-0.325147 0.176635-0.214922-0.428676 0.11171-0.377525 1.04194-0.232187 1.85048 0.318549 2.6341 0.892073 2.99719 1.15781 2.67626 1.804 2.29979 1.56898" fill="#D94384" fill-rule="evenodd" transform="matrix(1 0 0 -1 316 218)"/></g></svg>