<svg width="65" height="199" xmlns="http://www.w3.org/2000/svg" xmlns:xlink="http://www.w3.org/1999/xlink" overflow="hidden"><defs><clipPath id="clip0"><rect x="459" y="98" width="65" height="199"/></clipPath></defs><g clip-path="url(#clip0)" transform="translate(-459 -98)"><path d="M43.331-0.223819C37.5815-0.223819 31.7372 0.243146 26.4612 0.247926 20.7678 0.253953 15.067 0.245536 9.3748 0.348094 9.10946 0.352874 8.84526 0.354121 8.58358 0.354121 8.26949 0.354121 7.95906 0.351731 7.65115 0.349237 7.33946 0.346847 7.0327 0.344457 6.72835 0.344457 4.17804 0.344457 1.86393 0.520583-0.183573 2.34241-0.427114 2.55969-0.427114 2.99039-0.183573 3.20756 1.8177 4.98959 4.21337 5.25861 6.75393 5.25861 7.30298 5.25861 7.85925 5.24656 8.4192 5.23336 8.97925 5.2212 9.54401 5.20801 10.1101 5.20801 10.2452 5.20801 10.3792 5.20915 10.5143 5.2104 15.8291 5.27316 21.1463 5.29602 26.4612 5.30204 31.7444 5.30807 37.5839 5.77628 43.3347 5.77628 48.2976 5.77628 53.1926 5.42757 57.6017 4.12933 58.9785 3.72513 58.9772 1.82484 57.6017 1.42064 53.1974 0.124898 48.3-0.223819 43.331-0.223819" fill="#DADADA" fill-rule="evenodd" transform="matrix(1 0 0 -1 463 295)"/><path d="M27.6407 129.209C27.6407 129.209 18.2507 17.0613 18.0537 15.0619 17.737 11.8346 17.0681 8.6475 16.8565 5.41908 16.8002 4.58078 16.7794 3.73507 16.8002 2.88225 16.821 2.14218 16.8356 1.32447 16.3415 0.765153 16.004 0.387853 15.4965 0.220362 14.9963 0.095396 12.7289-0.484503 0.218974-0.275844 0-0.142415-0.655552 0.262888-0.316717 1.14245 0.239723 1.4021 2.17689 2.31688 4.27552 3.03021 6.15655 4.03599 8.10108 5.0563 9.81938 6.38359 10.9041 8.52859 11.4325 9.58411 11.3762 15.37 11.0595 22.6446 10.4676 36.285 8.98161 55.1507 8.84711 57.855 8.44592 65.7799 7.57277 71.5657 6.42439 76.199 6.29105 76.7644 6.12842 77.4147 5.95958 78.1414 4.12764 86.4084 1.35998 104.114 4.47975 114.534 5.22704 116.994 6.0232 119.229 6.84022 121.242 7.56539 123.052 8.29067 124.666 8.96697 126.071 9.25557 126.665 9.87562 127.894 9.91849 127.971 11.5169 131.038 12.6799 132.709 12.6799 132.709 12.6799 132.709 13.6376 131.493 16.4969 130.494 17.0607 130.298 17.7015 130.109 18.4133 129.942 18.7864 129.845 19.1741 129.754 19.5751 129.676L19.6522 129.676C20.4985 129.529 21.4279 129.397 22.4773 129.319 23.0765 129.263 23.7101 129.217 24.373 129.194 25.4076 129.159 26.4777 129.166 27.6407 129.209" fill="#F5A784" fill-rule="evenodd" transform="matrix(1 0 0 -1 467 291)"/><path d="M27.2678-0.142415C27.0501-0.275844 14.539-0.484503 12.2628 0.095396 11.7699 0.220362 11.255 0.387853 10.9174 0.765153 10.4318 1.32447 10.4453 2.14218 10.4661 2.88225 10.4881 3.67207 10.4661 4.45582 10.4172 5.23832 10.2276 8.52859 9.53649 11.7776 9.21237 15.0619 9.02161 16.9776-0.375418 129.209-0.375418 129.209 0.773061 129.166 1.82979 129.161 2.80952 129.194 3.53476 129.219 4.17573 129.263 4.7811 129.319 5.83793 129.397 6.76868 129.529 7.61263 129.676L7.68353 129.676C8.09202 129.754 8.47249 129.845 8.85286 129.942 9.56472 130.109 10.2056 130.298 10.7694 130.494 12.5588 131.123 13.6021 131.835 14.1366 132.283 14.4498 132.545 14.588 132.709 14.588 132.709 14.588 132.709 14.7286 132.506 14.9744 132.115 15.4466 131.382 16.3063 129.969 17.3484 127.971L17.4622 127.747C17.7178 127.218 18.0114 126.665 18.3 126.071 18.9764 124.666 19.7017 123.052 20.4209 121.242 21.2441 119.229 22.0403 116.994 22.7803 114.534 25.9077 104.114 23.1398 86.4084 21.3003 78.1414 21.1388 77.4147 20.9701 76.7644 20.8428 76.199 19.6944 71.5657 18.8211 65.7799 18.4199 57.855 18.2854 55.1022 16.7503 35.642 16.1792 21.9664 15.8906 15.0073 15.849 9.55015 16.3626 8.52859 17.3765 6.49518 18.9764 5.2031 20.8012 4.20348 22.7522 3.11401 24.9781 2.37267 27.0281 1.4021 27.5772 1.14245 27.9222 0.262888 27.2678-0.142415" fill="#F5A784" fill-rule="evenodd" transform="matrix(1 0 0 -1 489 291)"/><path d="M17.5697 2.57813C17.5915 1.9301 17.6069 1.21409 17.0903 0.724337 16.7373 0.393962 16.2066 0.247392 15.6836 0.137969 13.313-0.369808 0.233134-0.1871 0.00418474-0.0702653-0.681232 0.284538-0.32696 1.0548 0.254829 1.28207 2.28035 2.08307 4.47459 2.70778 6.4412 3.58847 6.78005 3.53321 7.12661 3.49067 7.46415 3.45993 10.8387 3.15398 13.3206 4.07823 16.5238 4.66569 16.8843 4.73257 17.2526 4.77511 17.6285 4.79954 17.5697 4.06542 17.548 3.32498 17.5697 2.57813" fill="#D94384" fill-rule="evenodd" transform="matrix(1 0 0 -1 467 291)"/><path d="M16.2727-0.0724679C16.0576-0.193122 3.69728-0.381897 1.4485 0.142574 0.961575 0.255574 0.452794 0.406935 0.119364 0.74811-0.360382 1.25387-0.347166 1.99329-0.326561 2.66251-0.304811 3.3767-0.326561 4.08541-0.374952 4.79308 2.59646 4.18632 4.92131 3.2637 8.06662 3.57313 8.67207 3.63672 9.27868 3.73762 9.88403 3.85724 11.8113 2.87207 14.0106 2.20172 16.0358 1.32407 16.5783 1.08929 16.9191 0.293934 16.2727-0.0724679" fill="#D94384" fill-rule="evenodd" transform="matrix(1 0 0 -1 500 291)"/><path d="M38.79 57.0833C38.6312 56.3559 38.4651 55.705 38.34 55.1392 37.21 50.5018 36.3509 44.7109 35.9562 36.7791 35.8455 34.3955 34.6952 19.4488 34.0225 6.59434 33.9948 6.14016 33.807 2.26536 33.7517 0.859208 32.7891 0.643046 32.0683 0.496115 31.818 0.447591 30.0166 0.10395 28.2008-0.147454 26.3778-0.301706 26.2527 1.11783 20.7848 69.5249 20.6392 71.2456 20.4936 69.5249 15.0329 1.24416 14.9211-0.0356609 13.8537 0.10395 12.7864 0.278803 11.7335 0.488899 10.2991 0.768121 8.89238 1.12515 7.49894 1.53802 7.46401 2.41229 7.35333 4.74855 7.33893 5.01334 6.68066 18.1969 5.44007 34.2971 5.32214 36.7791 4.92751 44.7109 4.06829 50.5018 2.93839 55.1392 2.80719 55.705 2.64718 56.3559 2.48116 57.0833 0.886782 64.3994-1.42847 79.1142 0.186435 89.625 0.394528 91.0033 0.672574 92.3049 1.02513 93.5072 1.7603 95.9697 2.54376 98.2064 3.34753 100.221 4.06114 102.033 4.77465 103.649 5.44007 105.055 5.72403 105.649 6.33411 106.879 6.37629 106.957 7.72765 109.586 8.76004 111.195 9.01632 111.594L9.09332 111.698 9.14151 111.643C9.35572 111.397 10.3881 110.355 12.8489 109.481 13.4036 109.286 14.0342 109.096 14.7345 108.929 15.1015 108.831 15.483 108.74 15.8777 108.663L15.9535 108.663C16.7862 108.516 17.7007 108.383 18.7331 108.306 19.3228 108.25 19.946 108.209 20.5983 108.181 21.3106 108.209 21.9424 108.25 22.538 108.306 23.5777 108.383 24.4934 108.516 25.3237 108.663L25.3934 108.663C25.7954 108.74 26.1696 108.834 26.5439 108.929 27.2706 109.111 27.8891 109.293 28.4295 109.481 30.1899 110.111 31.2223 110.817 31.7422 111.272 32.019 111.215 32.2969 111.159 32.5665 111.103 32.8649 110.635 33.3161 109.894 33.8636 108.901 34.1741 108.335 34.5279 107.684 34.9021 106.957L35.014 106.732C35.2655 106.203 35.5543 105.649 35.8383 105.055 36.4206 103.822 37.0367 102.431 37.6613 100.892 37.7443 100.669 37.8346 100.446 37.9249 100.221 38.7346 98.2064 39.518 95.9697 40.246 93.5072 43.3229 83.0788 40.5998 65.3574 38.79 57.0833" fill="#A9D13B" fill-rule="evenodd" transform="matrix(1 0 0 -1 471 270)"/><path d="M37.6347 10.9132C37.431 10.7458 37.22 10.5784 37.0015 10.417 34.1634 8.31433 30.6419 7.27931 27.1278 6.81096 23.6137 6.34262 20.0581 6.40573 16.5159 6.2795 14.5209 6.21764 12.5235 6.0842 10.5346 5.90217 8.7507 5.73477 6.94482 5.51147 5.27082 4.8612 2.82551 3.90382 0.801269 1.98916-0.365273-0.34525-0.154159 1.03189 0.127678 2.33264 0.485175 3.5338 1.23075 5.99444 2.02508 8.22937 2.84022 10.2423 3.56373 12.0525 4.28734 13.6675 4.96209 15.0725 5.25002 15.6658 5.86865 16.895 5.91142 16.9727 7.28161 19.5994 8.32857 21.2072 8.58844 21.6063L8.71539 21.6549C8.93249 21.4098 9.97945 20.3687 12.4747 19.4952 13.0372 19.2998 13.6765 19.1105 14.3867 18.943 14.7589 18.846 15.1457 18.755 15.5459 18.6774L15.6228 18.6774C16.4671 18.5306 17.3944 18.3983 18.4414 18.3206 19.0392 18.2648 19.6713 18.2236 20.3327 18.1957 21.055 18.2236 21.6955 18.2648 22.2995 18.3206 23.3538 18.3983 24.2824 18.5306 25.1243 18.6774L25.195 18.6774C25.6026 18.755 25.982 18.846 26.3615 18.943 26.6215 18.9358 26.8398 18.9224 27.0509 18.9151 28.8288 18.8521 30.5992 19.0681 32.3709 19.028 32.8418 19.0134 33.3117 18.9782 33.7839 18.9151 34.0987 18.3498 34.4574 17.6994 34.8369 16.9727L34.9503 16.7482C35.2054 16.2191 35.4983 15.6658 35.7862 15.0725 36.3768 13.8411 37.0015 12.4505 37.6347 10.9132" fill="#99BD36" fill-rule="evenodd" transform="matrix(1 0 0 -1 471 180)"/><path d="M25.2247 4.78373C24.9832 3.72432 24.579 2.62217 23.7125 1.91781 23.2442 1.53423 22.6761 1.30254 22.0796 1.13152 21.6888 1.01511 21.2772 0.933178 20.8804 0.851245 19.5876 0.584067 18.2959 0.318015 17.0043 0.0507351 16.1317-0.127451 15.2505-0.311469 14.357-0.366091 13.3624-0.435033 12.3617-0.3531 11.3683-0.271167 9.5504-0.113131 7.74122 0.036517 5.92333 0.18729 5.17153 0.256233 4.40869 0.32988 3.68024 0.529343 3.43994 0.594705 3.20452 0.680219 2.97037 0.782405 1.69975 1.35727 0.783961 2.51998 0.280001 3.78611-0.216741 5.05817-0.344854 6.43354-0.36587 7.78753-0.429979 11.1796 0.394528 14.1905 1.0749 17.4674 1.58628 19.9093 2.43796 22.331 4.78826 23.761 6.97339 25.0948 9.76364 24.9511 12.3259 24.6495 13.6742 25.792 15.7201 25.7849 17.4369 25.2932 19.0699 24.8276 20.6105 23.9724 21.7246 22.7348 23.1012 21.2027 23.7976 18.8831 24.3226 16.7013 24.5285 15.8603 24.6985 15.0385 24.876 14.2866 25.6142 11.1796 25.9556 7.92409 25.2247 4.78373" fill="#3B2645" fill-rule="evenodd" transform="matrix(1 0 0 -1 478 125)"/><path d="M18.9606 2.00279C19.0907 1.73546 19.2709 1.44743 19.3497 1.16665 18.953 1.04702 18.535 0.962814 18.1321 0.878611 16.8192 0.604032 15.5077 0.330609 14.1962 0.055925 13.3101-0.127198 12.4153-0.316418 11.5081-0.372553 10.498-0.4433 9.4819-0.359097 8.4732-0.274895 6.62725-0.112586 4.79005 0.041313 2.94421 0.196263 2.18081 0.267116 1.40113 0.330609 0.666509 0.547792L0.652713 0.738273C0.658964 1.30709 1.00558 1.81357 1.19959 2.34822 2.21584 5.13123-0.47229 7.66888-0.37227 10.4251-0.284646 12.732 2.49736 13.4766 4.42845 13.6804 6.90888 13.9344 9.69089 14.2431 11.2552 16.1412 11.7458 16.7307 12.0774 17.4485 12.6681 17.9477 13.8645 18.9596 15.8105 18.7215 17.0357 17.7439 18.2684 16.7601 18.8955 15.2343 19.2421 13.7232 19.7539 11.4797 19.7539 9.12387 19.2346 6.87552 18.8592 5.25821 18.2247 3.50046 18.9606 2.00279" fill="#2C1C33" fill-rule="evenodd" transform="matrix(1 0 0 -1 481 125)"/><path d="M5.73098 15.0872C5.73098 15.0872 5.46154 12.0266 6.43717 9.21197 7.12121 7.2391 7.96768 2.69918 7.44978 1.25678 7.44978 1.25678 7.28851 1.01197 6.97605 0.707194L6.82835 0.577046C6.53073 0.323339 6.12842 0.0490939 5.60426-0.124327L5.47997-0.166392C5.10606-0.281164 4.66804-0.352554 4.1833-0.318177L4.06156-0.305437C3.68998-0.27732 3.2864-0.200879 2.84721-0.055464 2.84721-0.055464 2.2136 4.58276 1.47552 5.96518 1.47552 5.96518 1.15438 3.09445 0.346048 2.75277L-0.244437 2.85085C-0.244437 2.85085-0.239563 5.98166-0.36014 7.37694-0.654164 10.7691 1.29837 13.5595 1.29837 13.5595 1.29837 13.5595 4.26944 17.018 5.73098 15.0872" fill="#F5A784" fill-rule="evenodd" transform="matrix(1 0 0 -1 516 212)"/><path d="M0.641103-0.309873 0.52956-0.297618C0.417921 1.71798 0.00427143 3.66111-0.357538 5.66572L-0.294437 5.69023C0.462965 3.79486 0.661392 1.7388 0.641103-0.309873" fill="#E0855C" fill-rule="evenodd" transform="matrix(1 0 0 -1 519 212)"/><path d="M0.640121-0.270066 0.52606-0.310613C0.413166 1.71525-0.0012641 3.65621-0.359199 5.6661L-0.2993 5.68939C0.456048 3.80739 0.655873 1.76565 0.640121-0.270066" fill="#E0855C" fill-rule="evenodd" transform="matrix(1 0 0 -1 521 212)"/><path d="M0.638088-0.196463 0.501809-0.329005C0.371297 1.68835-0.0225829 3.63674-0.36201 5.64502L-0.302962 5.671C0.40874 3.81484 0.62665 1.81048 0.638088-0.196463" fill="#E0855C" fill-rule="evenodd" transform="matrix(1 0 0 -1 522 211)"/><path d="M22.6147 0.104419 18.2901-0.348166C18.2901-0.348166 17.7633 3.77085 16.9878 8.98355 15.9688 15.842 14.5293 24.5808 13.3335 28.2606 13.127 28.8946 12.8846 29.5783 12.6064 30.3031 10.2567 36.5202 5.66868 45.6075 1.47391 54.3197 1.24631 54.7928 1.01882 55.2671 0.790048 55.7403 0.227386 56.9321-0.107782 58.0477-0.271053 59.1005-0.883132 63.246 1.08932 66.3268 2.64876 68.0619 3.58983 69.1014 4.38755 69.6519 4.38755 69.6519 5.68349 69.5612 7.49278 68.425 8.68989 66.7454 13.6896 59.7756 17.7138 41.6627 19.6443 33.1526 19.8581 32.2331 20.0424 31.4247 20.1995 30.7484 21.3471 25.9337 21.9728 16.4821 22.308 9.34662 22.5355 4.10474 22.6147 0.104419 22.6147 0.104419" fill="#F5A784" fill-rule="evenodd" transform="matrix(1 0 0 -1 499 200)"/><path d="M1.53049 15.0872C1.53049 15.0872 1.79993 12.0266 0.823045 9.21197 0.139011 7.2391-0.706178 2.69918-0.188173 1.25678-0.188173 1.25678-0.0282895 1.01197 0.285438 0.707194L0.433137 0.577046C0.73076 0.323339 1.13306 0.0490939 1.65721-0.124327L1.7815-0.166392C2.15551-0.281164 2.59225-0.352554 3.07688-0.318177L3.2-0.305437C3.57147-0.27732 3.97505-0.200879 4.41295-0.055464 4.41295-0.055464 5.04782 4.58276 5.78473 5.96518 5.78473 5.96518 6.10704 3.09445 6.91536 2.75277L7.50594 2.85085C7.50594 2.85085 7.50096 5.98166 7.62153 7.37694 7.91556 10.7691 5.96188 13.5595 5.96188 13.5595 5.96188 13.5595 2.99085 17.018 1.53049 15.0872" fill="#F5A784" fill-rule="evenodd" transform="matrix(1 0 0 -1 460 212)"/><path d="M-0.635499-0.309873-0.410281-0.297618C-0.187391 1.71798 0.639379 3.66111 1.36237 5.66572L1.23628 5.69023C-0.279728 3.79486-0.671581 1.7388-0.635499-0.309873" fill="#E0855C" fill-rule="evenodd" transform="matrix(1 0 0 -1 463 212)"/><path d="M-0.318084-0.270066-0.203913-0.310613C-0.0909091 1.71525 0.323827 3.65621 0.68104 5.6661L0.62225 5.68939C-0.135001 3.80739-0.33502 1.76565-0.318084-0.270066" fill="#E0855C" fill-rule="evenodd" transform="matrix(1 0 0 -1 462 212)"/><path d="M-0.319484-0.196463-0.183302-0.329005C-0.0538665 1.68835 0.340014 3.63674 0.680516 5.64502L0.621468 5.671C-0.129925 3.83567-0.308143 1.81048-0.319484-0.196463" fill="#E0855C" fill-rule="evenodd" transform="matrix(1 0 0 -1 461 211)"/><path d="M22.5293 59.1005C22.366 58.0477 22.0308 56.9321 21.4681 55.7403 17.1023 46.6105 12.1292 36.8615 9.65077 30.3031 9.37245 29.5783 9.13013 28.8946 8.9236 28.2606 7.65587 24.3449 6.10376 14.6852 5.08464 7.6731 4.40806 3.10161 3.96656-0.348166 3.96656-0.348166L-0.35714 0.104419C-0.35714 0.104419-0.286628 3.65226-0.0800982 8.4403 0.226554 15.6678 0.859777 25.7316 2.05699 30.7484 2.2141 31.4247 2.39964 32.2331 2.61235 33.1526 4.54291 41.6627 8.56731 59.7756 13.5689 66.7454 14.7661 68.425 16.5743 69.5612 17.8716 69.6519 17.8716 69.6519 23.5051 65.7411 22.5293 59.1005" fill="#F5A784" fill-rule="evenodd" transform="matrix(1 0 0 -1 462 200)"/><path d="M30.3617 6.9097C30.836 3.4283 28.6197 1.62798 25.5468 0.864067 20.398-0.425329 15.0047-0.70504 9.75067 0.0235712 6.03663 0.541823 1.52294 0.3873-0.0800175 4.63263-0.617218 6.04847-0.282145 7.63957 0.0312568 9.12361 1.09701 14.134 1.89916 19.2904 1.57128 24.425 1.34748 27.9562 0.239323 32.3633 0.763188 35.8385 0.783713 35.9785 0.804238 36.1123 0.824868 36.2521L0.874462 36.4906C1.04867 37.184 1.46001 37.6608 2.01648 37.9965 2.38542 38.2204 2.81853 38.3809 3.27832 38.494 4.35137 38.758 5.50308 38.7884 6.45516 38.8857 6.62332 38.9039 6.79638 38.921 6.97058 38.9356L7.11093 38.9429C7.49435 38.977 7.8489 38.9989 8.1622 39.0195 9.54854 39.1071 10.3083 39.1035 10.3083 39.23L9.87643 49.4941C9.87643 49.4941 11.062 49.6535 12.5187 49.6255 14.6442 49.5683 17.3299 49.0671 17.5392 46.9225L18.9075 39.3273C18.9075 39.3273 19.6322 39.2787 20.6557 39.1801 21.0319 39.1448 21.4505 39.1035 21.8896 39.0621 22.474 38.9915 23.1031 38.9246 23.7225 38.8224 23.9523 38.786 24.2088 38.7385 24.4471 38.6899 24.9128 38.6193 25.3871 38.5512 25.8541 38.466 27.22 38.2167 28.4528 37.7654 28.7672 36.386 28.9064 35.7474 29.0104 35.1173 29.1011 34.4932 29.331 32.9873 29.4991 31.5021 30.0279 29.9535 30.738 27.8589 30.9401 25.8555 30.0133 23.8508 29.6867 23.1367 29.2402 22.3522 28.8217 21.6867 27.9313 20.2501 28.2373 18.2395 28.3209 16.6143 28.4177 14.7082 28.6693 12.8093 29.2124 10.981 29.6093 9.62238 30.167 8.30376 30.3617 6.9097" fill="#F5A784" fill-rule="evenodd" transform="matrix(1 0 0 -1 477 168)"/><path d="M8.61234-0.338485C4.79481-0.588075 1.7633 0.512678-0.22623 1.59483L-0.387776 4.97129 2.37096 6.62582C4.6513 6.57352 7.51603 6.09404 7.7358 4.04583L8.61234-0.338485" fill="#E0855C" fill-rule="evenodd" transform="matrix(1 0 0 -1 487 125)"/><path d="M18.5552 11.0847C18.3373 13.779 17.9653 16.0656 17.0256 17.253 12.9045 22.4627 4.44202 21.0098 2.80398 16.8282 2.27193 15.4707 2.1684 13.555 2.35201 11.2892 1.26075 11.4374-0.767739 11.3724-0.299755 8.68437 0.0906904 6.44425 1.89378 6.06346 3.22147 6.10026 5.05787 0.224549 10.1777-0.513617 12.7038-0.391222 15.3961-0.261447 19.2191 2.92863 18.5552 11.0847" fill="#F5A784" fill-rule="evenodd" transform="matrix(1 0 0 -1 481 123)"/><path d="M0.106546-0.390298C0.106546-0.390298 0.78462-0.620847 0.626343 0.632629 0.484282 1.76032 0.0164146 1.58285 0.0164146 1.58285 0.0164146 1.58285-0.446777 1.56194-0.331277 0.575947-0.216872-0.410041 0.106546-0.390298 0.106546-0.390298" fill="#3B2645" fill-rule="evenodd" transform="matrix(1 0 0 -1 496 113)"/><path d="M0.111133-0.389874C0.111133-0.389874 0.788668-0.620316 0.63171 0.63316 0.488569 1.76085 0.0210736 1.58338 0.0210736 1.58338 0.0210736 1.58338-0.441749 1.56247-0.326342 0.576478-0.212028-0.410784 0.111133-0.389874 0.111133-0.389874" fill="#3B2645" fill-rule="evenodd" transform="matrix(1 0 0 -1 489 113)"/><path d="M-0.275685-0.083033C0.100727-0.0176729 0.982225-0.180382 1.14053 0.188676 1.273 0.497112 0.565456 2.2488 0.46294 2.55033 0.350028 2.88049 0.238345 3.17628 0.128004 3.46626L0.225377 3.5328 0.46294 3.62334C0.884852 2.41734 1.20671 1.1517 1.60134 0.00868835 1.6351-0.0921163 1.55595-0.204571 1.43264-0.207928 0.874455-0.224021 0.340973-0.350101-0.213304-0.376462-0.398994-0.385644-0.469089-0.117392-0.275685-0.083033" fill="#E0855C" fill-rule="evenodd" transform="matrix(1 0 0 -1 492 116)"/><path d="M-0.278194-0.00114248C0.226525 0.434797 1.19098 0.611066 1.59312-0.175453 1.66701-0.319406 1.58309-0.548719 1.46788-0.548719 1.20975-0.548719 0.976862-0.376367 0.717545-0.362983 0.436978-0.347805 0.175179-0.463522-0.0853244-0.609434-0.320803-0.742125-0.499865-0.194385-0.278194-0.00114248" fill="#3B2645" fill-rule="evenodd" transform="matrix(1 0 0 -1 495 110)"/><path d="M-0.33409-0.172457C-0.0967519 0.618521 1.07365 0.757376 1.59522 0.305046 1.7133 0.200592 1.64913-0.0110491 1.52759-0.0626495 1.23991-0.18305 0.923487-0.073243 0.621976-0.123476 0.357192-0.16585 0.150854-0.312678-0.0922105-0.426358-0.217099-0.484565-0.381084-0.327144-0.33409-0.172457" fill="#3B2645" fill-rule="evenodd" transform="matrix(1 0 0 -1 488 110)"/><path d="M0.044495 1.26249C0.653647 0.876378 1.11895 0.409258 1.81899 0.417891 2.36354 0.42432 2.94046 0.842212 3.4629 0.607641L3.55834 0.309148C3.18986-0.571822 2.16243-0.723181 1.51814-0.689015 0.823916-0.652829-0.00391859-0.339273-0.388446 0.567046-0.568955 0.995775-0.256352 1.45224 0.044495 1.26249" fill="#E0855C" fill-rule="evenodd" transform="matrix(1 0 0 -1 491 119)"/><path d="M3.08515 8.5104 0.224848 6.03157C-0.100306 4.45834-0.56151 2.98975-0.252853 1.40935-0.153565 0.897612 0.00254584 0.371631 0.363138-0.000922415 0.674138-0.323358 1.17791-0.491135 1.58463-0.344778L1.77262-0.249564C2.15806 0.0134263 2.26692 0.528749 2.33189 0.994056 2.45724 1.8806 2.54115 2.7779 2.79065 3.63718 3.05674 4.54986 3.60888 5.52701 4.31367 6.16603 5.12243 6.90151 6.32376 6.95265 7.28273 7.39418 7.95198 7.70237 8.41318 8.49493 9.02204 8.73178 9.75871 9.01619 11.0819 8.29261 11.7653 8.03198 12.8744 7.60715 14.33 7.02757 15.0608 6.02675 15.9098 4.8641 16.9006 3.00994 17.2719 1.62355 17.3121 1.47125 17.6716 0.581121 17.8088 0.504868 18.5644 0.0859895 18.426 3.12063 18.517 3.55386 18.7808 4.79861 18.6388 6.13508 18.0842 7.28226 17.1785 9.15906 15.5136 10.0551 13.5769 10.4776 12.5304 10.7061 11.6613 10.5431 10.5948 10.5764 9.21604 10.618 7.69536 10.6454 6.37223 10.0622 5.25848 9.572 4.2155 8.99959 3.08515 8.5104" fill="#3B2645" fill-rule="evenodd" transform="matrix(1 0 0 -1 482 112)"/><path d="M1.50353 2.60761C0.870629 2.37135 0.428071 1.73377 0.101288 1.22626-0.21172 0.73692-0.528766 0.176471-0.370243-0.392491L-0.20887-0.392491C0.028261 0.163183 0.195096 0.715225 0.546696 1.23228 0.855548 1.6855 1.33254 2.05671 1.5876 2.53287L1.50353 2.60761" fill="#E0855C" fill-rule="evenodd" transform="matrix(1 0 0 -1 489 119)"/><path d="M0.731465 1.78463C0.546994 2.1646 0.290835 2.48843-0.198599 2.64719-0.353182 2.69686-0.484647 2.50957-0.362639 2.42809 0.681261 1.73277 0.717805 0.530623 1.39428-0.344604L1.58949-0.280077C1.45266 0.39619 1.0432 1.14227 0.731465 1.78463" fill="#E0855C" fill-rule="evenodd" transform="matrix(1 0 0 -1 495 119)"/><path d="M22.5235 51.0928C22.3582 50.0397 22.0189 48.9237 21.4493 47.7315 17.0303 38.5986 11.9966 28.8461 9.4879 22.2856 9.2063 21.5606 8.96091 20.8767 8.75187 20.2424 7.46869 16.3254 5.89765 6.66244 4.8661-0.352038 3.17863-0.359231 1.31207-0.120821-0.361602 0.415419-0.0512108 7.64538 0.589732 17.7126 1.80154 22.7311 1.96056 23.4076 2.14837 24.2163 2.36367 25.1361 4.31777 33.6491 8.39134 51.7682 13.4538 58.7403 14.6656 60.4205 16.4958 61.5571 17.809 61.6479 17.809 61.6479 23.5111 57.7357 22.5235 51.0928" fill="#D94384" fill-rule="evenodd" transform="matrix(1 0 0 -1 462 192)"/><path d="M19.6296 0.103365C18.0293-0.324219 16.3613-0.4506 14.7135-0.281743L14.5225-0.261133C13.5442 6.62436 12.1623 15.3976 11.0144 19.0918 10.8161 19.7283 10.5894 20.4171 10.3163 21.1423 10.2297 21.3731 9.8652 22.3595 9.74179 22.6669 9.47944 23.3617 9.19327 24.0469 8.91548 24.7369 7.41848 28.391 5.48102 32.6378 3.43079 37.0597L3.29429 37.3537C2.83605 38.3474-0.212558 44.917-0.37052 45.2535-0.206628 45.5888-0.0487688 45.9313 0.100809 46.2738L0.183931 46.4767C0.546067 47.3246 0.853505 48.1835 1.03161 49.0946 1.10635 49.4652 1.15379 49.843 1.18108 50.2207 1.2227 50.6617 1.22985 51.1088 1.2227 51.5497 1.1954 53.8311 0.689715 56.1319 0.731225 58.4351 0.737155 58.638 0.744312 58.8408 0.757296 59.0498 1.1681 59.526 1.55038 59.8966 1.84483 60.1698 2.20093 60.4845 2.42648 60.6461 2.42648 60.6461 3.67064 60.5549 5.4074 59.4143 6.55659 57.7281 6.85697 57.2871 7.15848 56.7976 7.45886 56.2668 11.8347 48.4642 15.3356 32.0086 17.0724 24.0032 17.2778 23.0799 17.4547 22.2684 17.6054 21.5894 18.7072 16.7557 19.3078 7.26694 19.6296 0.103365" fill="#D94384" fill-rule="evenodd" transform="matrix(1 0 0 -1 501 191)"/><path d="M10.5153-0.0769137 10.4441-0.360171C10.3669-0.166956 10.2958 0.0334947 10.2172 0.226813 10.1044 0.52444 9.98667 0.819792 9.86406 1.11142 7.86275 5.9177 5.61992 10.6532 3.34519 15.3334L3.2042 15.6239C2.73075 16.6058 0.895043 20.3738 0.838647 20.4843 0.513686 21.1205 0.165385 21.7626-0.0945208 22.4204-0.484432 23.4071-0.463627 23.5812-0.0945208 24.4383L-0.00866 24.6387C0.463416 25.7659 0.492881 26.6853 0.66946 27.8545 0.761447 28.4691 0.909828 29.0572 1.06434 29.6515 1.2764 30.4605 1.48857 31.2624 1.53029 32.1267 1.63579 34.1384 1.2482 36.2271 1.70687 38.1692 2.07481 38.4802 2.30779 38.6398 2.30779 38.6398 3.59285 38.5498 5.38694 37.4226 6.574 35.7566 6.88417 35.3209 7.19572 34.837 7.50601 34.3125 7.49861 34.0209 7.49861 33.7375 7.49861 33.4543 7.51202 29.8939 8.4171 26.4297 9.03883 22.945 9.62496 19.6824 9.68136 16.4954 9.75243 13.1908 9.82234 9.86459 10.048 6.53953 10.4441 3.24206 10.5778 2.13539 10.7262 1.01549 10.5153-0.0769137" fill="#BF3B75" fill-rule="evenodd" transform="matrix(1 0 0 -1 501 169)"/><path d="M30.3617 7.01421C30.836 3.48288 28.6197 1.65669 25.5468 0.881797 20.398-0.426234 15.0047-0.709965 9.75067 0.029117 6.03663 0.554816 1.52294 0.398073-0.0800175 4.70441-0.617218 6.1407-0.282145 7.75457 0.0312568 9.25994 1.09701 14.3424 1.89916 19.5729 1.57128 24.7812 1.34748 28.3632 0.239323 32.8336 0.763188 36.3589 0.783713 36.5008 0.804238 36.6365 0.824868 36.7783L0.874462 37.0202C1.04867 37.7236 1.46001 38.2073 2.01648 38.5478 2.38542 38.7749 2.81853 38.9377 3.27832 39.0524 4.35137 39.3202 5.50308 39.351 6.45516 39.4498 6.62332 39.4682 6.79638 39.4856 6.97058 39.5003L7.11093 39.5078C7.49435 39.5423 7.8489 39.5632 8.1622 39.5855 9.11668 38.2135 9.32599 35.9405 10.1209 34.6598 11.2278 32.8842 12.9638 31.4553 14.9914 31.0358 17.0117 30.6237 19.3043 31.3553 20.502 33.068 21.7916 34.9164 21.6247 37.3386 21.8896 39.6287 22.474 39.5571 23.1031 39.4893 23.7225 39.3856 23.9523 39.3486 24.2088 39.3004 24.4471 39.2511 24.9128 39.1795 25.3871 39.1104 25.8541 39.0241 27.22 38.7711 28.4528 38.3133 28.7672 36.9141 28.9064 36.2663 29.0104 35.6271 29.1011 34.9941 29.331 33.4666 29.4991 31.96 30.0279 30.3893 30.738 28.2645 30.9401 26.2323 30.0133 24.1987 29.6867 23.4745 29.2402 22.6786 28.8217 22.0037 27.9313 20.5465 28.2373 18.5068 28.3209 16.8583 28.4177 14.9248 28.6693 12.9987 29.2124 11.1441 29.6093 9.76587 30.167 8.4283 30.3617 7.01421" fill="#D94384" fill-rule="evenodd" transform="matrix(1 0 0 -1 477 168)"/><path d="M6.30632 1.05366C4.96333 0.806244 4.01526 0.229672 2.55213 0.510392 1.47357 0.717367 0.724107 1.52222-0.294377 1.69589L-0.342909 1.66258C-0.247038 0.582051 1.49327-0.0237412 2.5394-0.207583 3.81427-0.42969 5.71857-0.315593 6.58459 0.634577 6.75903 0.828507 6.6008 1.10714 6.30632 1.05366" fill="#BF3B75" fill-rule="evenodd" transform="matrix(1 0 0 -1 483 149)"/><path d="M2.15839 8.67506C1.87268 10.5827 1.90623 13.158 0.0126495 14.5483-0.228379 14.7237-0.576378 14.5029-0.432696 14.2758 0.977038 12.0476 1.04565 9.39929 1.20047 6.95028 1.34745 4.63504 1.19249 2.35012 1.10147 0.0361841 1.0792-0.550585 2.12966-0.508859 2.22233 0.0361841 2.70122 2.87376 2.58628 5.83749 2.15839 8.67506" fill="#BF3B75" fill-rule="evenodd" transform="matrix(1 0 0 -1 477 147)"/><path d="M5.09567 16.6769 4.95006 16.6579C4.5305 15.6503 4.63565 14.5478 4.59414 13.4704 4.53661 12.0337 4.43873 10.6017 4.13897 9.19108 3.61174 6.71127 2.48003 4.86807 0.867559 2.96433 0.668107 7.42966 0.725635 11.9057 0.3831 16.3567 0.359815 16.6531-0.103783 16.6981-0.136866 16.3567-0.656833 11-0.196818 5.42751 0.183648 0.071972 0.220419-0.453169 1.06943-0.456742 1.0315 0.071972 0.981351 0.745242 0.939732 1.41739 0.905489 2.09066L1.16489 2.15712C3.18228 3.61146 4.31145 6.11619 4.88041 8.43012 5.46391 10.8033 6.11727 14.3866 5.09567 16.6769" fill="#99BD36" fill-rule="evenodd" transform="matrix(1 0 0 -1 492 192)"/><path d="M7.64577 0.745555C7.61925 0.460213 7.58445 0.174872 7.54955-0.110549 6.53088-0.232556 5.41599-0.179297 4.46713-0.173844 3.47611-0.168313 2.49235-0.121533 1.51573-0.0260766 1.12131 0.0115369 0.345633 0.174872-0.319532 0.211537-0.332686 0.406954-0.339936 0.603319-0.354333 0.803319 0.366037 0.846464 1.25358 0.666614 1.84168 0.634532 3.1514 0.571237 4.46713 0.555591 5.77685 0.607902 6.39975 0.634532 7.02276 0.719874 7.64577 0.745555" fill="#99BD36" fill-rule="evenodd" transform="matrix(1 0 0 -1 479 266)"/><path d="M8.59044 2.71748C8.55968 2.20933 8.53561 1.70785 8.51279 1.20777 5.67827 0.198135 2.54939-0.475852-0.31601-0.23266-0.34677 0.119373-0.37753 0.463096-0.409557 0.808223 1.47118 0.902083 3.30526 1.11274 5.16192 1.59784 6.32573 1.90353 7.45739 2.31127 8.59044 2.71748" fill="#99BD36" fill-rule="evenodd" transform="matrix(1 0 0 -1 497 266)"/><path d="M0.978428 1.09991C0.609908 1.45293 0.169817 1.69937-0.305506 1.5483L-0.315073 1.46658C0.0192263 1.23486 0.386643 1.0503 0.689021 0.759161 0.403753 0.624207 0.196587 0.149677 0.264937-0.174855 0.293731-0.30981 0.472103-0.343308 0.528771-0.214434 0.604572-0.0409666 0.661239 0.124927 0.79472 0.253801L0.977416 0.41852C1.05322 0.307036 1.12056 0.189364 1.17713 0.0642236 1.26259-0.125247 1.29359-0.275137 1.4452-0.406465L1.66312-0.302448C1.79771 0.190644 1.27749 0.813677 0.978428 1.09991" fill="#E0855C" fill-rule="evenodd" transform="matrix(1 0 0 -1 482 115)"/></g></svg>