<svg width="75" height="193" xmlns="http://www.w3.org/2000/svg" xmlns:xlink="http://www.w3.org/1999/xlink" overflow="hidden"><defs><clipPath id="clip0"><rect x="197" y="424" width="75" height="193"/></clipPath></defs><g clip-path="url(#clip0)" transform="translate(-197 -424)"><path d="M46.4597 0.0168306C40.319 0.0168306 34.0776 0.483827 28.4422 0.488503 22.3631 0.494632 16.2765 0.487048 10.1974 0.589798 9.9159 0.593122 9.63687 0.596031 9.36038 0.596031 9.0224 0.596031 8.68811 0.593122 8.35743 0.590837 8.02558 0.587408 7.69616 0.585123 7.37045 0.585123 4.64801 0.585123 2.17751 0.760909-0.00910337 2.58401-0.268444 2.7998-0.268444 3.23147-0.00910337 3.44871 2.12828 5.23047 4.68612 5.4981 7.39871 5.4981 7.98249 5.4981 8.57495 5.48636 9.17112 5.4741 9.76961 5.4609 10.3719 5.44906 10.9767 5.44906 11.1217 5.44906 11.268 5.44999 11.4143 5.45145 17.0889 5.51409 22.7663 5.53674 28.4422 5.54194 34.0838 5.54765 40.3215 6.01693 46.462 6.01693 51.7607 6.01693 56.9869 5.66734 61.6944 4.36899 63.1644 3.96381 63.1631 2.06518 61.6944 1.66093 56.993 0.365598 51.7644 0.0168306 46.4597 0.0168306" fill="#DADADA" fill-rule="evenodd" transform="matrix(1 0 0 -1 205 616)"/><path d="M15.296 0.182837C14.0924-0.643142 2.75825 1.69062 2.64916 2.46114 2.54113 3.27821 2.64916 2.46114 2.55931 3.11693L2.53141 3.28754C2.09706 6.482-0.212945 18.0944-0.212945 18.0944-0.212945 18.0944 5.56216 21.8724 7.78721 18.8128 7.78721 18.8128 6.33975 4.45255 8.99069 3.17943 9.09873 3.12533 9.21639 3.07081 9.36204 3.00831 10.7815 2.39004 13.6762 1.43906 15.1152 1.39346 15.1152 1.39346 16.4983 1.00705 15.296 0.182837" fill="#F5A784" fill-rule="evenodd" transform="matrix(1 0 0 -1 244 614)"/><path d="M-0.190397 3.63635C-0.0852309 2.88195 0.509962 2.28487 1.18428 1.95185 1.85626 1.63006 2.61439 1.53284 3.3537 1.43458 6.30607 1.02784 9.02238 0.0532014 12.0657 0.0148469 13.8855-0.00061862 17.6068 0.0854727 17.791 2.63316L17.7899 2.76461C17.7804 3.00412 17.7213 3.51665 17.3989 4.07217 16.9241 4.90875 15.8495 5.82112 13.4864 5.97546 12.9774 6.00784 12.5181 6.09197 12.1117 6.20786 11.8933 6.27157 11.6866 6.33241 11.493 6.41973L11.324 6.5049C10.9887 6.65677 10.704 6.84483 10.4537 7.03897L10.371 7.10104C10.1088 7.32003 9.88211 7.5449 9.68836 7.7941L9.63404 7.85174C9.42148 8.10661 9.24786 8.33993 9.07547 8.57325 8.52401 9.36261 8.11535 10.0066 7.32528 10.0137 5.46058 10.0211 2.98288 8.92917 3.38208 7.07444 3.38208 7.07444 1.13465 6.77276 0.619806 8.05134 0.285595 8.86462 0.00915368 8.0865-0.0569562 7.61078-0.171479 6.79338 0.0823831 5.95855-0.0451582 5.10991-0.0651945 4.99536-0.0864514 4.88968-0.105369 4.77606-0.171479 4.42159-0.238809 4.07692-0.195075 3.72987L-0.190397 3.63635" fill="#9D9D9C" fill-rule="evenodd" transform="matrix(1 0 0 -1 246 615)"/><path d="M-0.204489 3.58673C-0.0992417 2.84321 0.496412 2.25475 1.17126 1.92663 1.84376 1.60939 2.60247 1.51367 3.34236 1.41673 6.29711 1.01585 9.01542 0.0552789 12.0611 0.0174779 13.8824 0.00233716 17.6065 0.0870846 17.7909 2.59811L17.7897 2.72767C17.7802 2.96362 17.7211 3.46875 17.3984 4.01626L17.3595 3.90885C16.6515-0.627782 8.42567 1.09369 5.49697 1.74586 3.5268 2.19663 1.67001 2.98516-0.209171 3.67889L-0.204489 3.58673" fill="#3B2645" fill-rule="evenodd" transform="matrix(1 0 0 -1 246 615)"/><path d="M0.186985 0.0442386C0.830912 0.409833 1.36738 1.20434 1.937 1.76955 2.23792 2.07135 2.54188 2.35252 2.82614 2.67209 2.64446 2.74136 2.47439 2.81613 2.31417 2.91713L2.17447 3.01562C2.00053 2.86848 1.83442 2.71489 1.66149 2.56024 1.06149 1.99932 0.296466 1.42339-0.122777 0.590961-0.279046 0.288207-0.0484712-0.0926507 0.186985 0.0442386" fill="#3B2645" fill-rule="evenodd" transform="matrix(1 0 0 -1 255 611)"/><path d="M0.232921 0.0185153C1.18245 0.204089 1.91191 1.01203 2.67627 1.54203 2.99917 1.76779 3.40451 1.98923 3.77251 2.24214L3.68242 2.30547C3.39675 2.52891 3.14976 2.75835 2.93867 3.01262 2.64668 2.83662 2.36999 2.63527 2.11524 2.47642 1.29946 1.95873 0.185273 1.42568-0.200676 0.53526-0.310156 0.281411-0.0694775-0.0349265 0.232921 0.0185153" fill="#3B2645" fill-rule="evenodd" transform="matrix(1 0 0 -1 253 610)"/><path d="M0.302711 0.182837C1.50509-0.643142 12.8408 1.69062 12.9489 2.46114 13.0568 3.27821 12.9489 2.46114 13.0398 3.11693L13.0665 3.28754C13.5009 6.482 15.811 18.0944 15.811 18.0944 15.811 18.0944 10.0369 21.8724 7.8105 18.8128 7.8105 18.8128 9.25802 4.45255 6.60698 3.17943 6.49904 3.12533 6.38127 3.07081 6.23687 3.00831 4.8161 2.39004 1.92128 1.43906 0.483481 1.39346 0.483481 1.39346-0.900923 1.00705 0.302711 0.182837" fill="#F5A784" fill-rule="evenodd" transform="matrix(1 0 0 -1 212 614)"/><path d="M35.7975 1.7205C35.7975 1.7205 28.8352 0.321107 24.8979 1.33117L17.707 82.8386 17.592 82.8532 17.493 82.8386 11.1078 0.378642C11.1078 0.378642 3.24669-0.771851 0.172702 0.705618 0.172702 0.705618-0.898365 48.3415 0.578656 75.7236 0.69365 77.8263 0.835392 79.8414 0.985874 81.7727 1.27073 85.2955 1.60581 88.5324 1.9628 91.4638 2.04104 92.0394 2.49838 95.454 2.65487 96.5187 2.78324 97.3426 2.90434 98.1237 3.03271 98.8758 4.31049 106.721 5.53688 110.952 5.53688 110.952L22.022 109.873 31.4751 110.952C31.4751 110.952 32.3518 106.941 33.2798 98.4353 33.2946 98.2929 33.3153 98.1445 33.3288 97.9948 33.4644 96.7037 33.6076 95.3043 33.7507 93.8076 34.0649 90.3698 34.3645 86.3955 34.6347 81.8579 34.7777 79.4375 34.9135 76.8602 35.0272 74.1198 35.3634 66.0056 35.548 56.4712 35.4698 45.4389 35.405 36.8981 35.7975 1.7205 35.7975 1.7205" fill="#3B2645" fill-rule="evenodd" transform="matrix(1 0 0 -1 218 602)"/><path d="M33.7975-0.061161C32.8719-0.118259 31.9376-0.0536763 31.04 0.135046 28.1981 0.722278 25.6469 2.27173 23.1384 3.77146 21.0793 5.00184 18.9568 6.23351 16.662 6.89281 16.491 6.9437 16.3201 6.9946 16.1491 7.03801 15.8278 7.11008 15.5006 7.18204 15.1733 7.23294 12.2728 7.70469 9.32341 7.08142 6.39483 6.8356 3.74466 6.61716 1.4218 6.7475-0.202468 7.74692 0.0821441 11.3412 0.416716 14.6438 0.773375 17.6346 0.851522 18.2219 1.30821 21.7057 1.46461 22.792 2.05571 23.3867 2.69687 23.9293 3.37338 24.3998 8.04108 27.6813 14.068 28.2896 19.7115 27.7396 23.0175 27.4205 26.288 26.7476 29.4523 25.7183 30.3207 25.4353 31.1975 25.1162 32.0524 24.7474 32.067 24.6022 32.0878 24.4507 32.1012 24.298 32.2368 22.9807 32.3797 21.553 32.5226 20.0259 32.8364 16.5185 33.1356 12.4636 33.4055 7.83385 33.5485 5.36442 33.684 2.73482 33.7975-0.061161" fill="#2F1D36" fill-rule="evenodd" transform="matrix(1 0 0 -1 220 528)"/><path d="M26.7564 63.3648C27.9567 62.6379 27.5349 62.2566 27.7605 60.8727 28.4606 56.5898 22.0891 30.116 19.8921 25.209 15.9995 16.5132 4.71663 1.68573 4.71663 1.68573 4.71663 1.68573-0.161652-2.16449-0.186148 1.42835-0.186148 1.42835 10.5781 25.7398 11.7134 29.2591 12.8486 32.7772 16.1835 46.8434 17.212 53.0974 18.1119 58.5694 22.4997 65.9451 26.7564 63.3648" fill="#F5A784" fill-rule="evenodd" transform="matrix(1 0 0 -1 200 521)"/><path d="M20.8121 43.791 20.8121 43.6993C20.8265 42.8191 20.8121 41.8918 20.757 40.9199 20.7354 40.3302 20.6935 39.7249 20.6383 39.1051 20.6168 38.8881 20.5964 38.6698 20.582 38.4576 20.4285 36.7779 20.2044 35.0258 19.9382 33.2387 19.9107 33.0265 19.8819 32.8095 19.8472 32.6056 19.6169 31.0923 19.358 29.573 19.0786 28.0608 19.0356 27.8208 18.1616 23.3207 17.8475 21.8206 17.5873 20.5618 17.266 19.3234 16.9101 18.1127 16.693 17.3747 16.4688 16.6572 16.2314 15.953 16.12 15.6359 16.0145 15.32 15.8958 15.0113 15.5877 14.1527 15.2664 13.3086 14.9308 12.4923 14.5951 11.6687 14.245 10.8668 13.8961 10.1011 13.7415 9.76953 13.5953 9.43192 13.4346 9.10749 12.0632 6.23159 10.6797 3.87057 9.67879 2.2499 9.41737 1.82785 9.18001 1.46251 8.97858 1.15262 8.44997 0.338653 8.13229-0.107484 8.13229-0.107484L-0.182743 5.85773C-0.182743 5.85773 0.355575 7.42056 1.31338 9.71283 1.44646 10.0444 1.58677 10.3966 1.74732 10.7546 2.38392 12.2391 3.1596 13.9489 4.05504 15.6926 4.181 15.9326 4.30686 16.1858 4.43994 16.4378L4.48186 16.5306C5.18083 17.8667 5.75497 19.5127 6.22257 21.2093 6.32808 21.5469 6.41192 21.8761 6.49586 22.221 7.00661 24.2336 7.36982 26.2738 7.62153 27.9547 7.66355 28.1874 7.69226 28.4117 7.72705 28.6312 7.77619 28.9532 7.81698 29.2486 7.85291 29.538 8.00643 30.6425 8.18143 31.7399 8.40557 32.8299 8.46793 33.1181 8.53143 33.4148 8.61537 33.7102 8.77602 34.4904 8.97146 35.2646 9.18125 36.0375 9.24475 36.2557 9.97841 38.7458 10.0144 38.8591 10.1044 39.1413 10.1954 39.415 10.2865 39.6827 10.9795 41.8568 11.6712 43.6354 12.3222 45.0993 12.4551 45.3948 12.5811 45.6829 12.7129 45.9578 13.4346 47.4773 14.1119 48.5951 14.721 49.4403 14.9032 49.6996 15.0854 49.9251 15.2533 50.1374 16.0433 51.0718 16.6847 51.5095 17.133 51.7074 17.5873 51.9244 17.8475 51.8906 17.8475 51.8906 18.6231 51.5589 19.2321 50.9103 19.6804 50.024 19.7919 49.8057 19.9034 49.5597 19.9946 49.3065 20.1899 48.7928 20.3399 48.2309 20.4633 47.6111 20.6911 46.4656 20.799 45.191 20.8121 43.791" fill="#C6C6C6" fill-rule="evenodd" transform="matrix(1 0 0 -1 204 510)"/><path d="M12.8119 3.96443C12.8119 3.96443 11.4021 0.585376 10.1562-0.0178367 8.90915-0.620945 1.19585 2.93616 0.164578 4.46709-0.867891 5.99917 0.694726 7.91405 0.694726 7.91405L12.8119 3.96443" fill="#9D9D9C" fill-rule="evenodd" transform="matrix(1 0 0 -1 203 511)"/><path d="M5.81526 29.2263C5.79408 28.6177 5.75293 27.993 5.69872 27.3533 5.67764 27.1293 5.65757 26.904 5.64349 26.685 5.4928 24.9514 5.27279 23.1431 5.01164 21.2987 4.98448 21.0796 4.95631 20.8556 4.92215 20.6453 4.69627 19.0834 4.44211 17.5153 4.16789 15.9546 4.12553 15.707 3.26769 11.0624 2.95941 9.51413 2.70414 8.21487 2.38877 6.93672 2.03925 5.68719 1.82624 4.92556 1.60623 4.18504 1.37325 3.45823 1.2638 3.1309 1.16023 2.80485 1.0438 2.4863 0.741399 1.60012 0.426031 0.728946 0.0965764-0.113506-0.308274 4.083-0.940125 16.6727 3.60424 32.8865 3.60424 32.8865 4.68918 31.6307 5.81526 29.2263" fill="#9D9D9C" fill-rule="evenodd" transform="matrix(1 0 0 -1 219 498)"/><path d="M-0.190334 4.49068C-0.218435 3.1108-0.0435657 1.65312 0.721613 0.551075 0.964611 0.200591 1.29555-0.121693 1.69815-0.158673 2.07842-0.193129 2.44231 0.0375284 2.70168 0.342035 2.96105 0.644019 3.13713 1.01733 3.33899 1.3677 4.1347 2.7477 5.36828 3.82307 6.78138 4.36833 7.10889 4.49452 7.45034 4.59515 7.73791 4.80792 8.16285 5.12142 8.41869 5.64123 8.58891 6.16618 8.77318 6.73065 8.87759 7.34734 8.75205 7.9309 8.48671 9.16802 7.30256 9.88929 6.18521 10.2638 5.23445 10.5824 4.24507 10.762 3.25095 10.7977 2.68641 10.8169 1.64417 10.971 1.17708 10.5136 0.610122 9.95809 0.393001 8.56032 0.21702 7.79329-0.0307285 6.71276-0.167996 5.60304-0.190334 4.49068" fill="#3B2645" fill-rule="evenodd" transform="matrix(1 0 0 -1 230 442)"/><path d="M17.7992 3.63635C17.694 2.88195 17.1 2.28487 16.4256 1.95185 15.7524 1.63006 14.9941 1.53284 14.2549 1.43458 11.3022 1.02784 8.58582 0.0532014 5.54222 0.0148469 3.72224-0.00061862 0.000813716 0.0854727-0.182272 2.63316L-0.181052 2.76461C-0.172813 3.00412-0.113818 3.51665 0.208616 4.07217 0.68464 4.90875 1.75813 5.82112 4.12147 5.97546 4.63045 6.00784 5.08989 6.09197 5.49624 6.20786 5.71472 6.27157 5.92141 6.33241 6.11507 6.41973L6.28392 6.5049C6.61937 6.65677 6.90519 6.84483 7.15439 7.03897L7.23708 7.10104C7.50042 7.32003 7.72715 7.5449 7.92091 7.7941L7.97523 7.85174C8.18781 8.10661 8.36022 8.33993 8.53384 8.57325 9.08422 9.36261 9.49403 10.0066 10.2841 10.0137 12.1479 10.0211 14.6257 8.92917 14.2265 7.07444 14.2265 7.07444 16.4752 6.77276 16.989 8.05134 17.3232 8.86462 17.5996 8.0865 17.6657 7.61078 17.7814 6.79338 17.5263 5.95855 17.6551 5.10991 17.674 4.99536 17.6953 4.88968 17.7153 4.77606 17.7803 4.42159 17.8475 4.07692 17.8039 3.72987L17.7992 3.63635" fill="#9D9D9C" fill-rule="evenodd" transform="matrix(1 0 0 -1 209 615)"/><path d="M17.8129 3.58673C17.7077 2.84321 17.1132 2.25475 16.4382 1.92663 15.7645 1.60939 15.0057 1.51367 14.2658 1.41673 11.3109 1.01585 8.59242 0.0552789 5.54648 0.0174779 3.7251 0.00233716 0.000814341 0.0870846-0.182412 2.59811L-0.181191 2.72767C-0.172946 2.96362-0.113906 3.46875 0.208777 4.01626L0.247865 3.90885C0.956953-0.627782 9.18343 1.09369 12.1123 1.74586 14.0826 2.19663 15.9383 2.98516 17.8176 3.67889L17.8129 3.58673" fill="#3B2645" fill-rule="evenodd" transform="matrix(1 0 0 -1 209 615)"/><path d="M3.31905 0.0442386C2.46059 0.409833 1.7453 1.20434 0.987041 1.76955 0.58446 2.07135 0.179299 2.35252-0.199832 2.67209 0.0425245 2.74136 0.269172 2.81613 0.482805 2.91713L0.669172 3.01562C0.902328 2.86848 1.12258 2.71489 1.35316 2.56024 2.15304 1.99932 3.17318 1.42339 3.73083 0.590961 3.94188 0.288207 3.6331-0.0926507 3.31905 0.0442386" fill="#3B2645" fill-rule="evenodd" transform="matrix(1 0 0 -1 214 611)"/><path d="M3.34212 0.0185153C2.39138 0.204089 1.66303 1.01203 0.897557 1.54203 0.574547 1.76779 0.170536 1.98923-0.198681 2.24214L-0.108593 2.30547C0.178292 2.52891 0.425287 2.75835 0.636268 3.01262 0.927143 2.83662 1.20505 2.63527 1.45847 2.47642 2.27547 1.95873 3.38844 1.42568 3.7745 0.53526 3.88387 0.281411 3.64319-0.0349265 3.34212 0.0185153" fill="#3B2645" fill-rule="evenodd" transform="matrix(1 0 0 -1 216 610)"/><path d="M8.52331 13.68C8.52331 13.68 8.43511 11.923 8.56985 9.73318 8.70969 7.54091 9.0486 2.73682 8.30916 1.28659 8.30916 1.28659 8.1026 1.04964 7.71585 0.764623L7.53446 0.644384C7.17038 0.412294 6.68545 0.16819 6.07326 0.041944L5.92833 0.0118065C5.49384-0.0711494 4.99122-0.0975586 4.44576-0.00983871L4.30841 0.0154312C3.8915 0.0839915 3.44302 0.205474 2.96178 0.403905 2.96178 0.403905 2.73634 5.30421 2.04854 6.82299 2.04854 6.82299 1.37973 3.86361 0.427326 3.59299L-0.230207 3.75777C-0.230207 3.75777 0.108703 7.02028 0.119986 8.48739 0.146456 12.0528 3.08155 14.5541 3.08155 14.5541 3.08155 14.5541 7.0747 15.8445 8.52331 13.68" fill="#F5A784" fill-rule="evenodd" transform="matrix(1 0 0 -1 260 536)"/><path d="M3.90889 65.8954C5.36437 65.8474 6.70354 65.0892 7.61168 63.9557 10.4211 60.4494 18.1071 33.359 18.6135 27.8233 19.5093 18.0133 16.4206 0.132278 16.4206 0.132278 16.4206 0.132278 12.3991-1.10836 10.5508 2.11867 10.5508 2.11867 9.91582 23.5872 9.15473 27.3335 8.39491 31.081 3.38507 45.7523 1.13903 51.9096-0.826637 57.2976-1.25288 66.0676 3.90889 65.8954" fill="#F5A784" fill-rule="evenodd" transform="matrix(1 0 0 -1 252 525)"/><path d="M0.478947-0.0546361 0.288571-0.0317848C0.405564 1.96323-0.00481203 3.91772-0.318947 5.92787L-0.205564 5.94536C0.801955 4.00179 0.826466 1.95881 0.478947-0.0546361" fill="#E0855C" fill-rule="evenodd" transform="matrix(1 0 0 -1 264 536)"/><path d="M0.481414-0.0274701 0.279541-0.0548458C0.397099 1.95321-0.0169235 3.90972-0.322303 5.92873L-0.216984 5.94515C0.793593 4.01054 0.823512 1.97615 0.481414-0.0274701" fill="#E0855C" fill-rule="evenodd" transform="matrix(1 0 0 -1 265 536)"/><path d="M0.53221 0.0669327 0.282881-0.0682132C0.352222 2.26873-0.0339994 4.55841-0.319714 6.91025L-0.215777 6.9319C0.790337 4.72603 0.798837 2.37559 0.53221 0.0669327" fill="#E0855C" fill-rule="evenodd" transform="matrix(1 0 0 -1 267 536)"/><path d="M2.83798 13.2377C2.71012 13.0209 2.61102 12.7819 2.51658 12.5475 1.70454 10.5365 1.04457 8.61169 0.549265 6.5027 0.214071 5.07223-0.432111 3.13925-0.0485083 1.6622-0.0485083 1.6622 0.0735064 1.42203 0.340748 1.12122L0.466334 0.990591C0.719788 0.732953 1.06877 0.447402 1.53987 0.240971L1.65037 0.192074C1.98904 0.0591382 2.38534-0.0422703 2.83679-0.0644597L2.95196-0.0656645C3.29866-0.0737973 3.67879-0.0434751 4.09811 0.0474913 4.09811 0.0474913 5.09555 4.18386 5.90184 5.36602 5.90184 5.36602 5.94559 2.73944 6.66438 2.35579L7.22069 2.38963C7.22069 2.38963 7.4925 5.22264 7.7275 6.47127 8.30117 9.51292 6.36143 12.1151 6.36143 12.1151 5.7337 12.8461 4.23173 14.5551 3.21573 13.6983 3.06138 13.5701 2.94046 13.4114 2.83798 13.2377" fill="#F5A784" fill-rule="evenodd" transform="matrix(1 0 0 -1 198 531)"/><path d="M-0.106517-0.0665737-0.0327109-0.067877C0.158283 1.96995 0.541031 3.90059 0.893547 5.89932L0.853023 5.93212C0.223895 4.11367 0.00266768 2.01785-0.106517-0.0665737" fill="#E0855C" fill-rule="evenodd" transform="matrix(1 0 0 -1 201 531)"/><path d="M-0.213171-0.0152047-0.0705882-0.068204C0.31688 1.97596 1.08465 3.90034 1.78696 5.90171L1.71266 5.9319C0.507033 4.10343 0.00511509 2.05296-0.213171-0.0152047" fill="#E0855C" fill-rule="evenodd" transform="matrix(1 0 0 -1 199 531)"/><path d="M-0.217514 0.063884-0.0514267-0.0607233C0.353821 1.63302 1.10016 3.24563 1.78262 4.9138L1.70653 4.93937C0.49695 3.45912 0.0292555 1.76203-0.217514 0.063884" fill="#E0855C" fill-rule="evenodd" transform="matrix(1 0 0 -1 198 530)"/><path d="M-0.194866 1.66798C-0.194866 1.66798 0.233779 3.03095 0.151562 6.6102 0.0924938 9.22555 2.16507 13.5322 4.73245 13.7535 14.2755 14.5749 17.8196 10.0694 16.5602 4.59757 15.1166-1.68298 14.5965 0.0778493 14.5965 0.0778493 14.5965 0.0778493 0.267404 0.860498-0.194866 1.66798" fill="#E0855C" fill-rule="evenodd" transform="matrix(1 0 0 -1 232 444)"/><path d="M3.66397 5.08004C3.66397 5.08004 1.97418 6.82199 0.285816 5.08004-1.40397 3.33686 1.46847 0.00265885 3.66397-0.145828 3.66397-0.145828 3.91683 4.32953 3.66397 5.08004" fill="#E0855C" fill-rule="evenodd" transform="matrix(1 0 0 -1 228 445)"/><path d="M3.70539 1.38382C3.70539 1.38382 17.3603-2.00423 29.7786 1.38382 29.7786 1.38382 31.942 13.3637 32.5012 16.8545 33.5632 23.3936 36.8623 31.4661 37.7424 33.5603 37.8715 33.8621 37.7523 34.2176 37.4684 34.3899 36.1753 35.1731 32.162 37.1952 26.6172 37.7328 25.8833 37.8159 25.114 37.8599 24.3174 37.8684 24.3174 37.8684 24.3359 40.2742 24.4821 42.7777 24.5092 43.2065 24.5374 43.6354 24.5644 44.0533 24.6566 45.1199 24.7661 46.1133 24.9123 46.8781 24.9123 46.8781 20.9262 43.4167 15.2535 44.2719 15.0421 44.2989 14.8318 44.3367 14.6204 44.3819L14.0342 38.1238C14.0342 38.1238 12.21 38.1348 9.93733 37.9797 7.0967 37.7878 3.5591 37.3406 1.97343 36.3388-3.79135 32.6488 3.70539 1.38382 3.70539 1.38382" fill="#F5A784" fill-rule="evenodd" transform="matrix(1 0 0 -1 220 494)"/><path d="M-0.194748 0.620419C1.18128-0.256874 7.86776-1.45179 9.47701 3.78702 9.56404 4.94227 9.66726 6.01809 9.80535 6.84649 9.80535 6.84649 6.04269 3.09765 0.688163 4.02395 0.488619 4.05301 0.290274 4.09404 0.0907292 4.14304L-0.194748 0.620419" fill="#E0855C" fill-rule="evenodd" transform="matrix(1 0 0 -1 235 454)"/><path d="M1.41694 18.6323C0.45344 17.6363-0.100764 12.6186-0.180272 10.1468-0.424723 2.66682 1.83113 0.330726 5.67817-0.0818187 9.5252-0.492029 13.549 0.977764 14.3773 7.91327 14.7914 11.3821 15.2329 14.5859 13.9632 16.084 12.0693 18.3188 4.3764 21.6899 1.41694 18.6323" fill="#F5A784" fill-rule="evenodd" transform="matrix(1 0 0 -1 231 452)"/><path d="M0.385852-0.137916C0.385852-0.137916-0.297428-0.401827-0.194105 0.854119-0.10075 1.98474 0.385852 1.83212 0.385852 1.83212 0.385852 1.83212 0.860021 1.83468 0.787781 0.847658 0.715648-0.140589 0.385852-0.137916 0.385852-0.137916" fill="#3B2645" fill-rule="evenodd" transform="matrix(1 0 0 -1 234 441)"/><path d="M0.379743-0.13747C0.379743-0.13747-0.30343-0.40127-0.198928 0.854676-0.10686 1.98529 0.379743 1.83267 0.379743 1.83267 0.379743 1.83267 0.853912 1.83646 0.783065 0.846989 0.710825-0.141258 0.379743-0.13747 0.379743-0.13747" fill="#3B2645" fill-rule="evenodd" transform="matrix(1 0 0 -1 241 442)"/><path d="M1.65224 0.144921C1.27363 0.194866 0.406169-0.00245629 0.227774 0.354115 0.0792869 0.651121 0.68813 2.40522 0.773868 2.70591 1.08433 3.78965 1.41121 4.52285 1.64555 5.82294L1.51337 5.85385C0.637696 4.12718 0.310814 1.99164-0.220267 0.156793-0.248886 0.0570064-0.164438-0.0499446-0.0405817-0.0488188 0.513723-0.0404264 1.05301-0.14267 1.60732-0.146252 1.79252-0.146252 1.84565 0.119949 1.65224 0.144921" fill="#E0855C" fill-rule="evenodd" transform="matrix(1 0 0 -1 236 445)"/><path d="M0.834302 0.431156C0.571683 0.838953 0.0811511 0.949069-0.109986 0.115033L-0.0397698-0.258166C0.0905324-0.235687 0.205468-0.041974 0.33646-0.0114155 0.478101 0.0252898 0.612432-0.0725325 0.746763-0.201089 0.868374-0.321391 0.949928 0.251668 0.834302 0.431156" fill="#3B2645" fill-rule="evenodd" transform="matrix(1 0 0 -1 234 438)"/><path d="M1.78751 0.105696C1.52023 0.927342 0.353148 1.0038-0.145408 0.496709-0.259236 0.380633-0.186068 0.160127-0.0626419 0.113038 0.227245 0.00291139 0.535294 0.138101 0.837152 0.102785 1.10206 0.0734177 1.3129-0.0691139 1.55862-0.174937 1.68442-0.229367 1.84014-0.053038 1.78751 0.105696" fill="#3B2645" fill-rule="evenodd" transform="matrix(1 0 0 -1 240 439)"/><path d="M3.70539 18.4962C3.70539 18.4962 1.85423 12.1835 0.332504 0.723752 4.83131 0.2341 20.5856-1.17908 32.06 1.37634 30.9697 13.0536 29.7786 18.4962 29.7786 18.4962 29.7786 18.4962 31.942 30.4103 32.5012 33.882 33.5632 40.3853 36.8623 48.4136 37.7424 50.4963 37.8715 50.7965 37.7523 51.1501 37.4684 51.3214 36.1753 52.1003 32.162 54.1113 26.6172 54.646 25.9019 52.4259 23.6562 47.7161 17.4709 48.1523 11.7884 48.5412 10.3122 52.545 9.93733 54.8914 7.0967 54.7006 3.5591 54.2558 1.97343 53.2595-3.79135 49.5899 3.70539 18.4962 3.70539 18.4962" fill="#FFFFFF" fill-rule="evenodd" transform="matrix(1 0 0 -1 220 511)"/><path d="M-0.20989 60.2337-0.200222 60.1572C-0.191802 60.056 1.55489 41.94 1.57298 41.7105 1.69856 40.1545 2.31056 30.2 2.32865 29.952 2.41919 28.011 2.55434 23.6217 2.56286 23.3367 2.59904 21.6066 2.64374 11.6794 2.65341 11.4584 2.68959 9.30512 2.7608 7.41963 2.83326 5.82778 2.84168 5.58962 2.85977 5.3589 2.86943 5.13807 3.03961 1.74213 3.23765-0.106379 3.23765-0.106379 3.68789-0.106379 4.96615-0.0977708 5.16409-0.0977708 7.10757-0.0878874 8.79148-0.0582374 10.2037 0.0318818 10.4475 0.0466537 10.6805 0.0688646 10.9063 0.0774727 12.7423 0.20585 14.0109 0.42796 14.5964 0.749966 14.5964 0.749966 14.6168 1.88283 14.5601 4.34708 14.5553 4.54081 14.5505 4.73327 14.5505 4.93562 14.5505 6.53608 14.6048 12.6369 14.6144 13.0318 14.6325 14.1645 14.6144 15.5528 14.5686 17.0989 14.5601 17.347 13.7598 43.0901 13.7852 43.5874 13.8214 44.1389 13.8794 44.7005 13.9577 45.2619 14.1087 46.3564 14.3223 47.4324 14.5867 48.4998 15.0815 50.4939 15.7334 52.4337 16.3599 54.1391 16.4613 54.4155 16.5627 54.671 16.6665 54.9215 17.2073 56.2442 17.6672 57.4005 18.0522 58.2445 18.1488 58.4555 18.2406 58.6493 18.3215 58.8134L18.43 59.0627C18.5194 59.2367 18.5919 59.3934 18.6461 59.5045 18.7173 59.6513 18.7717 59.7525 18.7898 59.7981 18.7995 59.8166 18.6545 60.0103 18.2321 60.3225L18.0257 60.4608C17.3232 60.9396 16.0448 61.6207 13.8491 62.2821L13.5257 62.3833C12.6843 62.6511 11.6981 62.8719 10.5731 63.1015L10.3208 63.1472C9.02559 63.405 7.5312 63.6444 5.83046 63.8467L5.59624 63.874 5.42481 63.8937-0.20989 60.2337" fill="#C6C6C6" fill-rule="evenodd" transform="matrix(1 0 0 -1 240 520)"/><path d="M-0.191209 1.41324C2.38106 0.354495 4.74815-0.000421642 6.53739-0.0835904 6.77732-0.100772 7.00893-0.100772 7.22255-0.100772 8.79704-0.13872 9.76748 0.0449048 9.76748 0.0449048 9.76748 0.0449048 13.3186 33.2804 13.3723 34.4395 13.3902 34.8409 13.8354 41.558 13.8534 41.7686 14.0132 43.6938 14.1912 45.4465 14.369 47.0327 14.3952 47.2519 14.4227 47.4722 14.449 47.6814 14.7426 50.1086 15.0542 52.1343 15.3395 53.7964 15.3836 54.0241 15.429 54.2517 15.4635 54.4622 15.7835 56.1868 16.0867 57.4646 16.3182 58.368 16.3803 58.6139 16.434 58.8245 16.4877 59.0154 16.6835 59.7192 16.8089 60.0447 16.8089 60.0447L12.1799 62.8941 12.0019 62.8757 11.7788 62.8672C9.61585 62.6934 7.87194 62.4375 6.53739 62.1744 6.38586 62.1463 6.23423 62.1193 6.09216 62.0911 4.01878 61.6628 3.03045 61.2601 3.03045 61.2601 3.03045 61.2601 2.87173 61.1671 2.64968 60.8489 2.4265 60.5294 2.13167 60.0006 1.87385 59.1243 1.82008 58.9334 1.76282 58.7253 1.70433 58.4964 1.48228 57.6151 1.32592 56.4426 1.24111 54.9359 1.22446 54.6348 1.2149 54.379 1.20657 54.1158 1.12659 52.1526 1.17079 50.209 1.28655 48.302 1.29487 48.0646 1.31276 47.8271 1.33065 47.5897 1.45606 45.755 1.6518 43.9679 1.86429 42.2336 1.89173 42.0146 3.03518 33.7467 3.1642 32.6047 3.24654 31.8764 3.31572 31.18 3.36106 30.5129 3.40526 29.9107 3.40763 29.1556 3.37782 28.2988 3.33844 27.1569 3.24407 25.8705 3.11043 24.4751 3.08422 24.1643 3.05677 23.835 3.02213 23.5167 2.86217 21.9098 2.65688 20.1851 2.43483 18.4325 2.38949 18.1228-0.191209 1.41324-0.191209 1.41324" fill="#C6C6C6" fill-rule="evenodd" transform="matrix(1 0 0 -1 219 519)"/><path d="M-0.137744 35.4531C-0.137744 35.4531 6.62748 14.9056 6.68419 14.6738 6.96914 13.5307 7.12511 11.6946 7.24809 9.74624 7.25756 9.50697 7.27527 9.26898 7.29299 9.01866 7.49517 5.17626 7.49517 1.14026 7.49517 1.14026 7.76822 1.02058 8.04126 0.919474 8.31553 0.828249 8.49165 0.754228 8.67602 0.698792 8.85215 0.653126 11.1266-0.0817735 13.0925-0.165671 14.4317-0.0817735L14.7143-0.0645692C15.6742 0.00945175 16.2381 0.156219 16.2381 0.156219 16.6352 3.34751 16.7854 6.25153 16.7854 8.83611 16.7854 9.01866 16.7806 9.20356 16.7759 9.38739 16.7216 11.4923 16.6447 13.3777 16.4768 15.0054 16.4591 15.2076 16.4319 15.41 16.4153 15.6023 16.212 17.4137 15.9472 18.8935 15.718 19.9984 15.6659 20.2648 15.6044 20.5126 15.5512 20.732 15.3137 21.7716 15.1363 22.3155 15.1363 22.3155 14.8372 23.7397 13.9471 27.6289 13.8064 28.2172 13.453 29.6612 13.109 31.0311 12.7579 32.3271 12.713 32.4923 12.6693 32.649 12.6255 32.8044 11.9813 35.1768 11.3039 37.2794 10.7211 39.1673 10.6655 39.3498 10.6065 39.5347 10.545 39.7099 10.4043 40.1329 10.2719 40.5373 10.13 40.9319 10.0166 41.2636 9.90197 41.5854 9.78724 41.8888 9.21397 43.4894 8.64884 44.8655 8.17371 46.0629 8.08025 46.2996 7.97977 46.5315 7.88285 46.7523 7.01047 48.7844 6.28816 50.1642 5.83899 50.9733 5.71489 51.1841 5.61797 51.3579 5.53876 51.4874 5.37211 51.7624 5.28343 51.8919 5.28343 51.8919L5.01864 51.6071C4.85076 51.4319 4.69235 51.2568 4.54218 51.083 3.43219 49.7956 2.57753 48.4255 1.92505 47.0556 1.80095 46.7978 1.67797 46.5315 1.5728 46.2737 1.39668 45.8607 1.23705 45.4463 1.09635 45.0332 0.93794 44.5919 0.796124 44.159 0.673142 43.7274 0.320893 42.477 0.100992 41.2809-0.0313563 40.2056-0.0667848 39.9022-0.0939671 39.6186-0.120029 39.3325-0.322115 37.0241-0.137744 35.4531-0.137744 35.4531" fill="#C6C6C6" fill-rule="evenodd" transform="matrix(1 0 0 -1 254 512)"/><path d="M2.46971 9.67912C3.28401 9.13287 4.20166 8.72215 5.10162 8.4632 5.89323 8.23506 6.72392 8.16592 7.54832 8.12279 8.63239 8.06608 9.71765 8.05121 10.803 8.07712 11.6955 8.09815 12.5979 8.14743 13.4715 7.97229 15.206 7.62328 16.7312 6.29754 17.1636 4.61906 17.3678 3.82608 17.4157 2.8962 17.3577 2.07974 17.3148 1.48655 17.0477 0.701001 17.4498 0.169409 17.6035-0.0340941 17.8593-0.159849 18.119-0.159849 18.4921-0.159849 19.2372 0.313751 19.5585 0.523308 20.059 0.848954 20.3993 1.38171 20.6136 1.92191 21.0586 3.04415 21.496 4.1837 21.675 5.37508 22.1036 8.21276 21.3825 11.1764 18.4027 12.4219 16.7249 13.1237 14.6639 13.0707 13.3253 14.283 12.9371 14.6357 12.6358 15.0773 12.2185 15.3966 11.7219 15.779 11.074 15.9652 10.4463 15.9072 9.84379 15.8518 9.26637 15.5841 8.66256 15.6137 7.62648 15.6655 6.87265 16.5448 6.01427 17.1171 4.47013 18.1443 2.17096 18.1098 0.865106 16.8026 0.0104217 15.9491-0.331213 14.6764-0.174888 13.4912 0.0356073 11.8892 1.10828 10.5942 2.46971 9.67912" fill="#3B2645" fill-rule="evenodd" transform="matrix(1 0 0 -1 229 443)"/><path d="M7.78763 8.1191 4.34927 10.8618-0.212374 4.75148 2.51413-0.138298 7.78763 8.1191" fill="#9D9D9C" fill-rule="evenodd" transform="matrix(1 0 0 -1 240 465)"/><path d="M-0.195491 7.16618 3.23925 8.86861 4.80461 4.37088 2.30574-0.131497-0.195491 7.16618" fill="#9D9D9C" fill-rule="evenodd" transform="matrix(1 0 0 -1 231 463)"/><path d="M10.7788 3.92544C10.7788 3.92544 10.6079 1.00384 9.78237 0.235991 8.95673-0.534034 1.78529 0.261286 0.527659 1.17105-0.729975 2.08072-0.0235275 3.92544-0.0235275 3.92544L10.7788 3.92544" fill="#9D9D9C" fill-rule="evenodd" transform="matrix(1 0 0 -1 261 513)"/><path d="M27.9219 2.58314C27.9219 2.58314 8.46753 17.9565 1.81976 36.5837 1.81976 36.5837 1.01968 37.4203-0.204837 36.2865-0.204837 36.2865 2.90929 27.3236 4.47907 25.125 4.47907 25.125 1.27751 18.669 4.47907 12.8996 7.68316 7.13038 13.0286 3.00564 15.1153 3.28206 17.203 3.55847 19.8004 6.39084 19.8004 6.39084 19.8004 6.39084 26.2462 0.599478 28.0483-0.119113 28.0483-0.119113 29.8102 0.998602 27.9219 2.58314" fill="#3B2645" fill-rule="evenodd" transform="matrix(1 0 0 -1 226 493)"/><path d="M0.567784 14.6802C2.21869 12.0472 3.91539 9.46014 5.68085 6.90148 7.47165 4.30694 9.5386 2.55086 11.7237 0.370527 11.9107 0.184463 11.7201-0.19995 11.456-0.100723 8.89822 0.871578 6.98684 3.25773 5.40345 5.448 4.35315 6.90148 3.35218 8.39225 2.33199 9.86688 1.35886 11.2734 0.183099 12.6413-0.189538 14.3516-0.293291 14.8241 0.3097 15.092 0.567784 14.6802" fill="#2F1D36" fill-rule="evenodd" transform="matrix(1 0 0 -1 233 485)"/><path d="M3.60779 0.88611C3.02208 0.578958 2.3365 0.238115 1.55944 0.251757 1.14236 0.259749 0.720575 0.354141 0.406948 0.544509 0.122995 0.71655 0.222762 0.73653-0.0707068 0.827752L-0.195441 0.77973C-0.24773 0.255753 0.806119-0.0594598 1.45486-0.0906711 2.44343-0.138694 3.32148 0.221304 3.78604 0.793303 3.85255 0.874948 3.7052 0.938129 3.60779 0.88611" fill="#E0855C" fill-rule="evenodd" transform="matrix(1 0 0 -1 235 448)"/><path d="M0.364875 3.9969C0.364875 3.9969 1.47025 6.98272 3.2142 5.39953 4.95921 3.81859 2.56008-0.454045-0.108733-0.119038-0.108733-0.119038-0.485413 2.97701 0.364875 3.9969" fill="#F5A784" fill-rule="evenodd" transform="matrix(1 0 0 -1 245 447)"/><path d="M1.65329 1.84983C1.26698 1.77689 0.873963 1.37899 0.594563 1.09426 0.302891 0.796123-0.0377775 0.424941-0.183614 0.0124705-0.229349-0.116531-0.0645285-0.196804 0.0156287-0.114121 0.241622 0.114645 0.423127 0.389625 0.633492 0.637883 0.783834 0.461514 0.936382 0.281373 1.1456 0.197433 1.30486 0.132879 1.42509 0.350747 1.35385 0.494315 1.26363 0.679277 1.09555 0.813099 0.931876 0.936023 1.20907 1.16961 1.54312 1.35216 1.77353 1.62473 1.8604 1.72816 1.77247 1.87299 1.65329 1.84983" fill="#E0855C" fill-rule="evenodd" transform="matrix(1 0 0 -1 246 445)"/></g></svg>