<svg width="79" height="206" xmlns="http://www.w3.org/2000/svg" xmlns:xlink="http://www.w3.org/1999/xlink" overflow="hidden"><defs><clipPath id="clip0"><rect x="312" y="409" width="79" height="206"/></clipPath></defs><g clip-path="url(#clip0)" transform="translate(-312 -409)"><path d="M56.7734 0.0196357C49.2696 0.0196357 41.6419 0.564465 34.7537 0.56992 27.3235 0.577071 19.8836 0.568223 12.4545 0.688097 12.1112 0.691976 11.7703 0.69537 11.4317 0.69537 11.0185 0.69537 10.6102 0.691976 10.2055 0.689309 9.7995 0.68531 9.39707 0.682643 8.99961 0.682643 5.67235 0.682643 2.65229 0.887727-0.0196081 3.01468-0.337592 3.26643-0.337592 3.77005-0.0196081 4.0235 2.59211 6.10221 5.71811 6.41444 9.03333 6.41444 9.74763 6.41444 10.4717 6.40075 11.2005 6.38645 11.9305 6.37105 12.6677 6.35723 13.4062 6.35723 13.5845 6.35723 13.7627 6.35833 13.9411 6.36002 20.8774 6.43311 27.8173 6.45953 34.7537 6.46559 41.6479 6.47226 49.272 7.01976 56.7771 7.01976 63.2531 7.01976 69.6414 6.61189 75.3948 5.09716 77.1921 4.62445 77.1898 2.40937 75.3948 1.93775 69.6486 0.426531 63.258 0.0196357 56.7734 0.0196357" fill="#DADADA" fill-rule="evenodd" transform="matrix(1 0 0 -1 313 615)"/><path d="M8.73886 3.01939 8.11553 17.0036-0.258964 15.9632 1.84038 0.00527809C1.84038 0.00527809 8.88098-0.169849 8.73886 3.01939" fill="#F5A784" fill-rule="evenodd" transform="matrix(1 0 0 -1 366 606)"/><path d="M-0.265253 4.35987C-0.136502 3.45309 0.589715 2.73768 1.41347 2.33974 2.23603 1.95048 3.16227 1.83476 4.06718 1.71765 7.6747 1.22875 10.9959 0.0604302 14.7146 0.0142504 16.9383-0.00417868 21.4882 0.097824 21.712 3.15705L21.7107 3.31359C21.6995 3.60127 21.627 4.21554 21.2333 4.88134 20.6533 5.88626 19.3395 6.98129 16.4521 7.16687 15.8283 7.20534 15.2671 7.30595 14.7709 7.44545 14.5034 7.5212 14.2509 7.5946 14.0146 7.6981L13.8084 7.80117C13.3983 7.98439 13.0496 8.20929 12.7447 8.44308L12.6434 8.51648C12.3221 8.77888 12.0447 9.05006 11.8084 9.34889L11.7421 9.41747C11.4821 9.72315 11.2709 10.0045 11.0597 10.283 10.3859 11.2311 9.88597 12.0025 8.91969 12.0126 6.64221 12.0224 3.61343 10.7113 4.10099 8.48691 4.10099 8.48691 1.3535 8.12336 0.724818 9.65758 0.317249 10.634-0.0214227 9.6999-0.101515 9.12978-0.242754 8.14865 0.0685741 7.14555-0.0889202 6.12938-0.112711 5.99084-0.137686 5.86409-0.161477 5.72597-0.241462 5.30168-0.324031 4.88767-0.271497 4.47216L-0.265253 4.35987" fill="#00A19A" fill-rule="evenodd" transform="matrix(1 0 0 -1 367 613)"/><path d="M-0.281937 4.48117C-0.153088 3.54981 0.573677 2.8152 1.39805 2.40641 2.22113 2.00665 3.14806 1.88781 4.05377 1.76764 7.66389 1.26543 10.9877 0.0655824 14.7092 0.0181562 16.9345-0.000770263 21.4879 0.104096 21.7118 3.24589L21.7106 3.40665C21.6993 3.702 21.6268 4.33295 21.2327 5.01662L21.1852 4.88248C20.3196-0.7893 10.2646 1.36227 6.68568 2.17875 4.27764 2.74137 2.00846 3.72741-0.288185 4.59638L-0.281937 4.48117" fill="#3B2645" fill-rule="evenodd" transform="matrix(1 0 0 -1 367 613)"/><path d="M0.274404 0.0411129C1.34772 0.405654 2.24199 1.20209 3.19117 1.76568 3.69333 2.06845 4.19963 2.35004 4.67361 2.66913 4.37029 2.73752 4.08678 2.81293 3.82027 2.91271L3.58753 3.01209C3.29697 2.86581 3.0205 2.71221 2.73274 2.55613 1.73279 1.99625 0.456368 1.42046-0.240392 0.586943-0.50277 0.283348-0.117706-0.0966876 0.274404 0.0411129" fill="#3B2645" fill-rule="evenodd" transform="matrix(1 0 0 -1 377 608)"/><path d="M0.254528 0.0152132C1.44117 0.201142 2.35348 1.01054 3.30886 1.53944 3.71273 1.76664 4.2183 1.98655 4.67938 2.23934L4.56651 2.30174C4.20859 2.52484 3.89936 2.7554 3.6362 3.00947 3.27264 2.83393 2.92587 2.63315 2.60837 2.47319 1.58738 1.95512 0.194674 1.42284-0.287274 0.532096-0.423654 0.278392-0.122946-0.0368031 0.254528 0.0152132" fill="#3B2645" fill-rule="evenodd" transform="matrix(1 0 0 -1 375 607)"/><path d="M-0.256157 3.01939 0.436542 17.0036 9.74154 15.9632 7.40893 0.00527809C7.40893 0.00527809-0.413953-0.169849-0.256157 3.01939" fill="#F5A784" fill-rule="evenodd" transform="matrix(1 0 0 -1 328 606)"/><path d="M53.7371 2.487C47.9926-0.583541 45.5492-0.899088 38.4239 1.68628 32.09 59.44 26.4129 90.4579 26.4129 90.4579 25.2758 82.5828 21.492 62.3068 15.8492 2.02849 11.4036-0.52969 3.15451 0.809652-0.262981 1.97474 0.784722 17.2474 2.63256 45.4657 2.82853 51.0054 3.88488 80.1719 6.00963 95.9905 7.36358 103.476 8.09395 107.487 8.60124 109.11 8.60124 109.11 14.3395 122.229 22.9415 121.334 25.7965 111.668 27.9692 119.045 33.504 121.314 38.5525 116.124 40.1221 114.515 41.6306 112.212 42.9847 109.11 42.9847 109.11 44.27 105.677 45.7931 98.9535 46.233 97.0216 46.7673 91.7366 47.3224 85.1131 48.2635 73.8593 52.6612 17.5316 53.7371 2.487" fill="#00A19A" fill-rule="evenodd" transform="matrix(1 0 0 -1 325 597)"/><path d="M21.7301 4.35987C21.6013 3.45309 20.8738 2.73768 20.05 2.33974 19.2275 1.95048 18.3012 1.83476 17.3974 1.71765 13.7885 1.22875 10.4684 0.0604302 6.74829 0.0142504 4.52441-0.00417868-0.0245459 0.097824-0.248258 3.15705L-0.247074 3.31359C-0.237062 3.60127-0.1645 4.21554 0.229203 4.88134 0.810552 5.88626 2.123 6.98129 5.01188 7.16687 5.63446 7.20534 6.19568 7.30595 6.69198 7.44545 6.9608 7.5212 7.21197 7.5946 7.44957 7.6981L7.65584 7.80117C8.06461 7.98439 8.4145 8.20929 8.71831 8.44308L8.81962 8.51648C9.14086 8.77888 9.4183 9.05006 9.6546 9.34889L9.72211 9.41747C9.9821 9.72315 10.1933 10.0045 10.4047 10.283 11.0772 11.2311 11.5772 12.0025 12.5435 12.0126 14.8224 12.0224 17.8512 10.7113 17.3624 8.48691 17.3624 8.48691 20.1113 8.12336 20.7388 9.65758 21.1476 10.634 21.4864 9.6999 21.5664 9.12978 21.7064 8.14865 21.3951 7.14555 21.5526 6.12938 21.5764 5.99084 21.6026 5.86409 21.6264 5.72597 21.7064 5.30168 21.7876 4.88767 21.7352 4.47216L21.7301 4.35987" fill="#00A19A" fill-rule="evenodd" transform="matrix(1 0 0 -1 315 613)"/><path d="M21.7466 4.48117C21.6177 3.54981 20.8897 2.8152 20.0653 2.40641 19.2421 2.00665 18.3151 1.88781 17.4106 1.76764 13.799 1.26543 10.4763 0.0655824 6.75341 0.0181562 4.52784-0.000770263-0.0245645 0.104096-0.248446 3.24589L-0.247261 3.40665C-0.237241 3.702-0.164625 4.33295 0.229377 5.01662L0.276889 4.88248C1.14387-0.7893 11.1982 1.36227 14.7786 2.17875 17.1868 2.74137 19.4561 3.72741 21.7517 4.59638L21.7466 4.48117" fill="#3B2645" fill-rule="evenodd" transform="matrix(1 0 0 -1 315 613)"/><path d="M3.29557 0.0411129C2.43707 0.405654 1.72196 1.20209 0.963909 1.76568 0.561228 2.06845 0.156215 2.35004-0.222859 2.66913 0.020887 2.73752 0.246466 2.81293 0.460776 2.91271L0.646913 3.01209C0.879293 2.86581 1.09924 2.71221 1.33045 2.55613 2.13028 1.99625 3.15005 1.42046 3.70836 0.586943 3.9182 0.283348 3.61024-0.0966876 3.29557 0.0411129" fill="#3B2645" fill-rule="evenodd" transform="matrix(1 0 0 -1 322 608)"/><path d="M3.31899 0.0152132C2.36982 0.201142 1.64016 1.01054 0.875872 1.53944 0.552829 1.76664 0.148425 1.98655-0.221439 2.23934L-0.131155 2.30174C0.155141 2.52484 0.402389 2.7554 0.612986 3.00947 0.904848 2.83393 1.18222 2.63315 1.43628 2.47319 2.25286 1.95512 3.36581 1.42284 3.75237 0.532096 3.8604 0.278392 3.61977-0.0368031 3.31899 0.0152132" fill="#3B2645" fill-rule="evenodd" transform="matrix(1 0 0 -1 324 607)"/><path d="M39.7363-0.0970548C38.1442 1.45983 37.8866 4.52961 37.1825 6.90471 35.6922 11.8755 30.7342 15.1167 25.6805 16.3208 20.6268 17.5188 15.356 17.0913 10.1613 17.1734 7.15981 17.2211 3.29225 17.4979-0.263676 18.3567 0.467348 22.3879 0.975156 24.0195 0.975156 24.0195 6.7194 37.2035 15.3303 36.3044 18.1883 26.5894 20.3631 34.004 25.9038 36.2836 30.9575 31.0679 32.5288 29.451 34.0388 27.1371 35.3941 24.0195 35.3941 24.0195 36.6808 20.5689 38.2055 13.8122 38.6459 11.8707 39.1807 6.55932 39.7363-0.0970548" fill="#008F89" fill-rule="evenodd" transform="matrix(1 0 0 -1 333 512)"/><path d="M20.3091 2.61711C20.8382 3.1612 21.1084 3.86758 21.2266 4.5456 21.4183 5.65979 21.3424 6.84504 21.864 7.85848 22.1318 8.38113 22.5525 8.8411 22.6895 9.40641 22.8264 9.9754 22.6372 10.6059 22.2064 11.0196 21.8902 11.3231 21.4396 11.5388 21.2964 11.9441 21.2104 12.1872 21.2553 12.4514 21.2404 12.7075 21.1905 13.485 20.5706 14.1393 19.8473 14.5008 19.1252 14.8624 18.3023 14.9856 17.5005 15.1361 16.7001 15.2878 15.8809 15.4811 15.2298 15.9515 14.9272 16.1685 14.6671 16.4435 14.3346 16.6141 13.7533 16.9117 13.0487 16.8536 12.3976 16.7469 11.17 16.5466 9.9675 16.2064 8.82457 15.7358 8.39635 15.5592 7.9693 15.3637 7.5087 15.302 6.81404 15.2072 6.09945 15.4241 5.41101 15.302 4.35525 15.1136 3.63443 14.1926 3.12408 13.2942 2.97462 13.0334 2.82526 12.7573 2.56752 12.5889 2.28618 12.4052 1.92765 12.3826 1.60278 12.2867 0.73379 12.0294 0.134986 11.2365-0.105287 10.4009-0.359283 9.51788-0.260965 8.64909-0.163827 7.76365-0.0666887 6.8924-0.0828784 6.04024 0.142384 5.17849 2.00731-1.92246 2.5302 0.0995274 2.5302 0.0995274 4.40382 0.264284 6.27743 0.448027 8.14739 0.642386 10.6609 0.901974 13.1745 1.17932 15.6768 1.52782 16.6764 1.66767 17.6661 1.86326 18.6646 2.01025 19.3257 2.10743 19.8174 2.12764 20.3091 2.61711" fill="#3B2645" fill-rule="evenodd" transform="matrix(1 0 0 -1 340 427)"/><path d="M3.5315 5.11296C3.5315 5.11296 1.7999 6.82319 0.190375 5.02316-1.41792 3.22205 1.53899-0.061891 3.71572-0.152867 3.71572-0.152867 3.80795 4.36371 3.5315 5.11296" fill="#E0855C" fill-rule="evenodd" transform="matrix(1 0 0 -1 339 429)"/><path d="M40.7233 46.054C39.9314 44.0008 37.3379 37.032 35.9564 30.3778 35.8139 29.6939 35.697 29.0317 35.5776 28.3708 35.4716 27.7816 35.3887 27.2386 35.3181 26.7076 35.2828 26.3893 35.2352 25.964 35.1755 25.4563 34.6201 20.0668 33.5553 4.99085 33.3665 2.42004 33.3543 2.18315 33.3421 2.05435 33.3421 2.05435 19.2791-2.27564 4.44735 1.16864 4.44735 1.16864 4.44735 1.16864 4.42301 1.44078 4.34023 1.95955 4.02098 4.45984 0.969416 31.1202 0.863452 32.193 0.236059 38.5276-0.225672 44.3665-0.261029 47.9991-0.273199 48.5313 0.212873 48.8375 0.921889 49.0379L0.980327 49.0488C2.06945 49.3562 3.67749 49.4267 4.94318 49.6394 7.58064 50.0986 10.4337 50.3099 12.0771 50.3804 12.3025 50.3926 12.49 50.4071 12.6679 50.418 12.797 50.4424 12.9152 50.4399 13.0224 50.4424 13.3063 50.4485 13.4598 50.4533 13.4598 50.4533L13.9081 57.6626C14.1456 57.6153 14.382 57.5788 14.6195 57.5667 15.0921 57.4962 15.5526 57.4646 16.0021 57.4598 16.6064 57.4537 17.1607 57.4853 17.6821 57.5436 17.9537 57.5728 18.2144 57.602 18.463 57.6493 18.8296 57.7076 19.1842 57.7672 19.5276 57.8497 20.0953 57.9919 20.6509 58.1559 21.16 58.3576 21.3257 58.405 21.4793 58.4512 21.6328 58.5338L21.7631 58.5811C21.8812 58.6285 22.0116 58.6869 22.1298 58.7342 22.8862 59.0647 23.5258 59.4304 24.046 59.7608 24.3761 59.9734 24.6734 60.1739 24.8975 60.3379L25.051 60.457C25.1838 60.5481 25.2885 60.6223 25.3702 60.7037L25.5712 60.87 25.5603 60.7984 25.548 60.7158C25.5358 60.61 25.5127 60.5032 25.5006 60.3853 25.3592 59.2068 25.2642 57.6724 25.2399 56.1635 25.2058 55.1247 25.2058 54.0993 25.1936 53.2015 25.1936 51.6573 25.2288 50.5359 25.2288 50.5359 25.5127 50.5481 25.7856 50.5492 26.0572 50.525L26.2473 50.5116 26.3655 50.525C27.915 50.5019 29.4036 50.3585 30.7645 50.1459 34.6554 49.5324 37.3087 48.8301 38.8557 48.1996 39.2578 48.0356 39.5489 47.8885 39.7877 47.7513 40.1276 47.557 40.8536 46.4076 40.7233 46.054" fill="#F5A784" fill-rule="evenodd" transform="matrix(1 0 0 -1 331 491)"/><path d="M11.7372 6.85419C10.1559-0.911246 1.74212-0.620691-0.262862 0.343818L-0.0259056 3.84133C6.93678 2.73257 11.7372 6.85419 11.7372 6.85419" fill="#E0855C" fill-rule="evenodd" transform="matrix(1 0 0 -1 345 437)"/><path d="M0.75987 17.2819C-0.242104 16.1503-0.252943 13.6831-0.257841 10.9553-0.271181 2.69517 2.22656 0.194709 6.36765-0.130231 10.51-0.455172 14.7806 1.30168 15.4401 8.97991 15.7693 12.8196 16.1372 16.3689 14.7237 17.9775 12.6181 20.3792 3.83364 20.7523 0.75987 17.2819" fill="#F5A784" fill-rule="evenodd" transform="matrix(1 0 0 -1 342 436)"/><path d="M0.323258 4.70245C0.323258 4.70245 1.61478 8.05737 3.89359 6.36019 6.17229 4.66405 3.27944-0.427674-0.126543-0.149577-0.126543-0.149577-0.719124 3.53856 0.323258 4.70245" fill="#F5A784" fill-rule="evenodd" transform="matrix(1 0 0 -1 356 430)"/><path d="M1.59996 1.84633C1.20637 1.76104 0.813711 1.36241 0.536123 1.07712 0.245458 0.777332-0.0929342 0.40675-0.22958 0.00145061-0.274039-0.125429-0.101621-0.198443-0.0224163-0.115372 0.203148 0.114888 0.380984 0.387699 0.589268 0.634786 0.748704 0.467482 0.910288 0.299018 1.12604 0.22378 1.29314 0.16653 1.40914 0.38209 1.33209 0.519124 1.23458 0.695421 1.0588 0.82114 0.887498 0.934578 1.16406 1.16929 1.50133 1.35786 1.72904 1.63077 1.81693 1.73406 1.72148 1.87109 1.59996 1.84633" fill="#E0855C" fill-rule="evenodd" transform="matrix(1 0 0 -1 357 427)"/><path d="M0.368621-0.139995C0.368621-0.139995-0.313477-0.426011-0.246605 0.833624-0.1857 1.96437 0.310082 1.8268 0.310082 1.8268 0.310082 1.8268 0.789095 1.84647 0.74609 0.856886 0.703189-0.132593 0.368621-0.139995 0.368621-0.139995" fill="#3B2645" fill-rule="evenodd" transform="matrix(1 0 0 -1 344 424)"/><path d="M0.362719-0.140358C0.362719-0.140358-0.320082-0.425091-0.251905 0.832849-0.19207 1.96311 0.304222 1.82688 0.304222 1.82688 0.304222 1.82688 0.783728 1.84654 0.74068 0.856101 0.697631-0.133066 0.362719-0.140358 0.362719-0.140358" fill="#3B2645" fill-rule="evenodd" transform="matrix(1 0 0 -1 352 424)"/><path d="M0.799933 0.163686C0.610045 0.208523 0.180544-0.0485835 0.0856555 0.362674 0.00617387 0.704007 0.279382 2.77074 0.31687 3.12263 0.452472 4.39851 0.602926 5.2645 0.697258 6.78943L0.630068 6.8211C0.223817 4.77946 0.097892 2.2765-0.134601 0.118848-0.147505 0.000227026-0.102953-0.122367-0.0416041-0.115783 0.235497-0.0894482 0.50609-0.190929 0.782468-0.177761 0.874854-0.173788 0.897436 0.139961 0.799933 0.163686" fill="#E0855C" fill-rule="evenodd" transform="matrix(1 0 0 -1 347 428)"/><path d="M24.4433 64.2252C23.8274 61.6238 22.6086 59.2116 21.4353 56.8212 20.9127 55.7399 18.8339 51.1603 18.7525 50.9845 15.5124 43.7454 10.9364 33.1654 10.6002 31.906 9.52021 27.8331 5.89859 1.74811 7.03836 2.97361 4.8197-0.4156 0.910994-0.101682 0.910994-0.101682 0.910994-0.101682 0.786561 3.16518 0.682524 4.38828 0.19458 9.63699-0.942926 24.3965 0.381126 33.106 0.751951 35.5304 2.20394 41.3804 3.93456 48.0062 5.3507 53.4913 5.97863 58.5412 7.67464 63.8143 8.94008 67.7806 10.7987 71.8874 14.0162 76.3834 14.6309 77.2549 16.8592 78.7593 17.9512 78.8781L18.0086 78.8889C18.6126 78.9362 18.8913 78.0198 19.4486 77.7725 21.0059 77.0646 22.3061 75.8052 23.0608 74.2524 24.5354 71.2279 25.2089 67.5441 24.4433 64.2252" fill="#F5A784" fill-rule="evenodd" transform="matrix(1 0 0 -1 314 521)"/><path d="M0.00173599 13.6762C0.00173599 13.6762 0.0886438 11.9204-0.0449186 9.72817-0.184665 7.53822-0.523617 2.73275 0.214611 1.28363 0.214611 1.28363 0.422495 1.04676 0.809295 0.760502L0.990705 0.641502C1.35353 0.407023 1.83982 0.164052 2.45089 0.0390452L2.59573 0.00776762C3.03038-0.0740513 3.53306-0.101704 4.07859-0.0138781L4.21584 0.0112889C4.6341 0.0798511 5.08134 0.201337 5.56383 0.399774 5.56383 0.399774 5.7894 5.30145 6.47729 6.81914 6.47729 6.81914 7.14499 3.85958 8.0974 3.58895L8.75501 3.75497C8.75501 3.75497 8.41736 7.01634 8.40608 8.48348 8.3783 12.0503 5.44297 14.5504 5.44297 14.5504 5.44297 14.5504 1.45052 15.8408 0.00173599 13.6762" fill="#F5A784" fill-rule="evenodd" transform="matrix(1 0 0 -1 315 531)"/><path d="M-0.138299-0.0676917 0.0520692-0.0410319C-0.0650113 2.28638 0.347329 4.56672 0.660196 6.9119L0.546576 6.93231C-0.461701 4.6648-0.484424 2.28133-0.138299-0.0676917" fill="#E0855C" fill-rule="evenodd" transform="matrix(1 0 0 -1 319 531)"/><path d="M-0.144478-0.0348018 0.0574887-0.0680617C-0.0583964 2.27478 0.354463 4.55738 0.66006 6.91167L0.554614 6.93205C-0.455371 4.675-0.485325 2.30286-0.144478-0.0348018" fill="#E0855C" fill-rule="evenodd" transform="matrix(1 0 0 -1 317 531)"/><path d="M-0.185158 0.0527016 0.0645065-0.0620841C-0.00492758 1.93948 0.380021 3.90391 0.666119 5.92055L0.562043 5.93792C-0.44184 4.04764-0.453935 2.03101-0.185158 0.0527016" fill="#E0855C" fill-rule="evenodd" transform="matrix(1 0 0 -1 316 530)"/><path d="M23.4447 1.01771C23.3389-0.216605 19.4689-1.16583 17.2294 2.2557 17.2186 2.28015 15.0367 26.1049 13.9518 30.2152 13.7764 30.9039 12.3766 34.2655 10.6273 38.3513 8.79507 42.6267 3.25384 54.9673 3.06758 55.3588 1.88891 57.771 0.652609 60.2054 0.0459424 62.8306-0.724317 66.18-0.0478049 69.8976 1.43363 72.9497 2.19292 74.5167 3.49897 75.7877 5.06204 76.5021 5.60994 76.7517 6.21671 76.929 6.82337 76.8814 7.02163 76.869 7.20912 76.8324 7.39652 76.7737 7.74615 76.6648 8.03567 76.5119 8.31567 76.3223 8.75896 76.0373 9.16747 75.658 9.54122 75.2788 12.8429 71.9049 14.9322 67.6284 16.4484 63.0545 18.2687 57.6023 19.2948 51.7256 20.6476 46.4629 22.3849 39.7764 23.8315 33.8729 24.2051 31.4263 25.5473 22.6369 23.9228 6.31578 23.4447 1.01771" fill="#F5A784" fill-rule="evenodd" transform="matrix(1 0 0 -1 363 519)"/><path d="M8.45843 13.6754C8.45843 13.6754 8.37153 11.9196 8.50497 9.72848 8.64611 7.53739 8.98492 2.73192 8.24558 1.2828 8.24558 1.2828 8.03772 1.04594 7.65226 0.759673L7.46957 0.640673C7.10549 0.407334 6.62174 0.163224 6.00955 0.0382167L5.86472 0.00693907C5.43012-0.0748799 4.92749-0.10129 4.38202-0.0147067L4.24478 0.0104604C3.82656 0.0790226 3.37938 0.201751 2.89813 0.400188 2.89813 0.400188 2.67139 5.30062 1.98358 6.81945 1.98358 6.81945 1.31595 3.85989 0.36365 3.58812L-0.293892 3.75414C-0.293892 3.75414 0.0437204 7.01665 0.0550031 8.48266 0.0827758 12.0494 3.01779 14.5496 3.01779 14.5496 3.01779 14.5496 7.0098 15.8412 8.45843 13.6754" fill="#F5A784" fill-rule="evenodd" transform="matrix(1 0 0 -1 378 531)"/><path d="M0.382812-0.0681305 0.196344-0.041361C0.311026 2.28736-0.093013 4.5676-0.399322 6.91157L-0.288031 6.93198C0.778302 4.68356 0.721698 2.281 0.382812-0.0681305" fill="#E0855C" fill-rule="evenodd" transform="matrix(1 0 0 -1 382 531)"/><path d="M0.392744-0.0351322 0.19093-0.0683921C0.306727 2.27566-0.10582 4.55826-0.411187 6.91123L-0.30582 6.93172C0.703401 4.67467 0.734996 2.30253 0.392744-0.0351322" fill="#E0855C" fill-rule="evenodd" transform="matrix(1 0 0 -1 384 531)"/><path d="M0.444676 0.0522928 0.193558-0.0623721C0.262899 1.93883-0.121533 3.9029-0.407247 5.91917L-0.30331 5.93773C0.702654 4.0478 0.711303 2.03034 0.444676 0.0522928" fill="#E0855C" fill-rule="evenodd" transform="matrix(1 0 0 -1 385 530)"/><path d="M45.572 31.5061 46.5868 2.91983C29.7396-3.66727 11.5045 2.48137 11.5045 2.48137L11.1032 29.8823C10.9254 29.9339 10.7339 29.9781 10.5548 30.0371 10.3326 30.1046 10.1105 30.1709 9.87986 30.2447 9.26384 30.4375 8.62076 30.6671 7.96796 30.9337 7.44884 31.1338 6.92001 31.3513 6.39349 31.5895 4.10863 32.6139 1.80041 33.8753-0.26241 35.1072 0.0419561 36.0432 0.376971 36.9877 0.754892 37.9446 0.837114 38.1521 0.918172 38.3535 1.00769 38.5611 2.04581 41.0704 3.39686 43.6632 5.24377 46.3949 5.42903 46.6847 5.63025 46.9672 5.83031 47.2632 5.96284 47.4573 6.10276 47.6501 6.24385 47.843 6.87456 48.7273 9.16069 50.2516 10.2811 50.3707L10.34 50.3818C11.4383 50.6937 13.0556 50.7625 14.3319 50.9787 16.9874 51.4467 19.8563 51.6616 21.5179 51.7279L28.153 35.3087C28.153 35.3087 29.7544 38.4432 29.9101 38.7613 31.0158 40.9893 32.47 44.0416 33.7609 47.1306 33.8873 47.4192 34.0087 47.7177 34.1241 48.0063 34.6555 49.3353 35.1769 50.6335 35.6003 51.8741L35.7918 51.8606 35.9108 51.8741C37.4693 51.852 38.9688 51.7058 40.342 51.4909 44.2589 50.8743 46.9268 50.1546 48.4926 49.5232 48.8484 49.4188 49.1491 49.2628 49.4312 49.07 49.6019 48.9656 49.7601 48.8415 49.9184 48.7126 50.1885 48.4902 50.4461 48.2593 50.6829 48.0223 50.802 47.9032 50.9124 47.7841 51.0315 47.6648 53.3974 45.1851 55.1338 42.2446 56.4774 39.0659 56.632 38.7098 56.7732 38.3535 56.9143 37.9899 57.2113 37.2542 57.4775 36.5063 57.7377 35.7485 55.6013 34.7462 53.1532 33.8397 51.0168 33.1409 47.9821 32.1238 45.572 31.5061 45.572 31.5061" fill="#3B2645" fill-rule="evenodd" transform="matrix(1 0 0 -1 322 492)"/><path d="M2.76267 8.87199 2.76267-0.128109C2.59238-0.083659 2.41046-0.0344716 2.23784 0.0193525 1.45697 0.26277 0.617454 0.531991-0.237334 0.873683 1.47224 4.71484 2.76267 8.87199 2.76267 8.87199" fill="#2F1D36" fill-rule="evenodd" transform="matrix(1 0 0 -1 330 462)"/><path d="M4.54343 1.74248C3.86347 1.39982 3.24311 0.847376 2.53079 0.639523 1.57645 0.364428 0.816745 0.71644-0.0996484 0.980408-0.225373 1.01588-0.360527 0.781908-0.240274 0.647102 1.15061-0.908812 3.52285-0.292832 4.67731 1.42417 4.76508 1.55333 4.67998 1.81166 4.54343 1.74248" fill="#E0855C" fill-rule="evenodd" transform="matrix(1 0 0 -1 346 431)"/><path d="M1.62788 0.636279C1.10821 0.876025 0.0887035 0.919026-0.205032 0.0662874-0.244585-0.0488224-0.197677-0.225589-0.0966859-0.213284 0.151128-0.181 0.358402 0.0309606 0.60209 0.107833 0.909368 0.203096 1.21754 0.170812 1.51648 0.04181 1.61442 0.00026462 1.69559 0.0755491 1.7529 0.183117L1.78098 0.338317 1.62788 0.636279" fill="#3B2645" fill-rule="evenodd" transform="matrix(1 0 0 -1 344 421)"/><path d="M2.71288 0.0395116C2.19583 1.21196 0.548237 0.751543-0.216119 0.2737-0.343051 0.193991-0.288273-0.0688709-0.142583-0.0544656 0.338448-0.0130333 0.803368 0.16861 1.28313 0.192482 1.62526 0.208396 1.85772 0.123885 2.15566-0.0655783 2.34946-0.189875 2.36948-0.215393 2.58733-0.221704L2.71288 0.0395116" fill="#3B2645" fill-rule="evenodd" transform="matrix(1 0 0 -1 351 421)"/><path d="M18.3983 1.76685 18.738 0.480768C15.617 0.361586 12.5047 0.254019 9.38491 0.171871 6.21018 0.0781079 2.95105-0.265971-0.261976-0.230789-0.0690973 0.23062 0.140395 0.680077 0.348677 1.15125 3.23602 1.30561 6.14889 1.21168 8.99915 1.32901 12.1266 1.47176 15.2618 1.61434 18.3983 1.76685" fill="#00A19A" fill-rule="evenodd" transform="matrix(1 0 0 -1 327 446)"/><path d="M16.7318 0.489067C13.3002 0.189368 9.80929 0.245269 6.40655 0.0961551 4.17796-0.00789034 1.95905-0.10097-0.268287-0.186426-0.14387 0.178536-0.0207015 0.55433 0.0892558 0.920762 2.31659 1.02481 12.672 1.7003 15.6362 1.81371 15.9068 1.54035 16.1556 1.24066 16.3887 0.940956 16.5059 0.790371 16.6146 0.639652 16.7318 0.489067" fill="#00A19A" fill-rule="evenodd" transform="matrix(1 0 0 -1 356 445)"/><path d="M25.394 0.839594 25.7522-0.0585123C17.0977-0.110147 8.40668-0.243995-0.247825 0.0225373-0.166745 0.23024-0.0869161 0.4317 0.00145902 0.639297 8.45035 0.93789 16.9294 0.855571 25.394 0.839594" fill="#00A19A" fill-rule="evenodd" transform="matrix(1 0 0 -1 323 454)"/><path d="M27.7214-0.0159334C25.338-0.0653271 22.9609-0.0539966 20.6688-0.0715234 14.7428-0.134195 0.780308-0.109498-0.278682-0.115694-0.134651 0.11357 0.0155242 0.363282 0.17454 0.629548 0.954309 0.629548 14.6215 0.649022 20.6688 0.72922 22.8708 0.760025 25.0726 0.804196 27.2758 0.884394 27.4335 0.58635 27.5775 0.288218 27.7214-0.0159334" fill="#00A19A" fill-rule="evenodd" transform="matrix(1 0 0 -1 351 454)"/><path d="M35.7368 0.176923C34.8784 0.162712 34.0202 0.148501 33.1767 0.124091 28.5174 0.00482763 23.8594-0.066227 19.2-0.0804379 14.4148-0.0953967 9.63697-0.052016 4.85045 0.0624872 3.5674 0.0909091 2.26819 0.119331 0.976534 0.152512L0.96792 0.597743C0.788821 0.630924 0.596216 0.659346 0.415841 0.697219 0.192393 0.740668-0.0311615 0.7833-0.26333 0.830693 1.68538 0.777793 3.64142 0.71619 5.59013 0.683008 10.1223 0.611953 14.6606 0.578024 19.2 0.596995 23.8594 0.615897 28.5174 0.692527 33.1767 0.821174 34.0115 0.844904 34.8488 0.878017 35.6922 0.916706L35.7368 0.176923" fill="#00A19A" fill-rule="evenodd" transform="matrix(1 0 0 -1 332 463)"/><path d="M34.7356 0.27097C29.8793-0.0596731 24.9859-0.0423137 20.22-0.0896453 13.4789-0.165186 6.52121-0.327389-0.249619 0.444294L-0.264434 1.84254C2.52496 1.71031 5.31575 1.47094 8.09907 1.37642 12.1399 1.23469 16.1805 1.18587 20.22 1.22371 24.3808 1.26154 28.5403 1.40476 32.6998 1.652 33.3657 1.69146 34.024 1.73866 34.6898 1.79535L34.7356 0.27097" fill="#00A19A" fill-rule="evenodd" transform="matrix(1 0 0 -1 333 470)"/><path d="M34.7365 0.776603C33.8056 0.728568 32.8662 0.671225 31.9342 0.615146 28.0138 0.357619 24.0786 0.162836 20.1508 0.050678 16.2157-0.0694093 12.2879-0.125373 8.35262-0.118708 5.51214-0.110779 2.60647-0.190761-0.248872 0.050678L-0.26363 0.971386C2.8443 1.1009 5.98929 0.905999 9.09106 0.914043 12.7798 0.922087 16.4622 0.987474 20.1508 1.1009 23.8333 1.2196 27.5219 1.38106 31.2044 1.60791 32.367 1.67996 33.5369 1.76798 34.7069 1.87474L34.7365 0.776603" fill="#00A19A" fill-rule="evenodd" transform="matrix(1 0 0 -1 333 478)"/><path d="M33.7453 0.940944C32.3478 0.786892 30.9505 0.662739 29.5758 0.52938 25.859 0.175338 22.1291-0.0258403 18.3981-0.0821742 14.5527-0.14425 10.6989-0.0477204 6.86063 0.209792 4.54116 0.370774 2.12167 0.487996-0.240585 0.836394L-0.254846 1.75368C2.23606 1.54448 4.7282 1.2042 7.20607 1.05826 10.9371 0.828276 14.667 0.745508 18.3981 0.801841 22.1291 0.857086 25.859 1.0651 29.5758 1.40538 30.9576 1.53072 32.3335 1.71229 33.7096 1.89971L33.7453 0.940944" fill="#00A19A" fill-rule="evenodd" transform="matrix(1 0 0 -1 334 486)"/></g></svg>