<svg width="77" height="209" xmlns="http://www.w3.org/2000/svg" xmlns:xlink="http://www.w3.org/1999/xlink" overflow="hidden"><defs><clipPath id="clip0"><rect x="387" y="403" width="77" height="209"/></clipPath></defs><g clip-path="url(#clip0)" transform="translate(-387 -403)"><path d="M54.4877 0.0168306C47.2762 0.0168306 39.9458 0.483827 33.3267 0.488503 26.1857 0.494632 19.035 0.487048 11.8951 0.589798 11.5649 0.593122 11.2372 0.596031 10.9119 0.596031 10.5149 0.596031 10.1229 0.593122 9.73446 0.590837 9.34359 0.587408 8.95763 0.585123 8.57523 0.585123 5.37801 0.585123 2.47569 0.760909-0.0928306 2.58401-0.397457 2.7998-0.397457 3.23147-0.0928306 3.44871 2.41746 5.23047 5.4217 5.4981 8.60805 5.4981 9.29508 5.4981 9.98943 5.48636 10.6897 5.4741 11.3926 5.4609 12.1003 5.44906 12.8103 5.44906 12.9815 5.44906 13.1527 5.44999 13.3238 5.45145 19.9903 5.51409 26.6591 5.53674 33.3267 5.54194 39.9519 5.54765 47.2787 6.01693 54.4914 6.01693 60.7159 6.01693 66.8543 5.66734 72.3846 4.36899 74.1107 3.96381 74.1095 2.06518 72.3846 1.66093 66.8615 0.365598 60.7196 0.0168306 54.4877 0.0168306" fill="#DADADA" fill-rule="evenodd" transform="matrix(1 0 0 -1 388 611)"/><path d="M24.3873 13.2776C24.2626 10.9451 24.1097 8.81796 23.9709 7.07464 23.8921 6.05206 23.8133 5.15623 23.7475 4.44516 23.7204 4.14094 23.6945 3.69905 23.6674 3.21131 23.5945 1.75413 23.5228-0.102621 23.5228-0.102621 23.5228-0.102621 19.6116-0.422547 17.3932 3.00732 17.5578 2.83223 17.6237 3.22587 17.6108 4.04559 17.6108 4.19521 17.6037 4.36302 17.5978 4.5405 17.5649 5.33371 17.4849 6.38405 17.3661 7.6179 17.2144 9.24404 16.9967 11.1915 16.7391 13.2643 15.8275 20.7687 14.4406 30.008 13.8325 32.3066 13.4961 33.5803 8.91914 44.2985 5.68206 51.6266 5.59616 51.8101 5.51734 51.9863 5.45149 52.1627 4.40107 54.5011 1.89085 59.8083 1.3898 60.9685 0.814589 62.2905 0.312321 63.639-0.0111435 65.0345-0.776903 68.3968-0.102925 72.1261 1.37561 75.1902 2.12962 76.7632 3.43067 78.0381 4.98215 78.7552 5.54327 79.0063 5.82085 79.936 6.42189 79.8877L6.48196 79.8744C7.60411 79.732 9.81082 78.2204 10.4177 77.3451 13.635 72.7974 15.4898 68.6358 16.7591 64.6217 18.4565 59.2807 19.0834 54.1679 20.4973 48.6108 22.2277 41.9056 23.6804 35.9815 24.0509 33.5272 24.8967 27.9073 24.7378 19.7993 24.3873 13.2776" fill="#F5A784" fill-rule="evenodd" transform="matrix(1 0 0 -1 438 516)"/><path d="M7.46713 13.6755C7.46713 13.6755 7.39002 11.9203 7.50896 9.72864 7.63236 7.5382 7.93408 2.73265 7.27658 1.28254 7.27658 1.28254 7.09267 1.04602 6.74903 0.761011L6.58712 0.640305C6.26444 0.407346 5.83382 0.163692 5.28863 0.0383001L5.16096 0.00753779C4.77435-0.0740537 4.32723-0.101251 3.84264-0.0137514L3.72038 0.011103C3.34924 0.0796561 2.95049 0.200363 2.52319 0.398994 2.52319 0.398994 2.32277 5.30039 1.71042 6.81905 1.71042 6.81905 1.11676 3.85976 0.270985 3.5889L-0.313858 3.75331C-0.313858 3.75331-0.0131841 7.01656-0.00322489 8.48205 0.0209618 12.0493 2.62895 14.5508 2.62895 14.5508 2.62895 14.5508 6.1786 15.8412 7.46713 13.6755" fill="#F5A784" fill-rule="evenodd" transform="matrix(1 0 0 -1 454 526)"/><path d="M0.36281 0.0634344 0.112626-0.0721366C0.182431 2.26383-0.202522 4.55457-0.488488 6.90657L-0.384661 6.92786C0.621645 4.72209 0.630298 2.3702 0.36281 0.0634344" fill="#E0855C" fill-rule="evenodd" transform="matrix(1 0 0 -1 461 526)"/><path d="M7.64852 10.2233C7.51807 7.83606 7.35817 5.65898 7.213 3.87477 7.13056 2.82821 7.04812 1.91148 6.97924 1.18372 6.95095 0.872257 6.92382 0.420114 6.89553-0.079064L6.67407-0.079064C4.68448-0.113648 2.45382 0.170472 0.837013 1.09966L0.546671 1.2813C0.512232 2.09312 0.428626 3.16799 0.30433 4.43077 0.145595 6.09516-0.0820165 8.08815-0.351484 10.2097 0.214472 10.7027 1.03019 10.9313 2.14991 10.9176 4.00164 10.8892 5.84606 10.6545 7.64852 10.2233" fill="#EDEDED" fill-rule="evenodd" transform="matrix(1 0 0 -1 455 513)"/><path d="M22.937 0.00250503C20.8332-0.165958 18.1305-0.268977 16.1284 0.54787 15.401 8.08017 13.2826 22.3861 12.486 25.3324 12.1392 26.6109 7.42104 37.3707 4.08401 44.7272 3.99556 44.9115 3.91432 45.0884 3.84644 45.2653 2.76361 47.6128 0.175963 52.9406-0.340648 54.1053-0.191419 56.8334 0.1226 59.5627 0.523921 62.2508 1.10841 66.1849 3.11032 70.1855 5.9841 72.8857 7.11423 72.75 8.34013 71.4241 8.96586 70.5454 12.2822 65.98 14.1944 61.8024 15.5028 57.7727 17.2525 52.411 17.8988 47.2784 19.3564 41.6997 21.14 34.9686 22.6375 29.0216 23.0195 26.5577 24.2042 18.8945 23.4827 6.62464 22.937 0.00250503" fill="#3B2645" fill-rule="evenodd" transform="matrix(1 0 0 -1 439 509)"/><path d="M18.7403 4.70939C18.8322 3.35721 18.7463 2.35006 18.6179 1.64931 18.4762 0.874247 17.8866 0.30651 17.194 0.2645 13.3894 0.0630697 0.188543-0.524854-0.2776 1.30733-0.830922 3.44887 8.17907 6.04465 9.51097 6.61086 9.73747 6.70983 9.93362 6.94694 10.1056 7.2899 10.9157 8.92076 11.0815 12.7891 11.0815 13.0132L19.698 13.0132C19.698 13.0132 18.2861 9.0816 18.6785 5.41527 18.7039 5.17073 18.7282 4.93111 18.7403 4.70939" fill="#F5A784" fill-rule="evenodd" transform="matrix(1 0 0 -1 390 610)"/><path d="M18.5396 1.58932C18.3986 0.843733 17.8113 0.297584 17.1216 0.257067 13.3332 0.0632957 0.188161-0.502272-0.276115 1.26035-0.827098 3.32035 8.14482 5.81754 9.47118 6.36221 9.69662 6.45742 9.89195 6.68541 10.0632 7.01533 10.7722 6.79405 11.3896 6.36841 11.7126 5.56761 11.8236 5.29815 11.8971 4.99627 12.0491 4.74634 12.3733 4.24879 12.9908 4.07454 13.5466 4.13458 14.1024 4.19547 14.6221 4.44403 15.1599 4.61964 16.3029 4.99627 17.5677 5.03007 18.6614 4.53304 18.753 3.23228 18.6674 2.26342 18.5396 1.58932" fill="#3B2645" fill-rule="evenodd" transform="matrix(1 0 0 -1 390 610)"/><path d="M0.618606 4.70939C0.526629 3.35721 0.612558 2.35006 0.74093 1.64931 0.88265 0.874247 1.47112 0.30651 2.16491 0.2645 5.97072 0.0630697 19.1704-0.524854 19.6366 1.30733 20.1888 3.44887 11.1799 6.04465 9.8491 6.61086 9.62145 6.70983 9.4253 6.94694 9.25333 7.2899 8.44326 8.92076 8.27745 12.7891 8.27745 13.0132L-0.339128 13.0132C-0.339128 13.0132 1.07276 9.0816 0.679195 5.41527 0.655001 5.17073 0.630703 4.93111 0.618606 4.70939" fill="#F5A784" fill-rule="evenodd" transform="matrix(1 0 0 -1 440 610)"/><path d="M-0.177984 1.58932C-0.0369676 0.843733 0.549114 0.297584 1.23997 0.257067 5.02967 0.0632957 18.1734-0.502272 18.6377 1.26035 19.1874 3.32035 10.2168 5.81754 8.89164 6.36221 8.66496 6.45742 8.46963 6.68541 8.2984 7.01533 7.58937 6.79405 6.97213 6.36841 6.64773 5.56761 6.53797 5.29815 6.4657 4.99627 6.31253 4.74634 5.98823 4.24879 5.37089 4.07454 4.81503 4.13458 4.25917 4.19547 3.73944 4.44403 3.20175 4.61964 2.05866 4.99627 0.793869 5.03007-0.299791 4.53304-0.391379 3.23228-0.305813 2.26342-0.177984 1.58932" fill="#3B2645" fill-rule="evenodd" transform="matrix(1 0 0 -1 441 610)"/><path d="M55.674 1.90055C52.1439-0.0478811 44.1525-1.10704 39.61 1.49335 34.8263 52.3936 30.8638 83.6057 29.4047 94.4154 29.1079 96.6283 28.8653 98.3389 28.6646 99.7007 28.6646 99.7007 28.2706 97.9073 27.586 94.3679 25.388 83.14 19.996 46.3061 15.0731 1.64192 8.47804-0.263556 6.41556-0.0478811-0.325985 1.90055 0.773604 17.2018 6.35278 95.998 6.41556 96.6953 6.91302 102.412 7.38959 106.863 7.79097 108.614 9.3474 115.454 10.6612 118.945 10.6612 118.945 12.044 122.102 13.5856 124.443 15.1888 126.079 20.3469 131.357 26.0024 129.05 28.2226 121.547 31.1409 131.379 39.9277 132.288 45.7913 118.945 45.7913 118.945 46.3097 117.295 47.0559 113.215 47.7405 109.438 48.6185 103.577 49.4694 94.9909 50.3263 86.2893 51.1428 74.7944 51.6882 59.8504 51.8889 54.2164 54.6027 17.4362 55.674 1.90055" fill="#3B2645" fill-rule="evenodd" transform="matrix(1 0 0 -1 397 602)"/><path d="M42.6742 0.549824C42.4529 0.536623 42.2315 0.529403 42.0114 0.522287 35.9619 0.355823 23.0417-0.00825098 22.6346-0.0154706 22.3382 2.15815 22.096 3.83835 21.8955 5.17594 21.8955 5.17594 21.502 3.41436 20.8182-0.0621917 17.8138-0.123249 14.8106-0.123249 11.827 0.119845 8.1672 0.415643 3.45828 0.859958-0.32579 2.22395 0.17105 7.83935 0.646919 12.2105 1.04791 13.9314 2.60229 20.6497 3.91456 24.0784 3.91456 24.0784 5.29557 27.1789 6.83533 29.4783 8.43653 31.0853 13.5882 36.2696 19.2366 34.0038 21.454 26.634 24.3687 36.2912 33.1445 37.1846 39.0008 24.0784 39.0008 24.0784 39.5186 22.4581 40.2638 18.4498 40.9476 14.7397 41.8245 8.98304 42.6742 0.549824" fill="#2F1D36" fill-rule="evenodd" transform="matrix(1 0 0 -1 404 507)"/><path d="M0.466592 2.89311C0.265831 3.18526 0.158744 3.58814 0.0674793 4.15986-0.2038 5.87861-0.524955 7.47287-0.157591 9.21808 0.246341 11.1421 1.45447 12.9629 3.22842 13.6744 3.56414 13.8091 3.92187 13.9061 4.21756 14.1214 4.53505 14.3506 4.75289 14.6944 4.99253 15.0092 6.1557 16.5454 7.95879 17.4987 9.82882 17.7492 11.6976 17.9985 13.6199 17.5779 15.3159 16.7254 16.9949 15.883 18.489 14.5949 19.455 12.9429 20.6412 10.913 20.9697 7.88963 20.4149 5.59405 18.5632-2.07576 18.0424 0.107686 18.0424 0.107686 16.181 0.286513 14.3207 0.484209 12.4604 0.693292 9.96378 0.975359 7.466 1.2738 4.98037 1.65022 3.98641 1.80139 3.0021 2.01166 2.0117 2.17162 1.19294 2.30132 0.742796 2.49262 0.466592 2.89311" fill="#3B2645" fill-rule="evenodd" transform="matrix(1 0 0 -1 416 421)"/><path d="M-0.147912 5.11337C-0.147912 5.11337 1.58359 6.82363 3.19259 5.02281 4.80279 3.2219 1.84412-0.0631934-0.331785-0.152685-0.331785-0.152685-0.424931 4.36285-0.147912 5.11337" fill="#E0855C" fill-rule="evenodd" transform="matrix(1 0 0 -1 434 423)"/><path d="M41.6749 48.7878C41.6405 45.0981 41.1655 39.1579 40.5236 32.7209 40.4132 31.6291 36.8501 1.18728 36.8501 1.18728 36.8501 1.18728 21.6541-2.3117 7.25103 2.08723 7.25103 2.08723 7.24247 2.22321 7.2302 2.46127 7.09152 5.0786 5.94147 20.3972 5.37564 25.8735 5.31423 26.3921 5.26645 26.8208 5.2247 27.1487 5.15588 27.688 5.06879 28.2394 4.96202 28.8127 4.83317 29.5074 4.72028 30.1838 4.57663 30.8652 3.14921 37.6349 0.504204 44.7228-0.309499 46.8094-0.440782 47.1713 0.300514 48.3372 0.647855 48.5351 0.892029 48.6736 1.19275 48.8267 1.55859 48.9712 3.19456 49.621 5.90712 50.3484 9.88991 50.9703 10.29 51.031 10.6962 51.0845 11.1098 51.1343 12.1654 51.2594 13.2675 51.3383 14.3968 51.3516L14.5219 51.3444 14.7146 51.3516C14.997 51.3795 15.2731 51.3795 15.5628 51.365 15.5628 51.365 15.5628 51.4598 15.5689 51.6382 15.5762 52.067 15.5971 52.9621 15.5971 54.0783 15.5897 54.9867 15.5897 56.0299 15.548 57.0866 15.5272 58.6217 15.4314 60.1763 15.2866 61.3763 15.2731 61.499 15.2448 61.6083 15.2387 61.7175L15.224 61.799 15.2105 61.8681 15.4179 61.7042C15.5001 61.6155 15.6107 61.5475 15.7481 61.4516L15.8524 61.3568C16.1335 61.1649 16.4379 60.9597 16.7741 60.7423 17.3056 60.4071 17.9598 60.033 18.7392 59.6978 18.8558 59.6504 18.9944 59.5897 19.111 59.5424L19.2497 59.4938C19.4007 59.4124 19.559 59.365 19.732 59.3165 20.2549 59.1124 20.8208 58.9412 21.4063 58.7979 21.7585 58.7165 22.1169 58.6557 22.4949 58.5938 22.7502 58.5464 23.0129 58.5124 23.2939 58.4918 23.8254 58.4165 24.3972 58.3995 24.9766 58.4031 25.4725 58.4055 25.9487 58.4432 26.4163 58.5124 26.6716 58.5258 26.9195 58.5622 27.1601 58.6096L27.6154 51.2836C27.6154 51.2836 27.7737 51.2763 28.0709 51.2702 28.1739 51.2666 28.2978 51.2702 28.4292 51.2484 28.6145 51.2362 29.6492 51.1816 30.0003 51.1609 30.8888 51.1063 31.964 51.025 33.1091 50.901 34.1561 50.7856 35.2655 50.6423 36.3408 50.4577 37.6369 50.2391 39.2901 50.1651 40.3997 49.8578L40.4622 49.8444C41.1925 49.6392 41.6884 49.3258 41.6749 48.7878" fill="#F5A784" fill-rule="evenodd" transform="matrix(1 0 0 -1 404 486)"/><path d="M-0.346763 6.85435C1.36689-0.911773 10.4819-0.620378 12.6533 0.344078L12.3969 3.84139C4.85558 2.73291-0.346763 6.85435-0.346763 6.85435" fill="#E0855C" fill-rule="evenodd" transform="matrix(1 0 0 -1 419 431)"/><path d="M14.6656 17.2825C15.6679 16.15 15.6798 13.6834 15.6833 10.9555 15.6976 2.69519 13.1993 0.193388 9.05707-0.129867 4.91499-0.45553 0.644268 1.30035-0.0151713 8.97979-0.343712 12.8195-0.711514 16.3688 0.701366 17.9788 2.807 20.3786 11.5912 20.7528 14.6656 17.2825" fill="#F5A784" fill-rule="evenodd" transform="matrix(1 0 0 -1 419 429)"/><path d="M3.23064 4.70339C3.23064 4.70339 2.19756 8.05773 0.374048 6.3599-1.44947 4.66338 0.864626-0.427682 3.58982-0.149364 3.58982-0.149364 4.06351 3.53975 3.23064 4.70339" fill="#F5A784" fill-rule="evenodd" transform="matrix(1 0 0 -1 416 424)"/><path d="M-0.172507 1.84631C0.417765 1.76242 1.00652 1.36259 1.4225 1.07661 1.85928 0.778449 2.36646 0.407437 2.57287 0.00209235 2.6368-0.124875 2.38093-0.197727 2.26092-0.11603 1.92335 0.114794 1.65618 0.38756 1.34258 0.635979 1.10421 0.469257 0.862536 0.298065 0.537776 0.224072 0.288247 0.166627 0.113811 0.382044 0.228999 0.520044 0.376154 0.696752 0.638635 0.820391 0.897809 0.93528 0.481835 1.16934-0.0253525 1.35822-0.366096 1.62984-0.497267 1.73484-0.354935 1.8717-0.172507 1.84631" fill="#E0855C" fill-rule="evenodd" transform="matrix(1 0 0 -1 417 421)"/><path d="M0.0638405-0.139753C0.0638405-0.139753 0.746459-0.425912 0.679482 0.832276 0.618373 1.96475 0.122622 1.82708 0.122622 1.82708 0.122622 1.82708-0.356738 1.84642-0.313233 0.857544-0.269729-0.132474 0.0638405-0.139753 0.0638405-0.139753" fill="#3B2645" fill-rule="evenodd" transform="matrix(1 0 0 -1 431 418)"/><path d="M0.0701204-0.140094C0.0701204-0.140094 0.751492-0.425065 0.68461 0.833281 0.623495 1.9636 0.127694 1.82714 0.127694 1.82714 0.127694 1.82714-0.350501 1.84649-0.308206 0.856266-0.264697-0.132813 0.0701204-0.140094 0.0701204-0.140094" fill="#3B2645" fill-rule="evenodd" transform="matrix(1 0 0 -1 424 418)"/><path d="M-0.213309 0.139975C0.166685 0.178916 1.02572-0.0410454 1.21626 0.311046 1.37397 0.604392 0.828718 2.37413 0.752435 2.67742 0.481777 3.76948 0.180584 4.5127-0.00744227 5.81802L0.124658 5.84692C0.940571 4.09603 1.19087 1.95085 1.65601 0.102279 1.68141 0.00114812 1.59254-0.104384 1.4705-0.0988343 0.916384-0.0754891 0.373755-0.163321-0.179052-0.152222-0.363248-0.147725-0.407792 0.119979-0.213309 0.139975" fill="#E0855C" fill-rule="evenodd" transform="matrix(1 0 0 -1 428 421)"/><path d="M0.309182-0.0578986 0.118586-0.0353311C0.237025 1.96004-0.176697 3.91463-0.48928 5.92397L-0.375869 5.94219C0.631968 3.99834 0.655922 1.9557 0.309182-0.0578986" fill="#E0855C" fill-rule="evenodd" transform="matrix(1 0 0 -1 458 526)"/><path d="M0.309375-0.0300798 0.108929-0.0581172C0.224702 1.95018-0.188244 3.90676-0.494048 5.92471L-0.38869 5.94198C0.622173 4.00805 0.651488 1.97385 0.309375-0.0300798" fill="#E0855C" fill-rule="evenodd" transform="matrix(1 0 0 -1 459 526)"/><path d="M-0.185363 0.871162C0.495294 0.700754 1.11481 0.423483 1.82879 0.32027 2.78331 0.181198 3.54102 0.358985 4.45834 0.489806 4.58462 0.508211 4.71892 0.391194 4.5979 0.323998 3.20739-0.454423 0.83568-0.146767-0.319548 0.713606-0.40599 0.778104-0.322296 0.906148-0.185363 0.871162" fill="#E0855C" fill-rule="evenodd" transform="matrix(1 0 0 -1 426 424)"/><path d="M-0.121279 0.635487C0.397883 0.875977 1.41698 0.91988 1.71087 0.0651381 1.74986-0.0497655 1.70373-0.226811 1.60229-0.213132 1.35444-0.182908 1.14761 0.0303543 0.903903 0.107608 0.596604 0.201277 0.289394 0.171053-0.0107607 0.041037-0.108049-0.00130276-0.189989 0.0726941-0.246262 0.181605L-0.274928 0.337415C-0.282161 0.475117-0.205336 0.597707-0.121279 0.635487" fill="#3B2645" fill-rule="evenodd" transform="matrix(1 0 0 -1 431 414)"/><path d="M-0.347526 0.0386591C0.167931 1.21114 1.81803 0.752771 2.58204 0.272506 2.70819 0.192484 2.65429-0.0712355 2.50708-0.0570424 2.02718-0.0162206 1.56302 0.168965 1.08176 0.189376 0.739894 0.206542 0.508436 0.12179 0.208697-0.0696134 0.0154003-0.192079-0.00566187-0.215599-0.222625-0.221952L-0.347526 0.0386591" fill="#3B2645" fill-rule="evenodd" transform="matrix(1 0 0 -1 423 414)"/><path d="M21.6741 35.1386 14.4926-0.132841-0.326001 35.369C0.728323 35.4962 1.8318 35.5707 2.96107 35.5839L3.08623 35.5767 3.27893 35.5839C3.56128 35.6115 3.83738 35.6115 4.12702 35.5971 4.12702 35.5971 4.12702 35.6907 4.13315 35.8672L11.4596 33.3669 18.565 35.3954C19.4537 35.3414 20.529 35.261 21.6741 35.1386" fill="#EDEDED" fill-rule="evenodd" transform="matrix(1 0 0 -1 415 470)"/><path d="M7.6876 10.3751 5.6489-0.132841 2.45735 7.88194 2.49721 28.6686-0.312404 31.4258 1.74264 35.7363 4.3449 35.8672 6.76673 32.4569 5.24003 29.126 7.6876 10.3751" fill="#9D9D9C" fill-rule="evenodd" transform="matrix(1 0 0 -1 424 470)"/><path d="M-0.323021 6.93774 1.43445 9.8411 7.67708 7.11415 5.52298-0.159006-0.323021 6.93774" fill="#DADADA" fill-rule="evenodd" transform="matrix(1 0 0 -1 418 441)"/><path d="M-0.312603 6.17321C-0.192925 5.99568 2.68635-0.152685 2.68635-0.152685L5.6875 5.62576 2.58168 8.84731-0.312603 6.17321" fill="#DADADA" fill-rule="evenodd" transform="matrix(1 0 0 -1 429 440)"/><path d="M44.6745 1.59533C39.5595-1.00908 28.3261 0.12766 28.3261 0.12766L25.2644 16.9533C24.255 13.7994 19.7543 0.347438 19.7543 0.347438 15.3101-0.872276-0.325592 3.32306-0.325592 3.32306 0.0265054 7.7041 4.96923 17.8373 6.55234 28.3552 8.14171 38.8791 1.31912 63.28 1.31912 63.28 0.330575 66.7757 8.42479 68.1946 12.3445 68.6756 13.5755 68.8259 14.3905 68.8808 14.3905 68.8808L27.5382 37.4664 34.6512 68.4693 43.5407 66.9943C44.0725 66.9063 44.4529 66.44 44.4259 65.9051 44.2461 62.5254 43.5543 50.6021 42.2063 39.9414 40.617 27.3674 44.6745 1.59533 44.6745 1.59533" fill="#3B2645" fill-rule="evenodd" transform="matrix(1 0 0 -1 402 503)"/><path d="M3.32676 30.8643 16.6719-0.135731 2.34457 15.1751 5.52347 20.3574-0.328221 21.2779C-0.328221 21.2779 0.815171 28.3146 1.25004 30.6618 2.49953 30.81 3.32676 30.8643 3.32676 30.8643" fill="#2F1D36" fill-rule="evenodd" transform="matrix(1 0 0 -1 413 465)"/><path d="M7.28272 21.6229 10.0589 19.6059-0.326251-0.137322 6.6269 30.8627 9.36335 30.3962 10.6739 22.9047 7.28272 21.6229" fill="#2F1D36" fill-rule="evenodd" transform="matrix(1 0 0 -1 430 465)"/><path d="M11.6698 49.8763C11.6698 49.8763 4.46405 42.9934 2.00982 29.6597-0.444194 16.3271-3.05491 0.761781 6.13921 0.0706411 15.3333-0.620499 32.7788 0.753367 32.7788 0.753367 32.7788 0.753367 35.2868 7.08853 31.9693 10.8495L11.5928 12.1053 15.4496 28.4317C15.4496 28.4317 16.1893 42.7293 11.6698 49.8763" fill="#3B2645" fill-rule="evenodd" transform="matrix(1 0 0 -1 393 487)"/><path d="M10.0474 1.07373 1.82633-0.128924C0.796687-0.277462-0.138079 0.614005-0.262577 1.86522L-0.285508 2.09998C-0.408825 3.35119 0.324777 4.48711 1.35442 4.63709L9.57658 5.83831C10.6062 5.98959 11.541 5.09669 11.6644 3.84692L11.6872 3.61084C11.8118 2.35962 11.077 1.2237 10.0474 1.07373" fill="#EDEDED" fill-rule="evenodd" transform="matrix(1 0 0 -1 414 463)"/><path d="M23.6289 2.00723 6.79076-0.0874197C4.88791-0.323175 3.16009 1.08035 2.93105 3.04964L-0.289553 30.7703C-0.518593 32.7409 0.838713 34.5278 2.74156 34.7661L19.5786 36.8607C21.4815 37.0977 23.2105 35.693 23.4394 33.7237L26.6602 6.00171C26.8891 4.03242 25.5318 2.24555 23.6289 2.00723" fill="#00A19A" fill-rule="evenodd" transform="matrix(1 0 0 -1 408 495)"/><path d="M0.66046 1.42638C0.66046 1.42638 2.52881 1.28466 4.82832 0.87627 7.12662 0.464358 12.1657-0.474909 13.7919 0.0511011 13.7919 0.0511011 14.0693 0.220438 14.421 0.555595L14.571 0.715312C14.8635 1.03485 15.1837 1.47086 15.3943 2.0426L15.4459 2.17707C15.5872 2.58547 15.6818 3.06596 15.6578 3.6017L15.649 3.73617C15.6301 4.14695 15.5582 4.59382 15.4095 5.08146 15.4095 5.08146 10.2556 5.92349 8.73907 6.77865 8.73907 6.77865 11.9526 7.04409 12.361 7.92574L12.2702 8.58033C12.2702 8.58033 8.77685 8.67043 7.22488 8.84577 3.44909 9.27454 0.429739 6.77017 0.429739 6.77017 0.429739 6.77017-1.44372 3.09482 0.66046 1.42638" fill="#F5A784" fill-rule="evenodd" transform="matrix(1 0 0 -1 423 486)"/><path d="M6.65451-0.0752097 6.64551 0.0213082C4.28543 0.164452 2.02347 0.566189-0.313777 0.92479L-0.345604 0.870517C1.84886 0.172173 4.25229-0.0450664 6.65451-0.0752097" fill="#E0855C" fill-rule="evenodd" transform="matrix(1 0 0 -1 432 482)"/><path d="M6.60197-0.148833 6.65428 0.0450377C4.28468 0.334203 2.02619 1.14115-0.316488 1.85117L-0.34583 1.75065C1.83223 0.355082 4.2171-0.0848557 6.60197-0.148833" fill="#E0855C" fill-rule="evenodd" transform="matrix(1 0 0 -1 432 484)"/><path d="M6.4742-0.0742081 6.6347 0.0422323C4.2758 0.19902 2.00721 0.585143-0.332868 0.925792L-0.365295 0.874133C1.75616 0.178884 4.12331-0.0199095 6.4742-0.0742081" fill="#E0855C" fill-rule="evenodd" transform="matrix(1 0 0 -1 431 485)"/><path d="M30.9938 10.658 9.78351 11.8961C9.78351 11.8961 2.01618 8.91554-0.312439 4.43513 0.619199 1.88271 2.33609 0.242561 5.19957 0.0296031 14.3809-0.651882 31.7387 1.49736 31.7387 1.49736 31.7387 1.49736 34.3066 6.94945 30.9938 10.658" fill="#3B2645" fill-rule="evenodd" transform="matrix(1 0 0 -1 394 487)"/><path d="M5.56174 1.63866C5.56174 1.63866 1.60529 1.0951-0.011654-0.0454969-1.6286-1.18478 4.22459 10.8219 7.71191 11.8784L5.56174 1.63866" fill="#2F1D36" fill-rule="evenodd" transform="matrix(1 0 0 -1 399 477)"/><path d="M1.24835 3.11897C0.759673 3.11897 0.361112 2.71394 0.361112 2.21732L0.361112 1.42897C0.361112 0.931041 0.759673 0.527323 1.24835 0.527323L4.08803 0.527323C4.57671 0.527323 4.97527 0.931041 4.97527 1.42897L4.97527 2.21732C4.97527 2.71394 4.57671 3.11897 4.08803 3.11897ZM4.08803-0.176908 1.24835-0.176908C0.377408-0.176908-0.331864 0.542678-0.331864 1.42897L-0.331864 2.21732C-0.331864 3.10241 0.377408 3.8232 1.24835 3.8232L4.08803 3.8232C4.95897 3.8232 5.66824 3.10241 5.66824 2.21732L5.66824 1.42897C5.66824 0.542678 4.95897-0.176908 4.08803-0.176908" fill="#00A19A" fill-rule="evenodd" transform="matrix(1 0 0 -1 422 419)"/><path d="M1.03552 3.11897C0.628294 3.11897 0.29625 2.71394 0.29625 2.21732L0.29625 1.42897C0.29625 0.931041 0.628294 0.527323 1.03552 0.527323L3.40192 0.527323C3.80916 0.527323 4.14129 0.931041 4.14129 1.42897L4.14129 2.21732C4.14129 2.71394 3.80916 3.11897 3.40192 3.11897ZM3.40192-0.176908 1.03552-0.176908C0.30974-0.176908-0.28132 0.542678-0.28132 1.42897L-0.28132 2.21732C-0.28132 3.10241 0.30974 3.8232 1.03552 3.8232L3.40192 3.8232C4.12771 3.8232 4.71877 3.10241 4.71877 2.21732L4.71877 1.42897C4.71877 0.542678 4.12771-0.176908 3.40192-0.176908" fill="#00A19A" fill-rule="evenodd" transform="matrix(1 0 0 -1 430 419)"/><path d="M2.60466-0.251207-0.395341-0.251207-0.395341 0.748793 2.60466 0.748793 2.60466-0.251207" fill="#00A19A" fill-rule="evenodd" transform="matrix(1 0 0 -1 427 418)"/></g></svg>