<svg width="77" height="204" xmlns="http://www.w3.org/2000/svg" xmlns:xlink="http://www.w3.org/1999/xlink" overflow="hidden"><defs><clipPath id="clip0"><rect x="446" y="379" width="77" height="204"/></clipPath></defs><g clip-path="url(#clip0)" transform="translate(-446 -379)"><path d="M55.9121 0.0168306C48.5051 0.0168306 40.9765 0.483827 34.1777 0.488503 26.8437 0.494632 19.5012 0.487048 12.1684 0.589798 11.8279 0.593122 11.4923 0.596031 11.1579 0.596031 10.7505 0.596031 10.3468 0.593122 9.94796 0.590837 9.54664 0.587408 9.15024 0.585123 8.75741 0.585123 5.47406 0.585123 2.49233 0.760909-0.144002 2.58401-0.457769 2.7998-0.457769 3.23147-0.144002 3.44871 2.43274 5.23047 5.51909 5.4981 8.79144 5.4981 9.49679 5.4981 10.2106 5.48636 10.9293 5.4741 11.6516 5.4609 12.3776 5.44906 13.1072 5.44906 13.2823 5.44906 13.4587 5.44999 13.635 5.45145 20.4814 5.51409 27.3301 5.53674 34.1777 5.54194 40.9826 5.54765 48.5076 6.01693 55.9158 6.01693 62.3073 6.01693 68.6124 5.66734 74.2914 4.36899 76.0656 3.96381 76.062 2.06518 74.2914 1.66093 68.6198 0.365598 62.3109 0.0168306 55.9121 0.0168306" fill="#DADADA" fill-rule="evenodd" transform="matrix(1 0 0 -1 447 582)"/><path d="M-0.341527 1.52253 0.284096 17.0039 8.6564 16.0192 6.5573 0.914636C6.5573 0.914636-0.483625-1.49395-0.341527 1.52253" fill="#F5A784" fill-rule="evenodd" transform="matrix(1 0 0 -1 461 574)"/><path d="M9.58659 1.70649 8.89154 17.0039-0.411108 16.003 1.92223 0.652132C1.92223 0.652132 9.74446-1.36062 9.58659 1.70649" fill="#F5A784" fill-rule="evenodd" transform="matrix(1 0 0 -1 498 574)"/><path d="M50.6215 1.16407C47.2318-0.00579717 41.969-1.0203 37.5595 1.54837 32.5058 56.2213 27.4509 78.1203 25.6921 87.6701 25.5038 88.6908 25.3494 89.577 25.2424 90.3406 25.2424 90.3406 25.0079 89.2795 24.5849 87.1916 22.7059 77.8767 17.1211 48.1035 11.9859 0.723697 7.88512-0.594895 4.79063-0.276367-0.378503 2.06232 0.688548 17.1686 1.54793 47.2784 1.72294 49.2868 1.95145 51.8349 3.92403 78.0187 4.50257 84.9739 5.05201 91.6245 5.58312 96.9312 6.01941 98.8711 6.0462 98.9849 6.07049 99.0938 6.09237 99.2076 6.82278 102.836 7.64929 105.447 8.15246 107.083 8.55598 108.4 8.80511 109.07 8.80511 109.07 10.1469 112.184 11.6444 114.496 13.2013 116.112 18.2076 121.323 23.6989 119.045 25.8526 111.637 28.6857 121.344 37.2167 122.242 42.9097 109.07 42.9097 109.07 43.413 107.439 44.1373 103.412 44.1714 103.229 44.3658 102.068 44.4388 101.648 44.7754 99.5993 45.151 97.0793 45.5338 94.0172 45.6068 93.4359 45.6809 92.8349 45.755 92.2119 46.8295 83.121 47.9573 69.7538 48.6344 50.7263 48.8288 45.1638 49.5812 16.4993 50.6215 1.16407" fill="#9D9D9C" fill-rule="evenodd" transform="matrix(1 0 0 -1 459 564)"/><path d="M19.6306 3.61143C19.6104 3.17445 19.571 2.62908 19.4792 2.09219 19.3002 1.02932 18.9578 0.0141534 18.2861 0.0141534 17.272 0.0141534 1.4055 0.0141534 1.4055 0.0141534 1.4055 0.0141534-0.353148 0.632396-0.353148 1.95097-0.353148 2.33322-0.201594 2.77742 0.174262 3.27531 1.85411 5.50694 3.81672 4.31008 6.11686 4.99668 8.41587 5.68097 10.0957 7.28167 10.4918 8.25679 10.8808 9.22467 12.4557 9.22467 13.9111 8.48555 15.3666 7.73951 17.6932 7.15366 18.6619 7.95967 19.6306 8.76663 19.6903 4.9149 19.6306 3.61143" fill="#9D9D9C" fill-rule="evenodd" transform="matrix(1 0 0 -1 449 580)"/><path d="M19.6441 2.01695C19.4636 0.993996 19.1182 0.0168508 18.4409 0.0168508 17.4182 0.0168508 1.4175 0.0168508 1.4175 0.0168508 1.4175 0.0168508-0.356033 0.611876-0.356033 1.88104 2.84681 0.598961 6.80638 1.12305 10.1812 1.2402 11.9883 1.29882 13.7894 1.39579 15.5906 1.52495 16.8599 1.61505 18.3808 1.56924 19.6441 2.01695" fill="#706F6F" fill-rule="evenodd" transform="matrix(1 0 0 -1 449 580)"/><path d="M-0.374007 3.61143C-0.354895 3.17445-0.314412 2.62908-0.222452 2.09219-0.0446958 1.02932 0.297767 0.0141534 0.969437 0.0141534 1.9847 0.0141534 17.85 0.0141534 17.85 0.0141534 17.85 0.0141534 19.6098 0.632396 19.6098 1.95097 19.6098 2.33322 19.4582 2.77742 19.0825 3.27531 17.4026 5.50694 15.4388 4.31008 13.1386 4.99668 10.8396 5.68097 9.15977 7.28167 8.76367 8.25679 8.3759 9.22467 6.80106 9.22467 5.34439 8.48555 3.88874 7.73951 1.5623 7.15366 0.593581 7.95967-0.374007 8.76663-0.433704 4.9149-0.374007 3.61143" fill="#9D9D9C" fill-rule="evenodd" transform="matrix(1 0 0 -1 500 580)"/><path d="M-0.393646 2.01695C-0.214283 0.993996 0.130974 0.0168508 0.808327 0.0168508 1.83218 0.0168508 17.8318 0.0168508 17.8318 0.0168508 17.8318 0.0168508 19.6064 0.611876 19.6064 1.88104 16.4036 0.598961 12.4428 1.12305 9.06795 1.2402 7.26085 1.29882 5.45975 1.39579 3.65866 1.52495 2.39048 1.61505 0.868529 1.56924-0.393646 2.01695" fill="#706F6F" fill-rule="evenodd" transform="matrix(1 0 0 -1 500 580)"/><path d="M43.6143 35.7008C37.7396 34.4893 31.4404 35.8093 25.428 34.9671 22.9133 34.6174 20.4656 33.8434 18.1891 32.7319 14.0224 30.7002 10.424 27.5362 7.91432 23.6787 5.09053 19.3179 4.32964 14.6 4.52205 9.48473 4.58416 7.64679 4.79518 5.78199 4.36449 3.9916 3.93872 2.20122 2.70492 0.458276 0.881578 0.0206781 0.463291-0.0801931 0.0388035-0.0997166-0.385684-0.0520626-0.290118 1.19807 1.12113 19.7689 1.71195 26.6953 2.27295 33.3181 2.81545 38.6028 3.26099 40.5346 3.28836 40.6479 3.31562 40.7552 3.3355 40.8697 5.87259 43.105 9.07981 44.5724 12.3703 45.5011 21.4599 48.0581 31.1798 46.7395 40.4468 44.8893 41.0637 44.7602 41.6744 44.6394 42.2911 44.4981 42.3533 44.1214 42.4216 43.7181 42.4961 43.3 42.8398 41.2598 43.2234 38.7503 43.6143 35.7008" fill="#878787" fill-rule="evenodd" transform="matrix(1 0 0 -1 461 506)"/><path d="M14.5653 2.43577C13.2517-1.43931 9.24655-0.0396572 8.82442 1.11764 8.31496 2.50397 7.50475 4.67599 6.58047 7.29263 4.16793 14.0804 0.967004 23.8101 0.282883 30.1678 0.0148336 32.6225-0.0847186 38.6769-0.105298 45.5657-0.139248 50.7199-0.272646 55.8863-0.352768 61.0392-0.413356 65.3248-0.734785 69.5909 2.05863 73.276 2.82162 74.2798 3.88776 77.3398 2.75487 77.8844 2.47345 78.0196 10.6997 75.7525 10.9471 38.0654 10.975 34.2707 10.5517 30.7989 11.0211 27.059 11.6312 22.1485 12.4148 17.2502 13.191 12.3591 13.373 11.2226 14.0304 7.21352 14.1712 6.3376 14.2646 5.7931 14.7449 2.98027 14.5653 2.43577" fill="#F5A784" fill-rule="evenodd" transform="matrix(1 0 0 -1 500 487)"/><path d="M5.69564 16.3319C5.69564 16.3319 6.47652 12.4883 6.82261 10.2816 7.17426 8.07486 7.97367 3.24029 7.48988 1.68693 7.48988 1.68693 7.33593 1.42169 7.03337 1.08887L6.89033 0.947688C6.60094 0.668912 6.20999 0.366871 5.69564 0.170374L5.5745 0.123736C5.20866-0.0101527 4.77942-0.0937006 4.30119-0.0666269L4.17996-0.0567915C3.81299-0.0346883 3.41441 0.0377552 2.97869 0.185075 2.97869 0.185075 2.26778 5.13016 1.51539 6.59151 1.51539 6.59151 1.25112 3.51536 0.460459 3.1322L-0.123767 3.22559C-0.123767 3.22559-0.176152 6.57311-0.321362 8.06143-0.674136 11.6815 1.58856 14.5513 1.58856 14.5513 1.58856 14.5513 4.21927 18.3642 5.69564 16.3319" fill="#F5A784" fill-rule="evenodd" transform="matrix(1 0 0 -1 508 497)"/><path d="M1.39769-0.0701648 1.19435-0.0598072C0.926587 2.29762 0.116356 4.56071-0.602305 6.89754L-0.488633 6.92983C0.941269 4.72889 1.3647 2.32736 1.39769-0.0701648" fill="#E0855C" fill-rule="evenodd" transform="matrix(1 0 0 -1 511 497)"/><path d="M0.696645-0.0213075 0.594417-0.0705042C0.459037 2.29607 0.0528987 4.55779-0.303434 6.90105L-0.250059 6.9295C0.464589 4.74554 0.679118 2.36089 0.696645-0.0213075" fill="#E0855C" fill-rule="evenodd" transform="matrix(1 0 0 -1 513 497)"/><path d="M1.38579 0.0704966 1.14231-0.0645292C0.843125 1.9555 0.0661117 3.9026-0.614215 5.90968L-0.508084 5.93557C0.9174 4.11166 1.30222 2.08344 1.38579 0.0704966" fill="#E0855C" fill-rule="evenodd" transform="matrix(1 0 0 -1 514 496)"/><path d="M13.6092 1.57844C12.2229 0.888855 10.6841 0.347483 9.15831 0.0766909 8.26213-0.0849191 7.37319-0.146209 6.51777-0.0996877 4.12832 6.72538 0.958054 16.5085 0.280484 22.9012 0.0150019 25.3693-0.0834934 31.457-0.103979 38.3837-0.137604 43.5662-0.269724 48.7609-0.348976 53.9421-0.409087 58.2513-0.727438 62.5408 2.03923 66.2461 2.79491 67.2554 3.85084 70.3324 2.7288 70.8798 2.47056 71.0097 9.47552 69.0474 10.6768 38.391 10.7706 36.043 10.8234 33.5331 10.8426 30.8421 10.8703 27.0265 10.451 23.5357 10.9159 19.7753 11.5201 14.8377 12.2962 9.91254 13.0651 4.99462 13.2452 3.85185 13.4243 2.71509 13.6092 1.57844" fill="#00A19A" fill-rule="evenodd" transform="matrix(1 0 0 -1 500 480)"/><path d="M7.99552 23.0494C7.32919 16.1496 7.40795 9.14089 8.59605 2.30231 8.72027 1.59922 8.93878 0.83495 9.10351 0.0766909 8.2128-0.0849191 7.32919-0.146209 6.47909-0.0996877 4.10424 6.72538 0.953334 16.5085 0.279902 22.9012 0.0160414 25.3693-0.0819553 31.457-0.102213 38.3837-0.135632 43.5662-0.266946 48.7609-0.345816 53.9421-0.405457 58.2513-0.721864 62.5408 2.0279 66.2461 2.77897 67.2554 3.82835 70.3324 2.71326 70.8798 2.4565 71.0097 9.41868 69.0474 10.6127 38.391 10.3298 37.1601 10.0527 35.9279 9.79484 34.6968 8.99719 30.8482 8.37753 26.9654 7.99552 23.0494" fill="#008F89" fill-rule="evenodd" transform="matrix(1 0 0 -1 500 480)"/><path d="M19.1753 0.987145C19.1014 0.805545 18.7271-0.264631 18.3603-0.163439L18.1363 0.105915C16.2859 0.272924 14.4307 0.463026 12.5804 0.665409 10.0997 0.933505 7.61162 1.2163 5.13711 1.57341 4.15108 1.72089 3.17109 1.91593 2.17881 2.07076 1.17921 2.22674 0.540196 2.42787 0.261987 3.41638-0.106131 4.73638-0.458239 6.11612-0.370768 7.49585-0.274816 8.94382 0.37766 10.4308 1.62854 11.1915 2.22684 11.5547 2.91992 11.7375 3.54525 12.041 4.25202 12.3907 4.8712 12.8953 5.53725 13.3122 8.57676 15.2307 12.5532 15.2173 15.9325 13.9046 16.2046 13.7973 16.4768 13.6816 16.7353 13.5621L16.8707 13.5011C17.6931 13.1099 18.4958 12.6321 19.0941 11.9593L19.3254 11.6765 19.4277 11.529C19.7872 10.9891 20.026 10.3833 20.2095 9.75808 21.1266 6.72915 20.3658 3.80151 19.1753 0.987145" fill="#3B2645" fill-rule="evenodd" transform="matrix(1 0 0 -1 475 394)"/><path d="M2.58096 8.8201C-0.954241 7.76402-0.667666 2.74571 0.150554-0.179904L0.299854-0.159223C-0.0958737 3.20537-0.832857 6.84615 2.62706 8.7039L2.58096 8.8201" fill="#9D9D9C" fill-rule="evenodd" transform="matrix(1 0 0 -1 476 392)"/><path d="M10.5932 1.06467C9.77418 0.924985 8.91998 0.985088 8.13084 1.06467 5.15105 1.35606 2.44425 1.25898-0.3705-0.255173L-0.406889-0.126141C1.43139 1.25898 3.44143 1.74483 5.53062 1.74483 7.00366 1.736 8.40247 1.45329 9.74552 1.56102 10.0328 1.40566 10.3201 1.23767 10.5932 1.06467" fill="#9D9D9C" fill-rule="evenodd" transform="matrix(1 0 0 -1 481 382)"/><path d="M12.6308-0.144744C11.6163-0.078106 10.5899 0.111468 9.62126 0.261859 6.16914 0.801564 3.09481 0.484796-0.343226 0.0549957L-0.369175 0.13371C2.00958 0.863076 4.78489 0.952824 7.28133 0.780365 9.00334 0.657255 10.6676 0.295135 12.3119 0.211381L12.5331-0.0226759 12.6308-0.144744" fill="#9D9D9C" fill-rule="evenodd" transform="matrix(1 0 0 -1 481 383)"/><path d="M-0.213763 5.96512C-0.213763 5.96512 1.51792 7.96039 3.12639 5.86035 4.73609 3.75906 1.77763-0.0722062-0.398122-0.178345-0.398122-0.178345-0.491587 5.09099-0.213763 5.96512" fill="#E0855C" fill-rule="evenodd" transform="matrix(1 0 0 -1 493 397)"/><path d="M39.2094 40.3402C38.6284 37.4487 37.8246 34.596 37.3512 31.6839 35.8589 22.4662 37.7427 12.9922 36.6553 3.71874 36.528 2.66655 36.3311 1.42373 35.2706 1.01431 34.6895 0.787044 33.9261 0.766432 33.3182 0.67289 31.2509 0.350937 29.1714 0.137068 27.0894 0.00826595 20.9768-0.373223 14.7542 0.00104632 8.82265 1.55243 8.64039 1.59868 7.05384 1.93392 7.04657 2.0554 7.04657 2.0554 7.03309 2.18912 7.0196 2.4236 6.82997 4.99431 5.76332 20.0704 5.20191 25.4573 5.14197 25.9676 5.10036 26.3905 5.06117 26.7124 4.99511 27.2433 4.89851 27.7852 4.79695 28.3489 4.67464 29.0329 4.56087 29.6987 4.41896 30.3682 3.02699 37.032 0.426347 44.0032-0.363875 46.0565-0.499669 46.4125 0.224498 47.5654 0.568252 47.7538 0.811607 47.8947 1.1089 48.0417 1.45992 48.1838 2.94619 48.7803 5.31074 49.4242 8.73584 50.0014 9.02576 50.056 9.33032 50.1022 9.63373 50.1495 10.9988 50.3634 12.4986 50.5067 14.0521 50.5262L14.1707 50.5177 14.3628 50.5262C14.6332 50.5541 14.9096 50.5517 15.1933 50.5383 15.1933 50.5383 15.2142 51.2163 15.2203 52.249 15.2276 52.543 15.2276 52.8662 15.2276 53.2075 15.2142 54.1017 15.2142 55.1271 15.1799 56.1671 15.1531 57.6773 15.0589 59.2068 14.9169 60.3865 14.9096 60.508 14.8827 60.6162 14.8691 60.723L14.8558 60.8033 14.8497 60.87 15.0515 60.7097C15.1335 60.6223 15.2423 60.5578 15.3695 60.4606L15.4772 60.3671C15.7475 60.18 16.0447 59.9784 16.3836 59.7632 16.9035 59.4341 17.5371 59.0501 18.3016 58.7367 18.4228 58.6869 18.5512 58.6298 18.6735 58.5824L18.8019 58.5362C18.9573 58.456 19.1114 58.4087 19.2815 58.3613 19.7879 58.1595 20.3481 57.9919 20.9157 57.8522 21.2595 57.7708 21.6178 57.71 21.9837 57.6505 22.2331 57.602 22.4962 57.5691 22.7665 57.5496 23.2937 57.4756 23.8478 57.4586 24.4215 57.4622 24.9085 57.4647 25.3672 57.5023 25.8344 57.5691 26.0839 57.5838 26.3225 57.6189 26.5574 57.6652L27.0087 50.4582C27.0087 50.4582 27.1641 50.4509 27.4479 50.4435 27.5567 50.4411 27.6778 50.4435 27.8063 50.4229 27.9812 50.4108 28.1684 50.3974 28.3984 50.384 29.2436 50.3367 30.0962 50.2832 30.9402 50.2103 32.0289 50.1289 33.109 50.0147 34.1904 49.8592 35.5543 49.6648 36.4803 49.6259 37.5812 48.7268 38.5477 47.9408 39.169 46.7672 39.4321 45.5657 39.8099 43.849 39.5544 42.063 39.2094 40.3402" fill="#F5A784" fill-rule="evenodd" transform="matrix(1 0 0 -1 464 458)"/><path d="M-0.382976 7.83335C1.19968-1.04142 9.61216-0.709361 11.6171 0.392935L11.3789 4.38875C4.41755 3.12293-0.382976 7.83335-0.382976 7.83335" fill="#E0855C" fill-rule="evenodd" transform="matrix(1 0 0 -1 479 405)"/><path d="M14.6038 17.2819C15.6057 16.1503 15.6166 13.6831 15.6215 10.9553 15.6348 2.69517 13.1358 0.194709 8.99478-0.130231 4.85246-0.455172 0.583109 1.30168-0.076393 8.97991-0.405623 12.8196-0.773518 16.3689 0.638762 17.9775 2.74556 20.3792 11.5288 20.7523 14.6038 17.2819" fill="#F5A784" fill-rule="evenodd" transform="matrix(1 0 0 -1 478 403)"/><path d="M3.96864 5.37423C3.96864 5.37423 2.67715 9.20842 0.39872 7.26879-1.8811 5.33034 1.0128-0.48877 4.41839-0.170946 4.41839-0.170946 5.0109 4.04406 3.96864 5.37423" fill="#F5A784" fill-rule="evenodd" transform="matrix(1 0 0 -1 475 398)"/><path d="M-0.0923198 2.79173C0.142814 2.5669 0.329999 1.95453 0.46166 1.51754 0.599564 1.06215 0.757289 0.503613 0.783294-0.0366596 0.791053-0.204977 0.672122-0.240297 0.634115-0.114363 0.527126 0.23774 0.456022 0.628085 0.361702 0.995778 0.236407 0.840127 0.10905 0.684597-0.0381281 0.660604-0.152088 0.642213-0.192217 0.941945-0.123962 1.08627-0.0345517 1.27152 0.0942596 1.36907 0.219494 1.45396 0.0801358 1.82872-0.103534 2.16389-0.20628 2.56971-0.245014 2.7239-0.164757 2.86103-0.0923198 2.79173" fill="#E0855C" fill-rule="evenodd" transform="matrix(1 0 0 -1 477 395)"/><path d="M0.00308642-0.139995C0.00308642-0.139995 0.685185-0.426011 0.618313 0.833624 0.557407 1.96437 0.0616255 1.8268 0.0616255 1.8268 0.0616255 1.8268-0.417387 1.84647-0.374383 0.856886-0.331379-0.132593 0.00308642-0.139995 0.00308642-0.139995" fill="#3B2645" fill-rule="evenodd" transform="matrix(1 0 0 -1 491 392)"/><path d="M0.00833333-0.140358C0.00833333-0.140358 0.690432-0.425091 0.62356 0.832849 0.562654 1.96311 0.0668724 1.82688 0.0668724 1.82688 0.0668724 1.82688-0.412243 1.84654-0.369136 0.856101-0.326132-0.133066 0.00833333-0.140358 0.00833333-0.140358" fill="#3B2645" fill-rule="evenodd" transform="matrix(1 0 0 -1 483 391)"/><path d="M-0.140186 0.103111C0.0497524 0.135278 0.48016-0.0514663 0.574489 0.242142 0.653347 0.485981 0.377428 1.9634 0.339251 2.21546 0.201625 3.1264 0.0497524 3.74676-0.0458568 4.83613L0.0200345 4.859C0.430408 3.3982 0.558963 1.6085 0.794869 0.0668347 0.80778-0.0172448 0.763148-0.104362 0.70182-0.0991798 0.425232-0.0794332 0.154488-0.152076-0.122099-0.139656-0.214536-0.137601-0.237131 0.0864919-0.140186 0.103111" fill="#E0855C" fill-rule="evenodd" transform="matrix(1 0 0 -1 488 394)"/><path d="M-0.17458 0.636279C0.343959 0.876025 1.36319 0.919026 1.65783 0.0662874 1.69639-0.0488224 1.65057-0.225589 1.54961-0.213284 1.30078-0.181 1.09357 0.0309606 0.85093 0.107833 0.543824 0.203096 0.235642 0.170812-0.0642008 0.04181-0.16104 0.00026462-0.243264 0.0755491-0.299484 0.183117L-0.328626 0.338317-0.17458 0.636279" fill="#3B2645" fill-rule="evenodd" transform="matrix(1 0 0 -1 490 388)"/><path d="M-0.415762 0.0395116C0.101408 1.21196 1.74938 0.751543 2.51391 0.2737 2.63949 0.193991 2.58608-0.0688709 2.43909-0.0544656 1.95921-0.0130333 1.49407 0.16861 1.01293 0.192482 0.670836 0.208396 0.439589 0.123885 0.14158-0.0655783-0.052258-0.189875-0.0722864-0.215393-0.290181-0.221704L-0.415762 0.0395116" fill="#3B2645" fill-rule="evenodd" transform="matrix(1 0 0 -1 482 388)"/><path d="M-0.398893 1.3539C-0.398893 1.3539 2.47003 1.05651 4.60111 1.84146 4.60111 1.84146 4.56042 0.0162796 2.51072-0.147553 0.462112-0.308793-0.398893 1.3539-0.398893 1.3539" fill="#FFFFFF" fill-rule="evenodd" transform="matrix(1 0 0 -1 486 398)"/><path d="M6.95926 4.87072C7.86137 6.12783 9.14835 6.84895 9.14835 6.84895 10.3146 6.49706 11.0531 5.72031 11.4235 5.22644 11.6004 4.99057 11.5155 4.64846 11.2622 4.50532 9.61793 3.57543 8.01676 3.85948 7.19225 4.11758 6.88403 4.21382 6.76692 4.60284 6.95926 4.87072ZM13.3999 5.88823C13.18 5.60174 12.7343 5.67458 12.6088 6.0167 12.3245 6.79217 11.5083 8.04055 9.22132 8.00716 6.76456 7.9776 5.54209 7.18362 5.07252 5.49316 4.97095 5.13137 4.5873 4.94856 4.25871 5.10787 3.33983 5.55728 1.66343 6.62297 0.411124 8.83953L-0.373973 8.73701C-0.368005 8.27398-0.3537 3.5347 2.72803 1.22308 5.81573-1.09589 11.2538-0.175895 12.5336 1.61081 13.8146 3.39762 14.6391 5.00163 14.6259 8.00716 14.6259 8.00716 13.9771 6.6403 13.3999 5.88823" fill="#3B2645" fill-rule="evenodd" transform="matrix(1 0 0 -1 479 403)"/><path d="M21.3801 17.4481C20.8752 13.7097 19.9235 10.0386 18.5715 6.53122 17.6068 4.04871 16.2631 1.46488 13.894 0.371508 11.335-0.802462 8.21148 0.161397 6.13827 2.09164 4.06507 4.02799 2.86393 6.75354 1.9717 9.47909 0.528175 13.8979-0.265418 18.5403-0.364054 23.2022-0.369989 23.3304-0.369989 23.4648-0.369989 23.6004-0.0884044 23.6554 0.207402 23.7018 0.502084 23.7495 1.82794 23.9644 3.28447 24.1087 4.79338 24.1281L4.90859 24.1196 5.09522 24.1281C5.35778 24.1563 5.62616 24.1538 5.90181 24.1405 5.90181 24.1405 5.92207 24.8221 5.928 25.8605 7.33224 24.436 9.79273 23.714 11.702 23.6004 13.6505 23.4782 15.6263 23.9583 17.3311 24.9358L17.3775 24.0598C17.3775 24.0598 17.5284 24.0525 17.804 24.0451 17.9098 24.0427 18.0273 24.0451 18.1522 24.0243 18.322 24.0121 18.5038 23.9987 18.7271 23.9853 19.5481 23.9376 20.3762 23.8838 21.196 23.8105 21.2887 23.5394 21.3611 23.2559 21.4134 22.9725 21.7734 21.1583 21.6296 19.2818 21.3801 17.4481" fill="#EDEDED" fill-rule="evenodd" transform="matrix(1 0 0 -1 473 432)"/><path d="M40.488 2.60512C40.2154 1.96447 39.5212 1.61646 38.8678 1.37208 34.5843-0.244802 29.8867-0.189208 25.3098-0.0670733 22.7982 0.000850375 20.2853 0.0835493 17.7787 0.178579 12.2093 0.397019 6.27115 0.811682 1.82495 4.16524 1.21957 4.62189 0.62651 5.16124 0.367517 5.87715-0.0825082 7.09659 0.537737 8.41222 1.04818 9.612 3.11832 14.4786 3.29587 20.4771 3.4525 25.7042L3.95562 40.0881C3.98397 40.8435 3.97038 41.6001 3.92227 42.3629 3.56845 47.6122 1.47846 53.0244-0.156521 57.9047-0.388224 58.5872-0.57193 59.4524-0.0331307 59.9227 0.156734 60.093 0.408294 60.1744 0.653588 60.2498 3.60912 61.1631 6.18971 61.9666 9.29444 62.4591 9.92074 62.5541 10.5693 62.6306 11.2426 62.7034 11.4608 62.7269 11.6778 62.7441 11.9022 62.7577 12.5089 62.8132 13.1217 62.8343 13.7481 62.8417L13.8676 62.833 14.0612 62.8417C14.4829 61.5951 14.9872 60.2843 15.5321 58.955 15.6543 58.6674 15.7775 58.3688 15.907 58.0749 17.2004 54.9733 18.664 51.9074 19.7736 49.6709 19.9302 49.3438 20.0807 49.0501 20.2238 48.7712 21.0203 47.19 21.5455 46.2015 21.5455 46.2015L28.2086 62.6973C28.3109 62.9355 29.2591 62.9157 30.5118 62.7725 30.8052 62.7367 31.1184 62.6973 31.4378 62.6491 33.413 62.3764 35.7422 61.9332 36.7631 61.7765 39.7321 61.3199 40.3116 60.6596 39.8961 57.3665 38.9418 49.7388 38.6903 41.8877 38.5756 34.2391L38.4387 25.0364C38.3364 17.9407 39.6236 11.1116 40.5495 4.04916 40.6174 3.56658 40.6791 3.05433 40.488 2.60512" fill="#00A19A" fill-rule="evenodd" transform="matrix(1 0 0 -1 464 470)"/><path d="M13.3601 64.3436C13.8674 60.2449 13.6433 56.1364 13.0166 51.629 11.9414 43.8936 9.17417 37.2664 8.94996 29.4386 8.77038 23.1579 10.5469 15.6403 10.9917 9.3803 11.2581 5.67921 11.4641 3.00715 11.4641 2.96577 9.83341-0.769253 5.8464-0.513883 5.53417 0.67561 5.10152 2.30053 4.36267 4.99323 3.55032 8.19804 1.81227 15.076-0.251199 24.2975-0.35718 30.3301-0.404202 32.7954 0.0694431 38.8207 0.621459 45.6779 1.21686 53.0994 2.07499 60.5648 3.79975 67.8147 4.25056 69.711 4.74351 71.6192 5.41241 73.4509 6.74304 77.0972 9.79604 76.4379 11.1664 72.9303 12.3162 69.987 13.0117 67.1666 13.3601 64.3436" fill="#F5A784" fill-rule="evenodd" transform="matrix(1 0 0 -1 457 488)"/><path d="M-0.364717 13.091C-0.364717 13.091 0.0202273 11.3596 0.272026 9.15969 0.517777 6.9599 1.02627 2.12706 1.97664 0.808085 1.97664 0.808085 2.21395 0.606717 2.62913 0.387062L2.82171 0.297298C3.20665 0.126234 3.70785-0.0363654 4.30841-0.0607135L4.45126-0.0667744C4.87739-0.0763883 5.35804-0.0194367 5.85799 0.156538L5.98394 0.203876C6.36774 0.340978 6.77083 0.536285 7.19216 0.812997 7.19216 0.812997 6.56021 5.72222 6.94881 7.34456 6.94881 7.34456 8.0929 4.5138 9.04087 4.4021L9.63528 4.67515C9.63528 4.67515 8.75143 7.86266 8.48754 9.31749 7.84715 12.8581 4.63643 14.8589 4.63643 14.8589 4.63643 14.8589 0.632781 15.4826-0.364717 13.091" fill="#F5A784" fill-rule="evenodd" transform="matrix(1 0 0 -1 463 499)"/><path d="M0.463142-0.067314 0.600775-0.0174885C0.0993506 2.26734 0.00148114 4.5713-0.183776 6.92763L-0.272417 6.93269C-0.620371 4.56625-0.212829 2.2086 0.463142-0.067314" fill="#E0855C" fill-rule="evenodd" transform="matrix(1 0 0 -1 468 499)"/><path d="M0.447147-0.0610391 0.602864-0.0674643C0.101387 2.23884 0.00375085 4.5529-0.186292 6.92478L-0.268129 6.93254C-0.616617 4.5683-0.219368 2.21314 0.447147-0.0610391" fill="#E0855C" fill-rule="evenodd" transform="matrix(1 0 0 -1 466 499)"/><path d="M0.3642 0.0290252 0.584487-0.0715098C0.118974 2.23331 0.0205251 4.55298-0.1679 6.9217L-0.253819 6.92849C-0.656921 4.60881-0.252387 2.27813 0.3642 0.0290252" fill="#E0855C" fill-rule="evenodd" transform="matrix(1 0 0 -1 465 499)"/><path d="M16.6391 49.9318C16.579 49.7294 12.9575 35.8153 11.8687 31.2956 10.8315 26.9783 10.0206 23.4294 9.96168 22.722 9.71497 19.9133 10.4525 8.45676 10.9711 1.12227 8.63942 0.139273 6.06711-0.265626 3.54289-0.0632293 1.80792 6.83349-0.251894 16.0803-0.357687 22.1293-0.404626 24.6013 0.0681803 30.6431 0.619218 37.519 2.49977 61.0787 6.51225 68.3242 6.89844 68.6888 7.14152 68.9206 8.25323 69.4303 8.53953 69.5645 8.75132 69.6852 8.93172 69.7535 9.12424 69.7999 9.71497 69.9547 10.3466 69.8815 10.9242 69.7341 11.569 69.5645 12.1935 69.3157 12.7722 68.9778 15.1436 62.9373 16.3395 56.465 16.6391 49.9318" fill="#00A19A" fill-rule="evenodd" transform="matrix(1 0 0 -1 457 480)"/><path d="M29.2724 3.17311C24.8518 0.831294 19.4794 1.04045 14.7523 1.01711 12.2423 1.0047 9.73102 1.1457 7.24394 1.60576 4.71935 2.07196 2.34311 3.05706-0.117488 3.86701-0.339375 3.93984-0.482936 3.53406-0.275489 3.38387 4.18624 0.19155 10.0591-0.152199 15.0479-0.122853 17.8113-0.105779 20.5722 0.117251 23.3272 0.371228 25.4826 0.56958 27.8335 0.679494 29.5439 2.57685 29.7464 2.79988 29.5306 3.30943 29.2724 3.17311" fill="#008F89" fill-rule="evenodd" transform="matrix(1 0 0 -1 470 463)"/><path d="M0.126703 3.78246C-0.347866 2.72448-0.541667 1.21918-0.292461 0.0913311-0.235808-0.165383 0.179382-0.154114 0.243983 0.0913311 0.390327 0.643396 0.404859 1.22036 0.45629 1.78487 0.511694 2.4067 0.623751 3.04108 0.593438 3.66408 0.584128 3.87465 0.232175 4.01556 0.126703 3.78246" fill="#008F89" fill-rule="evenodd" transform="matrix(1 0 0 -1 472 466)"/><path d="M0.229375 2.83054C-0.254581 2.17667-0.592341 0.787111-0.119535 0.0455025 0.0155114-0.166604 0.302569-0.123959 0.381386 0.115389 0.511876 0.502772 0.442172 0.943411 0.474842 1.34977 0.510809 1.78572 0.618904 2.20983 0.652642 2.64577 0.668444 2.85778 0.361125 3.00704 0.229375 2.83054" fill="#008F89" fill-rule="evenodd" transform="matrix(1 0 0 -1 478 466)"/><path d="M0.0399586 2.76242C-0.406004 2.05215-0.556315 0.739407-0.0874741 0.0170513 0.0207039-0.149742 0.274327-0.121013 0.334472 0.0722356 0.460663 0.477747 0.435404 0.872511 0.45942 1.29135 0.483437 1.73293 0.609731 2.16366 0.625259 2.6041 0.636128 2.92446 0.199793 3.01447 0.0399586 2.76242" fill="#008F89" fill-rule="evenodd" transform="matrix(1 0 0 -1 484 467)"/><path d="M0.577148 1.45562C0.555421 1.91019 0.506673 2.34007 0.326128 2.75503 0.245506 2.94205-0.0554759 2.94205-0.136098 2.75503-0.316753 2.34007-0.364178 1.91148-0.387228 1.45562-0.408956 1.00388-0.447336 0.500176-0.236021 0.0948631-0.097717-0.171388 0.28896-0.171388 0.427264 0.0948631 0.637256 0.500176 0.600199 1.00388 0.577148 1.45562" fill="#008F89" fill-rule="evenodd" transform="matrix(1 0 0 -1 491 467)"/><path d="M0.601839 1.96583C0.531717 2.5794 0.422866 3.40104 0.0496889 3.80666-0.0689143 3.93496-0.290053 3.92162-0.32451 3.67086-0.402155 3.09273-0.231819 2.51893-0.181109 1.9422-0.129284 1.34629-0.162719 0.713542-0.00854463 0.144182 0.0648277-0.128811 0.35163-0.227515 0.467075 0.0600864 0.706511 0.648628 0.676233 1.31529 0.601839 1.96583" fill="#008F89" fill-rule="evenodd" transform="matrix(1 0 0 -1 497 467)"/><path d="M0.0824893 3.85642C-0.211907 3.99618-0.645194 3.76242-0.524958 3.49741-0.274576 2.953 0.0842381 2.4765 0.172266 1.89038 0.258544 1.31066 0.0706843 0.776703-0.0155943 0.208792-0.0578591-0.0718462 0.458209-0.199798 0.690082-0.0157409 1.93048 0.975152 1.61408 3.13054 0.0824893 3.85642" fill="#008F89" fill-rule="evenodd" transform="matrix(1 0 0 -1 501 466)"/><path d="M19.6186 19.7469C18.5477 15.8092 17.1923 11.9493 15.5402 8.20609 14.7037 6.30038 13.8613 4.32737 12.7611 2.54417 12.1212 1.51523 11.1223 0.186968 9.82191-0.0923675 8.56049-0.364598 7.95981 0.709098 7.42737 1.60598 6.24052 3.59198 5.16839 5.64152 4.17083 7.72527 2.32944 11.571 0.556411 15.6407-0.381422 19.7987-0.166471 19.8246 0.0496364 19.8376 0.271843 19.8506 1.63464 16.4079 2.78732 12.9193 4.34539 9.54146 5.06091 7.99872 5.82292 6.46887 6.6252 4.96501 7.326 3.65085 8.87072-0.280858 10.8599 1.60598 12.0663 2.75275 12.755 4.44521 13.4559 5.88899 14.2789 7.59444 15.0469 9.32577 15.749 11.0772 16.9017 13.9541 17.8798 16.8829 18.7016 19.8647 18.9922 19.8305 19.3024 19.7928 19.6186 19.7469" fill="#008F89" fill-rule="evenodd" transform="matrix(1 0 0 -1 476 428)"/><path d="M2.59069 33.8907C2.3596 37.1026 1.79469 41.0375 0.223021 43.7225 0.046901 44.024-0.388709 43.8525-0.294118 43.4603 0.104936 41.8047 0.768651 40.2631 1.15035 38.589 1.54835 36.8452 1.7967 35.0586 1.89445 33.2536 2.09293 29.5943 1.77637 25.9069 1.57684 22.2564 1.37731 18.5812 0.814412 7.66494 0.734023 5.88313 0.645481 3.94819 0.786973 1.82201 0.492768-0.0835864L0.61699-0.124008C1.11063 1.31712 1.07399 3.01555 1.18804 4.54617 1.33769 6.54971 2.07662 18.58 2.31174 22.5909 2.53169 26.3408 2.86149 30.1323 2.59069 33.8907" fill="#008F89" fill-rule="evenodd" transform="matrix(1 0 0 -1 467 457)"/></g></svg>