<svg width="53" height="155" xmlns="http://www.w3.org/2000/svg" xmlns:xlink="http://www.w3.org/1999/xlink" overflow="hidden"><defs><clipPath id="clip0"><rect x="104" y="452" width="53" height="155"/></clipPath></defs><g clip-path="url(#clip0)" transform="translate(-104 -452)"><path d="M38.3614 0.0168306C33.2938 0.0168306 28.1426 0.483827 23.4909 0.488503 18.4725 0.494632 13.4493 0.487048 8.43095 0.589798 8.19965 0.593122 7.96952 0.596031 7.74076 0.596031 7.46146 0.596031 7.18587 0.593122 6.91272 0.590837 6.6384 0.587408 6.36652 0.585123 6.09835 0.585123 3.85179 0.585123 1.81077 0.760909 0.00720495 2.58401-0.20693 2.7998-0.20693 3.23147 0.00720495 3.44871 1.77136 5.23047 3.88251 5.4981 6.12166 5.4981 6.60397 5.4981 7.09242 5.48636 7.58448 5.4741 8.0778 5.4609 8.57484 5.44906 9.07442 5.44906 9.19499 5.44906 9.3143 5.44999 9.43488 5.45145 14.1198 5.51409 18.806 5.53674 23.4909 5.54194 28.1475 5.54765 33.295 6.01693 38.3638 6.01693 42.7375 6.01693 47.0508 5.66734 50.9374 4.36899 52.1505 3.96381 52.1492 2.06518 50.9374 1.66093 47.057 0.365598 42.7399 0.0168306 38.3614 0.0168306" fill="#DADADA" fill-rule="evenodd" transform="matrix(1 0 0 -1 105 606)"/><path d="M34.7747 16.2713C33.2977 11.3681 31.083 6.34355 26.7303 3.40481 24.7791 2.09481 22.4935 1.27738 20.1691 0.709987 18.708 0.353357 17.2092 0.0972049 15.6993-0.0167813 14.0334-0.139317 12.3577-0.0902391 10.7088 0.200215 7.59889 0.754104 4.60242 2.22716 2.63159 4.60336L2.56573 4.67819C0.35585 7.39391-0.334423 11.0103-0.0637547 14.4184 0.213111 17.8339 1.36322 21.1035 2.50229 24.334 1.78765 23.9443 0.809485 24.3511 0.361942 25.0202-0.0942141 25.6967-0.14421 26.5325-0.146625 27.3229-0.142949 32.5105 1.75341 37.7753 5.58542 41.4113 9.12942 44.7716 14.5541 46.6736 19.5568 45.638 23.9497 44.725 29.6049 44.893 32.9697 41.5791 34.377 40.1931 35.2064 38.3586 35.7699 36.5056 37.7663 29.9063 36.7503 22.829 34.7747 16.2713" fill="#3B2645" fill-rule="evenodd" transform="matrix(1 0 0 -1 105 528)"/><path d="M17.5145 5.42802C16.4044 3.30768 14.8818 1.37699 12.9689-0.0147283 11.3024-0.138638 9.62611-0.0891169 7.97676 0.204595 4.8657 0.764804 1.86821 2.25428-0.103282 4.65724-0.360698 8.36258 0.715303 12.1671 1.28025 15.8972 2.08907 21.2533 1.8451 26.7183 2.55998 32.0855 2.90891 34.683 3.55918 37.3858 5.355 39.2583 7.08736 41.0676 10.7741 43.0058 13.0665 41.2015 15.6895 39.1256 16.5825 34.9023 17.1755 31.7931 17.7244 28.9018 18.2783 26.0032 18.8261 23.1059 19.3811 20.2023 19.9314 17.269 19.8496 14.311 19.7532 11.2228 18.9542 8.1519 17.5145 5.42802" fill="#2F1D36" fill-rule="evenodd" transform="matrix(1 0 0 -1 108 528)"/><path d="M10.8458 47.5052 2.31935 47.9366C2.31935 47.9366 0.205632 34.957 0.0553316 29.9318-0.0963435 24.9078 1.22188 13.711 0.789536 9.43306 0.752304 9.07233 0.754939 8.76392 0.773612 8.47867 0.550109 7.96059 0.399808 7.42842 0.301403 7.05947 0.105852 6.31913-0.0724008 5.53854-0.1322 4.75998-0.165537 4.34214-0.162787 3.9243-0.112267 3.51404 0.0473126 2.2537 0.854719 1.39422 1.74461 0.46844 1.99205 0.211695 2.28865-0.0560462 2.65844-0.0631988 2.96706-0.0705648 3.25036 0.115402 3.42598 0.350689 3.60022 0.587578 3.68534 0.870371 3.76255 1.14772 4.12032 2.44778 4.36776 3.77314 4.49951 5.108 4.58199 5.94954 4.5341 7.00321 4.3704 7.92952L10.8458 47.5052" fill="#F5A784" fill-rule="evenodd" transform="matrix(1 0 0 -1 111 546)"/><path d="M7.72805 45.9355C7.72805 45.9355 9.68462 32.9401 9.82375 27.9087 9.96416 22.8786 8.74388 11.6682 9.1441 7.3849 9.54432 3.1017 10.2215-0.674765 7.15911 0.0179567 4.0968 0.709289 2.71278 11.288 2.71278 11.288L1.45433 34.8898-0.164903 45.5036 7.72805 45.9355" fill="#F5A784" fill-rule="evenodd" transform="matrix(1 0 0 -1 141 544)"/><path d="M-0.170667 25.3415C0.205239 23.6545 4.68725 4.10657 4.68725 4.10657 4.72555 3.79689 4.84025 3.00516 4.85045 2.94963 4.93705 2.36546 5.08236 1.70261 5.17917 0.972211 5.26587 0.407233 12.4075-0.17736 15.5018 0.0598811L15.8293 1.50024C14.3931 1.72804 12.3426 2.39555 11.2338 2.85073 11.0987 2.91611 10.9904 2.95949 10.8847 3.00422 8.39835 4.14279 8.64936 7.19642 8.64936 7.19642 8.62005 7.23367 8.27213 16.5749 7.92553 25.8235 5.71828 26.3804 2.36409 25.4973-0.170667 25.3415" fill="#F5A784" fill-rule="evenodd" transform="matrix(1 0 0 -1 138 605)"/><path d="M11.3877 0.322686C10.2992-0.392974 0.275445 0.282061 0.17714 0.95066 0.0788346 1.65948-0.0587291 2.29932-0.139892 2.86676L-0.166875 3.01629C1.13554 2.76631 3.38523 2.4758 6.01471 2.77083 7.29987 2.23507 9.92194 1.41221 11.2244 1.3735 11.2244 1.3735 12.4777 1.03734 11.3877 0.322686" fill="#3B2645" fill-rule="evenodd" transform="matrix(1 0 0 -1 143 605)"/><path d="M15.8518 25.3415C15.4759 23.6545 10.9939 4.10657 10.9939 4.10657 10.9556 3.79689 10.841 3.00516 10.8308 2.94963 10.7441 2.36546 10.5988 1.70261 10.502 0.972211 10.4153 0.407233 3.27362-0.17736 0.179447 0.0598811L-0.148167 1.50024C1.28807 1.72804 3.33991 2.39555 4.44733 2.85073 4.58244 2.91611 4.69076 2.95949 4.79656 3.00422 7.28281 4.14279 7.03312 7.19642 7.03312 7.19642 7.06111 7.23367 7.40903 16.5749 7.75563 25.8235 9.96289 26.3804 13.3159 25.4973 15.8518 25.3415" fill="#F5A784" fill-rule="evenodd" transform="matrix(1 0 0 -1 109 605)"/><path d="M0.304347 0.322686C1.39295-0.392974 11.4171 0.282061 11.5154 0.95066 11.6137 1.65948 11.7513 2.29932 11.8325 2.86676L11.8595 3.01629C10.557 2.76631 8.3072 2.4758 5.67761 2.77083 4.39239 2.23507 1.77021 1.41221 0.467737 1.3735 0.467737 1.3735-0.784359 1.03734 0.304347 0.322686" fill="#3B2645" fill-rule="evenodd" transform="matrix(1 0 0 -1 108 605)"/><path d="M40.8474 2.2727C34.6715-1.91379 26.1207 0.955003 26.1207 0.955003L21.1282 67.8161 16.0817 1.88203C9.25799-2.27164-0.152747 1.64777-0.152747 1.64777 0.476913 13.1664 3.27689 41.9691 5.1914 60.9835 6.15905 70.603 7.02501 78.9732 7.02501 78.9732L34.603 78.5616 40.8474 2.2727" fill="#3B2645" fill-rule="evenodd" transform="matrix(1 0 0 -1 110 598)"/><path d="M29.8482 8.71956C28.7313 8.10843 27.4402 7.77237 26.1821 7.53075 22.7449 6.87096 19.2141 6.72078 15.716 6.43199 12.1437 6.13538 8.66024 5.70273 5.36444 4.45883 3.65559 3.81179 1.9736 2.9181 0.81042 1.48177 0.426713 1.00732 0.111294 0.491924-0.151783-0.0579932 0.81042 9.74521 1.54364 17.003 1.65084 18.1233 1.80545 18.178 1.96133 18.2266 2.11605 18.2677 2.63979 18.4257 3.17087 18.5428 3.70311 18.6386 7.4764 19.3057 11.2558 18.7631 15.0498 18.0686 18.7634 17.3877 22.4831 16.5562 26.2297 16.5425 27.1979 16.5425 28.2478 16.5562 29.2161 16.3981L29.8482 8.71956" fill="#2F1D36" fill-rule="evenodd" transform="matrix(1 0 0 -1 116 537)"/><path d="M3.86364 1.00976C2.53083 2.01391 1.6853 3.4599 1.08455 4.93845-0.3038 8.35418-0.534774 12.1541 0.429559 15.6891 0.968355 17.6624 2.11312 19.7622 4.24102 20.369 4.40765 19.8357 4.57547 19.3035 4.7433 18.7713 5.55231 20.6171 6.71598 22.334 8.16226 23.8198 8.76562 24.4399 9.61246 25.0695 10.482 24.8336 11.2065 24.636 11.6003 23.8788 11.5662 23.1913 11.5321 22.5026 11.1711 21.8692 10.8178 21.26 11.4741 21.7922 12.1682 22.3436 13.0251 22.5219 13.8809 22.7 14.9373 22.3545 15.182 21.5851 15.2704 21.3081 15.2502 21 15.4042 20.7483 15.6831 20.2908 16.3583 20.2378 16.9098 20.0994 19.0592 19.5551 19.9174 17.2507 20.4462 15.2724 20.8968 13.5844 21.2426 11.5352 19.8607 10.3384 18.6301 9.27164 16.6523 9.46306 15.1051 8.82494 13.7698 8.27475 12.7968 7.05149 12.6364 5.7235 12.5506 5.01549 12.6806 4.29431 12.5897 3.5863 12.1063-0.19546 6.69707-1.12734 3.86364 1.00976" fill="#3B2645" fill-rule="evenodd" transform="matrix(1 0 0 -1 119 478)"/><path d="M7.85204 0.287455C7.85204 0.287455 2.64458-0.781627-0.147961 0.613477-0.147961 0.613477 1.01077 3.06919 0.642765 5.80653 0.552475 6.47584 0.363715 7.17334 0.0490816 7.85251-1.55855 11.2579 7.19782 5.23819 7.19782 5.23819L7.85204 0.287455" fill="#F5A784" fill-rule="evenodd" transform="matrix(1 0 0 -1 127 485)"/><path d="M31.5655 23.0948C31.5786 22.8871 31.6048 22.6792 31.6251 22.4641 31.6441 22.283 31.662 22.1019 31.6835 21.9208 32.4208 15.8426 32.6069 8.83094 33.5553 3.05174 33.5553 2.7709 17.6259-3.61226 4.38901 2.69679 5.9637 9.32918 6.57684 23.2638 6.57684 23.2638 3.92854 21.8685-0.148972 23.4704-0.148972 23.4704 0.746913 43.8015 14.6471 43.9219 14.6471 43.9219 14.6471 43.9219 17.4529 42.613 22.4084 43.7202 23.6466 43.8283 26.1758 43.5257 26.1435 43.5804 26.1435 43.5804 34.6623 42.4586 37.851 23.6454 37.851 23.6454 36.4076 23.0948 34.6886 22.8943 33.6602 22.7727 32.54 22.7727 31.5655 23.0948" fill="#00A19A" fill-rule="evenodd" transform="matrix(1 0 0 -1 112 528)"/><path d="M12.0786 12.9914C10.8586 11.2168 10.4074 9.70553 7.97589 9.76146 7.34827 9.77761 6.74301 9.88189 6.12602 9.92531 6.81477 11.536 9.1288 15.0863 7.96759 16.625 6.4246 18.669 2.2196 13.4882 2.20786 17.5514 2.2032 19.0937 3.33254 21.0733 4.09649 22.3188 4.53718 23.0378 5.44212 23.8648 5.47502 24.7814L5.34222 24.9204C4.2057 24.8819 3.28558 23.1458 2.76494 22.2568 1.786 20.5864 1.01618 18.5548 0.856363 16.5878 0.766992 15.4751 0.923366 14.5114 2.13499 14.2854 2.9201 14.1402 3.77322 14.6269 4.47483 14.9088 5.4233 15.2913 5.86286 16.024 6.28118 14.7971 6.60911 13.8334 6.17662 13.3801 5.79586 12.4959 5.45852 11.7148 5.08251 10.8158 4.74163 9.85825 2.84135 9.5404 0.851707 8.54449-0.120241 6.75127-0.21781 6.56988-0.0215584 6.35759 0.149998 6.46443 1.54502 7.32869 2.78376 8.24642 4.33262 8.60406 3.56644 6.03471 3.23851 3.23318 4.6229 1.16179 6.74544-2.01364 9.77981 1.62253 10.5684 4.04524 10.7411 4.57678 10.0267 4.82148 9.75511 4.40791 9.27921 3.68023 8.83853 2.65565 8.12983 2.14529 5.72532 0.414214 5.16824 2.25085 5.04952 4.17069 4.95316 5.72424 5.27522 7.27532 5.72764 8.75432 6.87348 8.70341 7.99937 8.24396 9.1288 8.38428 11.1478 8.63507 12.41 10.7239 12.8401 12.6537 12.9517 13.159 12.35 13.3876 12.0786 12.9914" fill="#008F89" fill-rule="evenodd" transform="matrix(1 0 0 -1 124 518)"/><path d="M5.64841 4.86488C4.77706 7.89021 0.86798 8.36677 0.865628 11.711 0.865628 11.908 0.641221 11.9725 0.505964 11.8602-0.645515 10.9143-0.0935455 9.33417 0.727917 8.31544 1.34757 7.54625 2.20819 7.12102 2.89909 6.44266 4.65836 4.7144 4.70703 2.48336 3.17216 0.601116 2.8813 0.245116 3.23627-0.242133 3.66126-0.0354868 5.55108 0.879353 6.22891 2.84769 5.64841 4.86488" fill="#008F89" fill-rule="evenodd" transform="matrix(1 0 0 -1 131 503)"/><path d="M6.86448-0.0973249C6.67493-0.117442 6.4942-0.107329 6.30466-0.088408 5.54677-0.0202262 4.80622 0.189321 4.08097 0.438125 3.17489 0.742388 2.27753 1.11483 1.51963 1.755 1.18969 2.03284 0.868376 2.35602 0.58964 2.72097 0.506826 3.40789 0.333695 4.12375 0.0451117 4.82079-1.42941 8.31579 6.60197 2.13767 6.60197 2.13767L6.86448-0.0973249" fill="#E0855C" fill-rule="evenodd" transform="matrix(1 0 0 -1 127 482)"/><path d="M18.7614 5.23647C18.7614 5.23647 19.886 16.6168 9.10803 14.6634-3.40683 12.3958-0.480076 3.72541 2.18203 1.04687 4.84175-1.63297 20.1468 0.575369 18.7614 5.23647" fill="#3B2645" fill-rule="evenodd" transform="matrix(1 0 0 -1 121 474)"/><path d="M13.1144 16.6867C14.1438 15.7276 14.794 13.6965 15.3579 11.2715 17.0643 3.93579 13.9542 0.534408 11.481 0.0648351 8.93976-0.417149 3.37835-0.384838 1.1907 6.30366 0.0981781 9.64781-0.447558 12.5287 0.00942008 14.4468 0.965872 18.4656 8.60063 20.8918 13.1144 16.6867" fill="#F5A784" fill-rule="evenodd" transform="matrix(1 0 0 -1 124 481)"/><path d="M0.435709-0.124948C0.435709-0.124948 1.07461-0.252159 0.780665 0.985647 0.515571 2.09767 0.115113 1.8473 0.115113 1.8473 0.115113 1.8473-0.299675 1.75606-0.0756591 0.781014 0.147306-0.195462 0.435709-0.124948 0.435709-0.124948" fill="#3B2645" fill-rule="evenodd" transform="matrix(1 0 0 -1 136 471)"/><path d="M0.440164-0.123607C0.440164-0.123607 1.07943-0.250909 0.784171 0.986471 0.518926 2.09917 0.119384 1.84874 0.119384 1.84874 0.119384 1.84874-0.295737 1.75732-0.0714968 0.781572 0.151596-0.194171 0.440164-0.123607 0.440164-0.123607" fill="#3B2645" fill-rule="evenodd" transform="matrix(1 0 0 -1 130 472)"/><path d="M0.000234041 0.168794C0.359019 0.280067 1.25037 0.230086 1.34819 0.611515 1.42835 0.929175 0.452753 2.55518 0.303318 2.83783 0.140191 3.14677-0.0174361 3.42069-0.172254 3.69214L-0.0867123 3.7697 0.132116 3.88603C0.739453 2.75909 1.25715 1.56083 1.82786 0.492702L1.6961 0.258846C1.15254 0.175042 0.648411-0.0163731 0.107659-0.11138-0.0731379-0.142726-0.183137 0.111273 0.000234041 0.168794" fill="#E0855C" fill-rule="evenodd" transform="matrix(1 0 0 -1 133 474)"/><path d="M-0.0934339 0.333184C0.377828 0.781619 1.34187 1.09969 1.82658 0.524472L1.7342 0.194133C1.47214 0.14893 1.21827 0.249813 0.954803 0.213291 0.667017 0.17677 0.413027 0.0342763 0.161843-0.132615-0.0649009-0.28379-0.301117 0.133363-0.0934339 0.333184" fill="#3B2645" fill-rule="evenodd" transform="matrix(1 0 0 -1 135 468)"/><path d="M-0.152239 0.0839153C-0.0109819 0.785108 1.16914 1.06823 1.75926 0.758891 1.89416 0.687762 1.8567 0.499302 1.73794 0.438272 1.45919 0.296014 1.12166 0.344687 0.819121 0.259804 0.554048 0.186204 0.361542 0.0339529 0.127799-0.0970237 0.00775194-0.163103-0.179802-0.0532932-0.152239 0.0839153" fill="#3B2645" fill-rule="evenodd" transform="matrix(1 0 0 -1 129 469)"/><path d="M0.184023 0.835142C0.662026 0.687434 1.04054 0.477541 1.55802 0.565512 1.96076 0.633298 2.35662 0.940847 2.75945 0.870377L2.85326 0.710536C2.64491 0.164508 1.89596-0.0441022 1.41556-0.100922 0.900478-0.163341 0.263873-0.0820208-0.0857314 0.388053-0.251213 0.611597-0.0532332 0.906895 0.184023 0.835142" fill="#E0855C" fill-rule="evenodd" transform="matrix(1 0 0 -1 133 476)"/><path d="M3.528 4.27425C3.528 4.27425 1.75996 7.20164 0.233784 5.16365-1.29249 3.12567 2.10157-0.893822 4.85467 0.0174631 4.85467 0.0174631 4.63094 3.37081 3.528 4.27425" fill="#F5A784" fill-rule="evenodd" transform="matrix(1 0 0 -1 122 477)"/><path d="M-0.00393518 1.85738C0.511954 1.86845 1.1148 1.48421 1.54068 1.20799 1.98879 0.918911 2.51508 0.555312 2.79956 0.0869684 2.88791-0.0590729 2.69191-0.198824 2.56954-0.119376 2.22464 0.101326 1.92544 0.391768 1.59527 0.639546 1.44192 0.383837 1.28579 0.12512 1.03368-0.0321346 0.840604-0.152742 0.635721 0.0838233 0.694749 0.277451 0.769898 0.528374 0.955613 0.734856 1.1398 0.926843 0.727119 1.13961 0.252486 1.27786-0.108662 1.55094-0.245758 1.65568-0.164643 1.85423-0.00393518 1.85738" fill="#E0855C" fill-rule="evenodd" transform="matrix(1 0 0 -1 123 475)"/><path d="M2.63586 3.26499C2.47108 4.25576 2.61571 5.44375 3.48881 5.97755 4.27621 6.46009 5.53921 6.34742 5.89402 7.18462 5.97831 7.38438 5.99087 7.61347 6.10658 7.79647 6.25251 8.02688 6.5305 8.13955 6.79344 8.22532 8.23 8.69132 9.79993 8.75912 11.2743 8.41737 12.6342 8.10119 14.0141 7.44325 15.3651 7.79526 15.5198 7.83495 15.6821 7.89768 15.7689 8.0282 15.8545 8.15234 15.8507 8.31495 15.8344 8.46598 15.6344 10.3106 13.96 11.72 12.1699 12.3575 9.39485 13.3469 6.16194 12.881 3.6875 11.3078 1.95788 10.207 0.560216 8.55175 0.0143006 6.61113-0.466287 4.90355 0.0972875 2.12441 1.33267 0.715044 3.39065-1.63007 2.92772 1.50616 2.63586 3.26499" fill="#3B2645" fill-rule="evenodd" transform="matrix(1 0 0 -1 122 472)"/><path d="M1.28849 20.8983C1.28849 20.8983 1.37777 9.73019 0.1185 2.89778 0.1185 2.89778-0.654591-1.28525 0.361533 0.251958 2.34032 3.24541 5.92999 14.7867 5.83526 22.8863 5.83526 22.8863 2.97895 23.2945 1.28849 20.8983" fill="#3B2645" fill-rule="evenodd" transform="matrix(1 0 0 -1 118 507)"/><path d="M-2.71655 0.855877C-2.38908 0.522543-2.16549 0.186898-1.71479-0.144123L-2.71655 0.855877" fill="#008F89" fill-rule="evenodd" transform="matrix(1 0 0 -1 144 506)"/><path d="M3.85316-0.0104789C2.90433-0.134621 1.87074-0.134621 0.971489 0.194394L-0.146842 12.9131C1.45799 9.1349 2.98358 3.49203 3.85316-0.0104789" fill="#008F89" fill-rule="evenodd" transform="matrix(1 0 0 -1 143 505)"/></g></svg>